{
.appVersion = "1101";
DisplayStrings = (
"",
"/qai-khmer",
"/ka-khmer",
"/coeng_kho-khmer",
"/coeng_qu-khmer",
"/coeng_ttho-khmer",
"/coeng_ttho-khmer.low",
"/avakrahasanya-khmer",
"/coeng_la-khmer",
"/aq-khmer",
"/coeng_sa_aasign-khmer.low/aa-khmer/aa-khmer",
"/coeng_ttha-khmer",
"/ie-khmer/ie-khmer.right1",
"/ae-khmer",
"/coeng_sso-khmer",
"/oe-khmer",
"/qaa-khmer",
"/uMark-khmer/uuMark-khmer/uaMark-khmer/coeng_ka-khmer/coeng_kha-khmer/coeng_ko-khmer/coeng_ngo-khmer/coeng_ca-khmer/coeng_cha-khmer/coeng_co-khmer/coeng_nyo-khmer/coeng_da-khmer/coeng_ttha-khmer/coeng_do-khmer/coeng_nno-khmer/coeng_ta-khmer/coeng_tha-khmer/coeng_to-khmer/coeng_tho-khmer/coeng_no-khmer/coeng_pha-khmer/coeng_po-khmer/coeng_pho-khmer/coeng_mo-khmer/coeng_lo-khmer/coeng_vo-khmer/coeng_sha-khmer/coeng_ha-khmer/coeng_qa-khmer/coeng_qu-khmer/coeng_ry-khmer/coeng_ryy-khmer/coeng_qe-khmer",
"/coeng_ba-khmer/coeng_ba-khmer.low",
"/khan-khmer/bariyoosan-khmer/camnucpiikuuh-khmer/beyyal-khmer/phnaekmuan-khmer/koomuut-khmer"
);
classes = (
{
code = "uni1780 uni1781 uni1782 uni1783 uni1784 uni1785 uni1786 uni1787 uni1788 uni1789 uni178A uni178B uni178C uni178D uni178E uni178F uni1790 uni1791 uni1792 uni1793 uni1794 uni1795 uni1796 uni1797 uni1798 uni1799 uni179A uni179B uni179C uni179D uni179E uni179F uni17A0 uni17A1 uni17A2 uni17A3 uni17A4 ";
name = khmbase01;
},
{

glyphs = (
{
color = 6;
glyphname = "ka-khmer";
lastChange = "2018-01-05 14:26:42 +0000";
layers = (
{
anchors = (
{
name = abvm;
position = "{293, 655}";
},
{
name = blwm;
position = "{295, -10}";
}
);
color = 6;
layerId = "6517A2BC-7974-4B53-8E65-A6A29EB8D1E7";
paths = (
{
closed = 1;
nodes = (
"481 560 LINE",
"481 586 LINE",
"110 586 LINE",
"110 560 LINE"
);
},
{
closed = 1;
nodes = (
"136 0 LINE",
"136 312 LINE SMOOTH",
"136 389 OFFCURVE",
"176 433 OFFCURVE",
"294 433 CURVE SMOOTH",
"412 433 OFFCURVE",
"455 393 OFFCURVE",
"455 312 CURVE SMOOTH",
"455 0 LINE",
"481 0 LINE",
"481 312 LINE SMOOTH",
"481 415 OFFCURVE",
"422 459 OFFCURVE",
"294 459 CURVE SMOOTH",
"166 459 OFFCURVE",
"110 415 OFFCURVE",
"110 312 CURVE SMOOTH",
"110 0 LINE"
);
}
);
width = 591;
}
);
note = uni1780;
unicode = 1780;
},
{
color = 6;
glyphname = "kha-khmer";
lastChange = "2018-01-05 14:26:42 +0000";
layers = (
{
anchors = (
{
name = abvm;
position = "{293, 655}";
},
{
name = blwm;
position = "{295, -10}";
}
);
color = 6;
layerId = "6517A2BC-7974-4B53-8E65-A6A29EB8D1E7";
paths = (
{
closed = 1;
nodes = (
"419 0 OFFCURVE",
"481 53 OFFCURVE",
"481 158 CURVE SMOOTH",
"481 234 LINE",
"455 234 LINE",
"455 158 LINE SMOOTH",
"455 69 OFFCURVE",
"413 26 OFFCURVE",
"294 26 CURVE SMOOTH",
"174 26 OFFCURVE",
"136 67 OFFCURVE",
"136 158 CURVE SMOOTH",
"136 262 LINE",
"260 275 LINE SMOOTH",
"397 289 OFFCURVE",
"481 338 OFFCURVE",
"481 444 CURVE SMOOTH",
"481 539 OFFCURVE",
"419 586 OFFCURVE",
"294 586 CURVE SMOOTH",
"173 586 OFFCURVE",
"110 522 OFFCURVE",
"110 432 CURVE SMOOTH",
"110 390 OFFCURVE",
"136 351 OFFCURVE",
"176 351 CURVE SMOOTH",
"182 351 LINE",
"182 375 LINE",
"159 375 OFFCURVE",
"136 395 OFFCURVE",
"136 432 CURVE SMOOTH",
"136 520 OFFCURVE",
"187 560 OFFCURVE",
"294 560 CURVE SMOOTH",
"413 560 OFFCURVE",
"455 523 OFFCURVE",
"455 444 CURVE SMOOTH",
"455 359 OFFCURVE",
"386 312 OFFCURVE",
"254 300 CURVE SMOOTH",
"110 286 LINE",
"110 158 LINE SMOOTH",
"110 45 OFFCURVE",
"169 0 OFFCURVE",
"294 0 CURVE SMOOTH"
);
}
);
width = 591;
}
);
note = uni1781;
unicode = 1781;
},
{
color = 6;
glyphname = "ko-khmer";
lastChange = "2018-01-05 14:26:42 +0000";
layers = (
{
anchors = (
{
name = abvm;
position = "{293, 655}";
},
{
name = blwm;
position = "{295, -10}";
}
);
color = 6;
layerId = "6517A2BC-7974-4B53-8E65-A6A29EB8D1E7";
paths = (
{
closed = 1;
nodes = (
"481 560 LINE",
"481 586 LINE",
"110 586 LINE",
"110 560 LINE"
);
},
{
closed = 1;
nodes = (
"136 0 LINE",
"136 53 LINE",
"144 111 OFFCURVE",
"182 132 OFFCURVE",
"271 132 CURVE SMOOTH",
"322 132 LINE",
"322 158 LINE",
"260 158 LINE SMOOTH",
"208 158 OFFCURVE",
"166 148 OFFCURVE",
"136 114 CURVE",
"136 312 LINE SMOOTH",
"136 389 OFFCURVE",
"183 431 OFFCURVE",
"294 431 CURVE SMOOTH",
"407 431 OFFCURVE",
"455 392 OFFCURVE",
"455 312 CURVE SMOOTH",
"455 0 LINE",
"481 0 LINE",
"481 312 LINE SMOOTH",
"481 413 OFFCURVE",
"414 457 OFFCURVE",
"294 457 CURVE SMOOTH",
"176 457 OFFCURVE",
"110 415 OFFCURVE",
"110 312 CURVE SMOOTH",
"110 0 LINE"
);
}
);
width = 591;
}
);
leftMetricsKey = "ka-khmer";
note = uni1782;
rightMetricsKey = "ka-khmer";
unicode = 1782;
},
{
color = 6;
glyphname = "kho-khmer";
lastChange = "2018-01-05 14:26:42 +0000";
layers = (
{
anchors = (
{
name = abvm;
position = "{604, 655}";
},
{
name = blwm;
position = "{636, -10}";
}
);
color = 6;
components = (
{
alignment = -1;
locked = 1;
name = topout.right;
transform = "{1, 0, 0, 1, 669, 0}";
},
{
alignment = -1;
locked = 1;
name = topout.left;
transform = "{1, 0, 0, 1, 334, 0}";
}
);
layerId = "6517A2BC-7974-4B53-8E65-A6A29EB8D1E7";
paths = (
{
closed = 1;
nodes = (
"142 53 OFFCURVE",
"209 0 OFFCURVE",
"316 0 CURVE SMOOTH",
"389 0 OFFCURVE",
"443 16 OFFCURVE",
"478 48 CURVE",
"512 16 OFFCURVE",
"560 0 OFFCURVE",
"631 0 CURVE SMOOTH",
"741 0 OFFCURVE",
"808 53 OFFCURVE",
"808 158 CURVE SMOOTH",
"808 384 LINE",
"782 384 LINE",
"782 158 LINE SMOOTH",
"782 75 OFFCURVE",
"733 26 OFFCURVE",
"636 26 CURVE SMOOTH",
"546 26 OFFCURVE",
"491 55 OFFCURVE",
"491 85 CURVE SMOOTH",
"491 386 LINE",
"465 386 LINE",
"465 85 LINE SMOOTH",
"465 55 OFFCURVE",
"408 26 OFFCURVE",
"316 26 CURVE SMOOTH",
"219 26 OFFCURVE",
"168 77 OFFCURVE",
"168 158 CURVE SMOOTH",
"168 530 LINE SMOOTH",
"168 557 OFFCURVE",
"154 586 OFFCURVE",
"111 586 CURVE SMOOTH",
"40 586 LINE",
"40 560 LINE",
"123 560 OFFCURVE",
"142 560 OFFCURVE",
"142 514 CURVE SMOOTH",
"142 158 LINE SMOOTH"
);
}
);
width = 917;
}
);
note = uni1783;
rightMetricsKey = "ba-khmer";
unicode = 1783;
},
{
color = 6;
glyphname = "ngo-khmer";
lastChange = "2018-01-05 14:26:42 +0000";
layers = (
{
anchors = (
{
name = abvm;
position = "{279, 714}";
},
{
name = blwm;
position = "{295, -10}";
}
);
color = 6;
guideLines = (
{
angle = 221.009;
position = "{232, 79}";
},
{
angle = 138.865;
position = "{360, 77}";
}
);
layerId = "6517A2BC-7974-4B53-8E65-A6A29EB8D1E7";
paths = (
{
closed = 1;
nodes = (
"141 0 LINE",
"295 134 LINE",
"448 0 LINE",
"479 0 LINE",
"479 341 LINE SMOOTH",
"479 382 OFFCURVE",
"464 433 OFFCURVE",
"403 461 CURVE",
"412 470 OFFCURVE",
"415 478 OFFCURVE",
"415 490 CURVE SMOOTH",
"415 511 OFFCURVE",
"398 526 OFFCURVE",
"378 526 CURVE SMOOTH",
"354 526 OFFCURVE",
"338 507 OFFCURVE",
"338 489 CURVE SMOOTH",
"338 472 OFFCURVE",
"345 463 OFFCURVE",
"355 455 CURVE",
"330 436 OFFCURVE",
"275 429 OFFCURVE",
"242 429 CURVE SMOOTH",
"185 429 OFFCURVE",
"134 468 OFFCURVE",
"134 522 CURVE SMOOTH",
"134 674 LINE",
"108 674 LINE",
"108 522 LINE SMOOTH",
"108 444 OFFCURVE",
"178 403 OFFCURVE",
"242 403 CURVE SMOOTH",
"285 403 OFFCURVE",
"343 417 OFFCURVE",
"383 443 CURVE",
"415 431 OFFCURVE",
"453 399 OFFCURVE",
"453 335 CURVE SMOOTH",
"453 31 LINE",
"295 169 LINE",
"134 29 LINE",
"134 318 LINE SMOOTH",
"134 339 OFFCURVE",
"126 346 OFFCURVE",
"99 346 CURVE SMOOTH",
"60 346 LINE",
"60 320 LINE",
"97 320 OFFCURVE",
"108 321 OFFCURVE",
"108 308 CURVE SMOOTH",
"108 0 LINE"
);
}
);
width = 589;
}
);
note = uni1784;
rightMetricsKey = "ka-khmer";
unicode = 1784;
},
{
color = 6;
glyphname = "ca-khmer";
lastChange = "2018-01-05 14:26:42 +0000";
layers = (
{
anchors = (
{
name = abvm;
position = "{267, 655}";
},
{
name = blwm;
position = "{274, -10}";
}
);
color = 6;
components = (
{
alignment = -1;
locked = 1;
name = looptop.left;
transform = "{1, 0, 0, 1, -41, 0}";
}
);
guideLines = (
{
angle = 270;
position = "{459, 569}";
},
{
position = "{234, 439}";
},
{
position = "{255, 400}";
}
);
layerId = "6517A2BC-7974-4B53-8E65-A6A29EB8D1E7";
paths = (
{
closed = 1;
nodes = (
"437 264 LINE",
"437 158 LINE SMOOTH",
"437 75 OFFCURVE",
"379 26 OFFCURVE",
"278 26 CURVE SMOOTH",
"175 26 OFFCURVE",
"116 76 OFFCURVE",
"116 158 CURVE SMOOTH",
"116 400 LINE",
"83 445 OFFCURVE",
"67 458 OFFCURVE",
"67 478 CURVE SMOOTH",
"67 507 OFFCURVE",
"98 543 OFFCURVE",
"114 560 CURVE",
"463 560 LINE",
"463 586 LINE",
"112 586 LINE",
"58 521 OFFCURVE",
"40 491 OFFCURVE",
"40 466 CURVE SMOOTH",
"40 451 OFFCURVE",
"60 436 OFFCURVE",
"90 384 CURVE",
"90 158 LINE SMOOTH",
"90 62 OFFCURVE",
"154 0 OFFCURVE",
"278 0 CURVE SMOOTH",
"401 0 OFFCURVE",
"463 63 OFFCURVE",
"463 158 CURVE SMOOTH",
"463 264 LINE"
);
}
);
width = 573;
}
);
leftMetricsKey = "ba-khmer";
note = uni1785;
rightMetricsKey = "ka-khmer";
unicode = 1785;
},
{
color = 6;
glyphname = "cha-khmer";
lastChange = "2018-01-05 14:26:42 +0000";
layers = (
{
anchors = (
{
name = abvm;
position = "{275, 655}";
},
{
name = blwm;
position = "{288, -10}";
}
);
color = 6;
components = (
{
alignment = -1;
locked = 1;
name = looptop.left;
transform = "{1, 0, 0, 1, -21, 0}";
}
);
guideLines = (
{
position = "{76, 128}";
showMeasurement = 1;
}
);
layerId = "6517A2BC-7974-4B53-8E65-A6A29EB8D1E7";
paths = (
{
closed = 1;
nodes = (
"457 263 LINE",
"457 158 LINE SMOOTH",
"457 97 OFFCURVE",
"436 26 OFFCURVE",
"392 26 CURVE SMOOTH",
"353 26 OFFCURVE",
"335 56 OFFCURVE",
"309 101 CURVE SMOOTH",
"270 167 OFFCURVE",
"232 187 OFFCURVE",
"136 187 CURVE",
"136 400 LINE",
"103 445 OFFCURVE",
"87 458 OFFCURVE",
"87 478 CURVE SMOOTH",
"87 507 OFFCURVE",
"118 543 OFFCURVE",
"134 560 CURVE",
"483 560 LINE",
"483 586 LINE",
"132 586 LINE",
"78 521 OFFCURVE",
"60 491 OFFCURVE",
"60 466 CURVE SMOOTH",
"60 451 OFFCURVE",
"80 436 OFFCURVE",
"110 384 CURVE",
"110 187 LINE",
"96 183 OFFCURVE",
"83 165 OFFCURVE",
"83 128 CURVE SMOOTH",
"83 85 OFFCURVE",
"90 45 OFFCURVE",
"110 0 CURVE",
"136 0 LINE",
"136 161 LINE",
"225 160 OFFCURVE",
"248 150 OFFCURVE",
"288 84 CURVE SMOOTH",
"314 41 OFFCURVE",
"342 0 OFFCURVE",
"392 0 CURVE SMOOTH",
"441 0 OFFCURVE",
"483 55 OFFCURVE",
"483 158 CURVE SMOOTH",
"483 263 LINE"
);
}
);
width = 583;
}
);
note = uni1786;
unicode = 1786;
},
{
color = 6;
glyphname = "co-khmer";
lastChange = "2018-01-05 14:26:42 +0000";
layers = (
{
anchors = (
{
name = abvm;
position = "{287, 714}";
},
{
name = abvm_high;
position = "{287, 645}";
},
{
name = blwm;
position = "{297, -10}";
}
);
color = 6;
guideLines = (
{
angle = 180;
position = "{297, 0}";
},
{
angle = 138.788;
position = "{390, 88}";
},
{
angle = 221.028;
position = "{207, 91}";
}
);
layerId = "6517A2BC-7974-4B53-8E65-A6A29EB8D1E7";
paths = (
{
closed = 1;
nodes = (
"143 0 LINE",
"297 134 LINE",
"450 0 LINE",
"483 0 LINE",
"483 470 LINE",
"457 470 LINE",
"457 29 LINE",
"297 169 LINE",
"136 29 LINE",
"136 400 LINE",
"103 445 OFFCURVE",
"87 458 OFFCURVE",
"87 478 CURVE SMOOTH",
"87 507 OFFCURVE",
"118 543 OFFCURVE",
"134 560 CURVE",
"422 560 LINE SMOOTH",
"463 560 OFFCURVE",
"483 575 OFFCURVE",
"483 610 CURVE SMOOTH",
"483 674 LINE",
"457 674 LINE",
"457 610 LINE SMOOTH",
"457 593 OFFCURVE",
"452 586 OFFCURVE",
"417 586 CURVE SMOOTH",
"132 586 LINE",
"78 521 OFFCURVE",
"60 491 OFFCURVE",
"60 466 CURVE SMOOTH",
"60 451 OFFCURVE",
"80 436 OFFCURVE",
"110 384 CURVE",
"110 0 LINE"
);
}
);
width = 593;
}
);
note = uni1787;
rightMetricsKey = "ka-khmer";
unicode = 1787;
},
{
color = 6;
glyphname = "cho-khmer";
lastChange = "2018-01-05 14:26:42 +0000";
layers = (
{
anchors = (
{
name = abvm;
position = "{901, 655}";
},
{
name = blwm;
position = "{940, -10}";
}
);
color = 6;
components = (
{
alignment = -1;
locked = 1;
name = loopleft;
transform = "{1, 0, 0, 1, -20, 0}";
},
{
alignment = -1;
locked = 1;
name = topout.right;
transform = "{1, 0, 0, 1, 960, 0}";
},
{
alignment = -1;
locked = 1;
name = topout.left;
transform = "{1, 0, 0, 1, 626, 0}";
}
);
guideLines = (
{
angle = 180;
position = "{608, 158}";
showMeasurement = 1;
}
);
layerId = "6517A2BC-7974-4B53-8E65-A6A29EB8D1E7";
paths = (
{
closed = 1;
nodes = (
"1073 386 LINE",
"1073 158 LINE SMOOTH",
"1073 78 OFFCURVE",
"1020 26 OFFCURVE",
"928 26 CURVE SMOOTH",
"824 26 OFFCURVE",
"783 73 OFFCURVE",
"783 112 CURVE SMOOTH",
"783 386 LINE",
"757 386 LINE",
"757 112 LINE SMOOTH",
"757 73 OFFCURVE",
"716 26 OFFCURVE",
"608 26 CURVE SMOOTH",
"509 26 OFFCURVE",
"459 75 OFFCURVE",
"459 158 CURVE SMOOTH",
"459 428 LINE SMOOTH",
"459 533 OFFCURVE",
"401 586 OFFCURVE",
"284 586 CURVE SMOOTH",
"168 586 OFFCURVE",
"110 533 OFFCURVE",
"110 428 CURVE SMOOTH",
"110 178 LINE",
"136 178 LINE",
"136 428 LINE SMOOTH",
"136 509 OFFCURVE",
"185 559 OFFCURVE",
"284 559 CURVE SMOOTH",
"381 559 OFFCURVE",
"433 509 OFFCURVE",
"433 428 CURVE SMOOTH",
"433 158 LINE SMOOTH",
"433 53 OFFCURVE",
"497 0 OFFCURVE",
"608 0 CURVE SMOOTH",
"696 0 OFFCURVE",
"748 31 OFFCURVE",
"770 68 CURVE",
"794 31 OFFCURVE",
"841 0 OFFCURVE",
"928 0 CURVE SMOOTH",
"1035 0 OFFCURVE",
"1099 62 OFFCURVE",
"1099 158 CURVE SMOOTH",
"1099 386 LINE"
);
}
);
width = 1199;
}
);
note = uni1788;
unicode = 1788;
},
{
color = 6;
glyphname = "nyo-khmer";
lastChange = "2018-01-05 14:26:42 +0000";
layers = (
{
anchors = (
{
name = abvm;
position = "{599, 655}";
},
{
name = blwm;
position = "{462, -244}";
}
);
color = 6;
components = (
{
alignment = -1;
locked = 1;
name = "nyo-khmer.a";
}
);
guideLines = (
{
angle = 270;
position = "{103, 27}";
}
);
layerId = "6517A2BC-7974-4B53-8E65-A6A29EB8D1E7";
paths = (
{
closed = 1;
nodes = (
"734 -244 OFFCURVE",
"807 -181 OFFCURVE",
"807 -69 CURVE SMOOTH",
"807 -49 LINE",
"680 -49 LINE",
"680 -75 LINE",
"780 -75 LINE",
"780 -159 OFFCURVE",
"724 -218 OFFCURVE",
"646 -218 CURVE SMOOTH",
"594 -218 OFFCURVE",
"558 -197 OFFCURVE",
"513 -171 CURVE SMOOTH",
"447 -132 OFFCURVE",
"399 -120 OFFCURVE",
"316 -120 CURVE SMOOTH",
"114 -120 LINE",
"114 -146 LINE",
"292 -146 LINE SMOOTH",
"365 -146 OFFCURVE",
"424 -146 OFFCURVE",
"486 -185 CURVE SMOOTH",
"540 -219 OFFCURVE",
"589 -244 OFFCURVE",
"647 -244 CURVE SMOOTH"
);
}
);
width = 917;
}
);
leftMetricsKey = "nyo-khmer.a";
note = uni1789;
rightMetricsKey = "nyo-khmer.a";
unicode = 1789;
},
{
color = 6;
glyphname = "da-khmer";
lastChange = "2018-01-05 14:26:42 +0000";
layers = (
{
anchors = (
{
name = abvm;
position = "{296, 714}";
},
{
name = abvm_high;
position = "{296, 645}";
},
{
name = blwm;
position = "{296, -10}";
}
);
color = 6;
guideLines = (
{
angle = 220.844;
position = "{222, 70}";
showMeasurement = 1;
},
{
angle = -41.2124;
position = "{384, 93}";
showMeasurement = 1;
}
);
layerId = "6517A2BC-7974-4B53-8E65-A6A29EB8D1E7";
paths = (
{
closed = 1;
nodes = (
"409 489 LINE SMOOTH",
"441 489 OFFCURVE",
"484 498 OFFCURVE",
"484 566 CURVE SMOOTH",
"484 674 LINE",
"458 674 LINE",
"458 567 LINE SMOOTH",
"458 533 OFFCURVE",
"449 513 OFFCURVE",
"392 513 CURVE SMOOTH",
"137 513 LINE",
"137 610 LINE",
"113 610 LINE",
"113 489 LINE"
);
},
{
closed = 1;
nodes = (
"142 0 LINE",
"298 135 LINE",
"452 0 LINE",
"484 0 LINE",
"484 402 LINE",
"458 402 LINE",
"458 30 LINE",
"298 170 LINE",
"136 30 LINE",
"136 402 LINE",
"110 402 LINE",
"110 0 LINE"
);
}
);
width = 594;
}
);
note = uni178A;
rightMetricsKey = "ka-khmer";
unicode = 178A;
},
{
color = 6;
glyphname = "ttha-khmer";
lastChange = "2018-01-05 14:26:42 +0000";
layers = (
{
anchors = (
{
name = abvm;
position = "{287, 714}";
},
{
name = blwm;
position = "{318, -10}";
}
);
color = 6;
guideLines = (
{
angle = -42.2446;
position = "{449, 446}";
}
);
layerId = "6517A2BC-7974-4B53-8E65-A6A29EB8D1E7";
paths = (
{
closed = 1;
nodes = (
"443 0 OFFCURVE",
"505 53 OFFCURVE",
"505 158 CURVE SMOOTH",
"505 395 LINE",
"383 506 LINE",
"421 560 LINE",
"471 560 LINE SMOOTH",
"509 560 OFFCURVE",
"518 575 OFFCURVE",
"518 611 CURVE SMOOTH",
"518 674 LINE",
"492 674 LINE",
"492 615 LINE SMOOTH",
"492 593 OFFCURVE",
"486 586 OFFCURVE",
"468 586 CURVE SMOOTH",
"413 586 LINE",
"402 572 OFFCURVE",
"361 526 OFFCURVE",
"361 506 CURVE SMOOTH",
"361 491 OFFCURVE",
"381 473 OFFCURVE",
"479 384 CURVE",
"479 158 LINE SMOOTH",
"479 64 OFFCURVE",
"426 26 OFFCURVE",
"318 26 CURVE SMOOTH",
"219 26 OFFCURVE",
"158 64 OFFCURVE",
"158 157 CURVE SMOOTH",
"158 553 LINE SMOOTH",
"158 582 OFFCURVE",
"144 586 OFFCURVE",
"117 586 CURVE SMOOTH",
"60 586 LINE",
"60 560 LINE",
"108 560 OFFCURVE",
"132 560 OFFCURVE",
"132 545 CURVE SMOOTH",
"132 158 LINE SMOOTH",
"132 53 OFFCURVE",
"194 0 OFFCURVE",
"318 0 CURVE SMOOTH"
);
}
);
width = 628;
}
);
note = uni178B;
unicode = 178B;
},
{
color = 6;
glyphname = "do-khmer";
lastChange = "2018-01-05 14:26:42 +0000";
layers = (
{
anchors = (
{
name = abvm;
position = "{296, 655}";
},
{
name = blwm;
position = "{305, -10}";
}
);
color = 6;
guideLines = (
{
angle = 185.345;
position = "{208, 268}";
}
);
layerId = "6517A2BC-7974-4B53-8E65-A6A29EB8D1E7";
paths = (
{
closed = 1;
nodes = (
"492 -10 LINE",
"492 234 LINE",
"466 234 LINE",
"466 170 LINE SMOOTH",
"466 132 OFFCURVE",
"351 26 OFFCURVE",
"248 26 CURVE SMOOTH",
"182 26 OFFCURVE",
"144 73 OFFCURVE",
"144 158 CURVE SMOOTH",
"144 252 LINE",
"294 276 LINE SMOOTH",
"411 295 OFFCURVE",
"492 352 OFFCURVE",
"492 466 CURVE SMOOTH",
"492 544 OFFCURVE",
"460 586 OFFCURVE",
"401 586 CURVE SMOOTH",
"362 586 OFFCURVE",
"328 556 OFFCURVE",
"302 524 CURVE",
"301 524 LINE",
"282 551 OFFCURVE",
"255 586 OFFCURVE",
"206 586 CURVE SMOOTH",
"155 586 OFFCURVE",
"110 533 OFFCURVE",
"110 466 CURVE SMOOTH",
"110 412 OFFCURVE",
"136 351 OFFCURVE",
"209 351 CURVE SMOOTH",
"220 351 LINE",
"220 377 LINE",
"155 377 OFFCURVE",
"136 412 OFFCURVE",
"136 470 CURVE SMOOTH",
"136 512 OFFCURVE",
"164 560 OFFCURVE",
"205 560 CURVE SMOOTH",
"259 560 OFFCURVE",
"271 496 OFFCURVE",
"301 496 CURVE SMOOTH",
"314 496 OFFCURVE",
"328 513 OFFCURVE",
"338 525 CURVE SMOOTH",
"350 539 OFFCURVE",
"371 560 OFFCURVE",
"401 560 CURVE SMOOTH",
"439 560 OFFCURVE",
"466 530 OFFCURVE",
"466 461 CURVE SMOOTH",
"466 378 OFFCURVE",
"405 320 OFFCURVE",
"289 302 CURVE SMOOTH",
"118 276 LINE",
"118 158 LINE SMOOTH",
"118 45 OFFCURVE",
"177 0 OFFCURVE",
"248 0 CURVE SMOOTH",
"323 0 OFFCURVE",
"418 54 OFFCURVE",
"465 121 CURVE",
"466 121 LINE",
"466 -10 LINE"
);
}
);
width = 602;
}
);
note = uni178C;
unicode = 178C;
},
{
color = 6;
glyphname = "ttho-khmer";
lastChange = "2018-01-05 14:26:42 +0000";
layers = (
{
anchors = (
{
name = abvm;
position = "{593, 655}";
},
{
name = blwm;
position = "{638, -10}";
}
);
color = 6;
components = (
{
alignment = -1;
locked = 1;
name = "po-khmer";
},
{
alignment = -1;
locked = 1;
name = topout.right;
transform = "{1, 0, 0, 1, 633, 0}";
}
);
layerId = "6517A2BC-7974-4B53-8E65-A6A29EB8D1E7";
paths = (
{
closed = 1;
nodes = (
"746 387 LINE",
"746 138 LINE SMOOTH",
"746 69 OFFCURVE",
"697 26 OFFCURVE",
"642 26 CURVE SMOOTH",
"580 26 OFFCURVE",
"530 64 OFFCURVE",
"511 171 CURVE",
"476 171 LINE",
"476 145 LINE",
"493 145 LINE",
"516 36 OFFCURVE",
"577 0 OFFCURVE",
"642 0 CURVE SMOOTH",
"714 0 OFFCURVE",
"772 50 OFFCURVE",
"772 148 CURVE SMOOTH",
"772 387 LINE"
);
}
);
width = 885;
}
);
leftMetricsKey = "po-khmer";
note = uni178D;
unicode = 178D;
},
{
color = 6;
glyphname = "nno-khmer";
lastChange = "2018-01-05 14:26:42 +0000";
layers = (
{
anchors = (
{
name = abvm;
position = "{599, 655}";
},
{
name = blwm;
position = "{599, -10}";
}
);
color = 6;
components = (
{
alignment = -1;
locked = 1;
name = loopleft;
transform = "{1, 0, 0, 1, -20, 0}";
}
);
guideLines = (
{
position = "{565, 92}";
},
{
angle = 43.7455;
position = "{513, 88}";
},
{
angle = 136.049;
position = "{682, 90}";
}
);
layerId = "6517A2BC-7974-4B53-8E65-A6A29EB8D1E7";
paths = (
{
closed = 1;
nodes = (
"136 188 LINE",
"136 428 LINE SMOOTH",
"136 509 OFFCURVE",
"186 560 OFFCURVE",
"281 560 CURVE SMOOTH",
"376 560 OFFCURVE",
"427 509 OFFCURVE",
"427 428 CURVE SMOOTH",
"427 0 LINE",
"459 0 LINE",
"599 134 LINE",
"738 0 LINE",
"770 0 LINE",
"770 428 LINE SMOOTH",
"770 509 OFFCURVE",
"821 560 OFFCURVE",
"916 560 CURVE SMOOTH",
"1011 560 OFFCURVE",
"1062 509 OFFCURVE",
"1062 428 CURVE SMOOTH",
"1062 0 LINE",
"1088 0 LINE",
"1088 428 LINE SMOOTH",
"1088 533 OFFCURVE",
"1029 586 OFFCURVE",
"916 586 CURVE SMOOTH",
"803 586 OFFCURVE",
"744 533 OFFCURVE",
"744 428 CURVE SMOOTH",
"744 30 LINE",
"599 170 LINE",
"453 30 LINE",
"453 428 LINE SMOOTH",
"453 533 OFFCURVE",
"394 586 OFFCURVE",
"281 586 CURVE SMOOTH",
"167 586 OFFCURVE",
"110 533 OFFCURVE",
"110 428 CURVE SMOOTH",
"110 188 LINE"
);
}
);
width = 1198;
}
);
note = uni178E;
unicode = 178E;
},
{
color = 6;
glyphname = "ta-khmer";
lastChange = "2018-01-05 14:26:42 +0000";
layers = (
{
anchors = (
{
name = abvm;
position = "{295, 655}";
},
{
name = blwm;
position = "{296, -10}";
}
);
color = 6;
components = (
{
alignment = -1;
locked = 1;
name = loopleft;
transform = "{1, 0, 0, 1, -20, 0}";
},
{
alignment = -1;
locked = 1;
name = "ta-khmer.base";
}
);
guideLines = (
{
position = "{297, 586}";
}
);
layerId = "6517A2BC-7974-4B53-8E65-A6A29EB8D1E7";
paths = (
{
closed = 1;
nodes = (
"481 560 LINE",
"481 586 LINE",
"110 586 LINE",
"110 560 LINE"
);
}
);
width = 593;
}
);
leftMetricsKey = "ka-khmer";
note = uni178F;
rightMetricsKey = "ka-khmer";
unicode = 178F;
},
{
color = 6;
glyphname = "tha-khmer";
lastChange = "2018-01-05 14:26:42 +0000";
layers = (
{
anchors = (
{
name = abvm;
position = "{283, 714}";
},
{
name = abvm_high;
position = "{283, 645}";
},
{
name = blwm;
position = "{292, -10}";
}
);
color = 6;
components = (
{
alignment = -1;
locked = 1;
name = looptop.left;
transform = "{1, 0, 0, 1, -21, 0}";
}
);
layerId = "6517A2BC-7974-4B53-8E65-A6A29EB8D1E7";
paths = (
{
closed = 1;
nodes = (
"457 246 LINE",
"457 152 LINE SMOOTH",
"457 72 OFFCURVE",
"404 26 OFFCURVE",
"296 26 CURVE SMOOTH",
"188 26 OFFCURVE",
"136 72 OFFCURVE",
"136 152 CURVE SMOOTH",
"136 394 LINE",
"103 437 OFFCURVE",
"87 458 OFFCURVE",
"87 474 CURVE SMOOTH",
"87 505 OFFCURVE",
"119 543 OFFCURVE",
"135 560 CURVE",
"423 560 LINE SMOOTH",
"473 560 OFFCURVE",
"483 581 OFFCURVE",
"483 623 CURVE SMOOTH",
"483 674 LINE",
"457 674 LINE",
"457 623 LINE SMOOTH",
"457 593 OFFCURVE",
"446 586 OFFCURVE",
"423 586 CURVE SMOOTH",
"130 586 LINE",
"76 521 OFFCURVE",
"60 491 OFFCURVE",
"60 470 CURVE SMOOTH",
"60 453 OFFCURVE",
"74 434 OFFCURVE",
"110 384 CURVE",
"110 158 LINE SMOOTH",
"110 53 OFFCURVE",
"169 0 OFFCURVE",
"293 0 CURVE SMOOTH",
"410 0 OFFCURVE",
"483 47 OFFCURVE",
"483 158 CURVE SMOOTH",
"483 246 LINE"
);
}
);
width = 593;
}
);
note = uni1790;
unicode = 1790;
},
{
color = 6;
glyphname = "to-khmer";
lastChange = "2018-01-05 14:26:42 +0000";
layers = (
{
anchors = (
{
name = abvm;
position = "{288, 655}";
},
{
name = blwm;
position = "{287, -10}";
}
);
color = 6;
layerId = "6517A2BC-7974-4B53-8E65-A6A29EB8D1E7";
paths = (
{
closed = 1;
nodes = (
"390 0 OFFCURVE",
"443 53 OFFCURVE",
"443 158 CURVE SMOOTH",
"443 242 LINE",
"460 244 OFFCURVE",
"474 258 OFFCURVE",
"474 274 CURVE SMOOTH",
"474 290 OFFCURVE",
"464 301 OFFCURVE",
"448 301 CURVE SMOOTH",
"431 301 OFFCURVE",
"419 288 OFFCURVE",
"417 264 CURVE",
"211 297 OFFCURVE",
"125 331 OFFCURVE",
"125 428 CURVE SMOOTH",
"125 519 OFFCURVE",
"166 560 OFFCURVE",
"286 560 CURVE SMOOTH",
"393 560 OFFCURVE",
"447 514 OFFCURVE",
"447 438 CURVE SMOOTH",
"447 414 LINE",
"473 414 LINE",
"473 438 LINE SMOOTH",
"473 522 OFFCURVE",
"410 586 OFFCURVE",
"286 586 CURVE SMOOTH",
"155 586 OFFCURVE",
"100 529 OFFCURVE",
"100 428 CURVE SMOOTH",
"100 322 OFFCURVE",
"179 277 OFFCURVE",
"417 242 CURVE",
"417 158 LINE SMOOTH",
"417 78 OFFCURVE",
"370 26 OFFCURVE",
"283 26 CURVE SMOOTH",
"196 26 OFFCURVE",
"150 77 OFFCURVE",
"150 158 CURVE SMOOTH",
"150 246 LINE",
"124 246 LINE",
"124 158 LINE SMOOTH",
"124 53 OFFCURVE",
"177 0 OFFCURVE",
"283 0 CURVE SMOOTH"
);
}
);
width = 574;
}
);
note = uni1791;
unicode = 1791;
},
{
color = 6;
glyphname = "tho-khmer";
lastChange = "2018-01-05 14:26:42 +0000";
layers = (
{
anchors = (
{
name = abvm;
position = "{271, 655}";
},
{
name = blwm;
position = "{297, -10}";
}
);
color = 6;
components = (
{
alignment = -1;
locked = 1;
name = looptop.left;
transform = "{1, 0, 0, 1, -21, 0}";
}
);
layerId = "6517A2BC-7974-4B53-8E65-A6A29EB8D1E7";
paths = (
{
closed = 1;
nodes = (
"457 248 LINE",
"457 30 LINE",
"297 169 LINE",
"136 29 LINE",
"136 394 LINE",
"103 437 OFFCURVE",
"87 458 OFFCURVE",
"87 474 CURVE SMOOTH",
"87 505 OFFCURVE",
"119 543 OFFCURVE",
"135 560 CURVE",
"483 560 LINE",
"483 586 LINE",
"130 586 LINE",
"76 521 OFFCURVE",
"60 491 OFFCURVE",
"60 470 CURVE SMOOTH",
"60 453 OFFCURVE",
"74 434 OFFCURVE",
"110 384 CURVE",
"110 0 LINE",
"143 0 LINE",
"297 134 LINE",
"450 0 LINE",
"483 0 LINE",
"483 248 LINE"
);
}
);
width = 593;
}
);
note = uni1792;
unicode = 1792;
},
{
color = 6;
glyphname = "no-khmer";
lastChange = "2018-01-05 14:26:42 +0000";
layers = (
{
anchors = (
{
name = abvm;
position = "{293, 655}";
},
{
name = blwm;
position = "{296, -10}";
}
);
color = 6;
guideLines = (
{
angle = 162.36;
position = "{729, 260}";
}
);
layerId = "6517A2BC-7974-4B53-8E65-A6A29EB8D1E7";
paths = (
{
closed = 1;
nodes = (
"136 0 LINE",
"136 142 LINE",
"218 142 OFFCURVE",
"231 116 OFFCURVE",
"291 50 CURVE SMOOTH",
"313 26 OFFCURVE",
"345 0 OFFCURVE",
"389 0 CURVE SMOOTH",
"452 0 OFFCURVE",
"489 60 OFFCURVE",
"489 134 CURVE SMOOTH",
"489 235 OFFCURVE",
"405 262 OFFCURVE",
"299 289 CURVE SMOOTH",
"229 307 OFFCURVE",
"136 337 OFFCURVE",
"136 427 CURVE SMOOTH",
"136 508 OFFCURVE",
"179 560 OFFCURVE",
"299 560 CURVE SMOOTH",
"376 560 OFFCURVE",
"457 524 OFFCURVE",
"457 446 CURVE SMOOTH",
"457 397 OFFCURVE",
"427 363 OFFCURVE",
"394 363 CURVE",
"394 337 LINE",
"396 337 LINE SMOOTH",
"440 337 OFFCURVE",
"483 381 OFFCURVE",
"483 446 CURVE SMOOTH",
"483 540 OFFCURVE",
"392 586 OFFCURVE",
"299 586 CURVE SMOOTH",
"162 586 OFFCURVE",
"110 518 OFFCURVE",
"110 427 CURVE SMOOTH",
"110 312 OFFCURVE",
"223 282 OFFCURVE",
"301 262 CURVE SMOOTH",
"399 237 OFFCURVE",
"463 209 OFFCURVE",
"463 131 CURVE SMOOTH",
"463 81 OFFCURVE",
"439 26 OFFCURVE",
"388 26 CURVE SMOOTH",
"354 26 OFFCURVE",
"319 58 OFFCURVE",
"303 75 CURVE SMOOTH",
"259 122 OFFCURVE",
"240 168 OFFCURVE",
"136 168 CURVE",
"136 246 LINE",
"110 246 LINE",
"110 0 LINE"
);
}
);
width = 599;
}
);
note = uni1793;
unicode = 1793;
},
{
color = 6;
glyphname = "ba-khmer";
lastChange = "2018-01-05 14:26:42 +0000";
layers = (
{
anchors = (
{
name = abvm;
position = "{262, 655}";
},
{
name = blwm;
position = "{297, -10}";
}
);
color = 6;
components = (
{
alignment = -1;
locked = 1;
name = topout.right;
transform = "{1, 0, 0, 1, 345, 0}";
},
{
alignment = -1;
locked = 1;
name = topout.left;
transform = "{1, 0, 0, 1, -20, 0}";
}
);
guideLines = (
{
position = "{34, 395}";
}
);
layerId = "6517A2BC-7974-4B53-8E65-A6A29EB8D1E7";
paths = (
{
closed = 1;
nodes = (
"111 383 LINE",
"111 158 LINE SMOOTH",
"111 53 OFFCURVE",
"173 0 OFFCURVE",
"297 0 CURVE SMOOTH",
"422 0 OFFCURVE",
"484 53 OFFCURVE",
"484 158 CURVE SMOOTH",
"484 383 LINE",
"458 383 LINE",
"458 158 LINE SMOOTH",
"458 75 OFFCURVE",
"404 25 OFFCURVE",
"297 25 CURVE SMOOTH",
"190 25 OFFCURVE",
"137 75 OFFCURVE",
"137 158 CURVE SMOOTH",
"137 383 LINE"
);
}
);
width = 593;
}
);
note = uni1794;
unicode = 1794;
},
{
color = 6;
glyphname = "pha-khmer";
lastChange = "2018-01-05 14:26:42 +0000";
layers = (
{
anchors = (
{
name = abvm;
position = "{283, 714}";
},
{
name = blwm;
position = "{296, -10}";
}
);
color = 6;
components = (
{
alignment = -1;
locked = 1;
name = looptop.left;
transform = "{1, 0, 0, 1, -21, 0}";
}
);
guideLines = (
{
angle = 270;
position = "{457, 304}";
showMeasurement = 1;
},
{
angle = 54.4377;
position = "{432, -4}";
showMeasurement = 1;
}
);
layerId = "6517A2BC-7974-4B53-8E65-A6A29EB8D1E7";
paths = (
{
closed = 1;
nodes = (
"457 244 LINE",
"457 30 LINE",
"297 169 LINE",
"136 29 LINE",
"136 394 LINE",
"103 437 OFFCURVE",
"87 458 OFFCURVE",
"87 474 CURVE SMOOTH",
"87 505 OFFCURVE",
"119 543 OFFCURVE",
"135 560 CURVE",
"423 560 LINE SMOOTH",
"473 560 OFFCURVE",
"483 581 OFFCURVE",
"483 623 CURVE SMOOTH",
"483 674 LINE",
"457 674 LINE",
"457 623 LINE SMOOTH",
"457 593 OFFCURVE",
"446 586 OFFCURVE",
"423 586 CURVE SMOOTH",
"130 586 LINE",
"76 521 OFFCURVE",
"60 491 OFFCURVE",
"60 470 CURVE SMOOTH",
"60 453 OFFCURVE",
"74 434 OFFCURVE",
"110 384 CURVE",
"110 0 LINE",
"143 0 LINE",
"297 134 LINE",
"450 0 LINE",
"483 0 LINE",
"483 244 LINE"
);
}
);
width = 593;
}
);
note = uni1795;
unicode = 1795;
},
{
color = 6;
glyphname = "po-khmer";
lastChange = "2018-01-05 14:26:42 +0000";
layers = (
{
anchors = (
{
name = abvm;
position = "{296, 655}";
},
{
name = blwm;
position = "{297, -10}";
}
);
color = 6;
components = (
{
alignment = -1;
locked = 1;
name = loopleft;
transform = "{1, 0, 0, 1, -20, 0}";
}
);
guideLines = (
{
position = "{168, 197}";
showMeasurement = 1;
}
);
layerId = "6517A2BC-7974-4B53-8E65-A6A29EB8D1E7";
paths = (
{
closed = 1;
nodes = (
"136 187 LINE",
"136 458 LINE SMOOTH",
"136 526 OFFCURVE",
"154 560 OFFCURVE",
"201 560 CURVE SMOOTH",
"248 560 OFFCURVE",
"271 499 OFFCURVE",
"297 499 CURVE SMOOTH",
"327 499 OFFCURVE",
"340 559 OFFCURVE",
"402 559 CURVE SMOOTH",
"440 559 OFFCURVE",
"458 524 OFFCURVE",
"458 451 CURVE SMOOTH",
"458 0 LINE",
"484 0 LINE",
"484 451 LINE SMOOTH",
"484 540 OFFCURVE",
"460 585 OFFCURVE",
"403 585 CURVE SMOOTH",
"361 585 OFFCURVE",
"334 565 OFFCURVE",
"298 525 CURVE",
"296 525 LINE",
"265 564 OFFCURVE",
"238 586 OFFCURVE",
"201 586 CURVE SMOOTH",
"140 586 OFFCURVE",
"110 540 OFFCURVE",
"110 461 CURVE SMOOTH",
"110 187 LINE"
);
}
);
width = 594;
}
);
note = uni1796;
unicode = 1796;
},
{
color = 6;
glyphname = "pho-khmer";
lastChange = "2018-01-05 14:26:42 +0000";
layers = (
{
anchors = (
{
name = abvm;
position = "{294, 655}";
},
{
name = blwm;
position = "{296, -10}";
}
);
color = 6;
layerId = "6517A2BC-7974-4B53-8E65-A6A29EB8D1E7";
paths = (
{
closed = 1;
nodes = (
"490 560 LINE",
"490 586 LINE",
"117 586 LINE",
"117 560 LINE"
);
},
{
closed = 1;
nodes = (
"153 -2 OFFCURVE",
"163 46 OFFCURVE",
"163 70 CURVE SMOOTH",
"163 146 OFFCURVE",
"143 232 OFFCURVE",
"143 300 CURVE SMOOTH",
"143 389 OFFCURVE",
"199 432 OFFCURVE",
"303 432 CURVE SMOOTH",
"407 432 OFFCURVE",
"464 397 OFFCURVE",
"464 312 CURVE SMOOTH",
"464 0 LINE",
"490 0 LINE",
"490 312 LINE SMOOTH",
"490 412 OFFCURVE",
"436 458 OFFCURVE",
"301 458 CURVE SMOOTH",
"182 458 OFFCURVE",
"117 399 OFFCURVE",
"117 300 CURVE SMOOTH",
"117 228 OFFCURVE",
"137 133 OFFCURVE",
"137 70 CURVE SMOOTH",
"137 48 OFFCURVE",
"134 24 OFFCURVE",
"107 24 CURVE SMOOTH",
"76 24 OFFCURVE",
"56 72 OFFCURVE",
"41 111 CURVE",
"20 103 LINE",
"37 36 OFFCURVE",
"65 -2 OFFCURVE",
"106 -2 CURVE SMOOTH"
);
}
);
width = 600;
}
);
note = uni1797;
rightMetricsKey = "ka-khmer";
unicode = 1797;
},
{
color = 6;
glyphname = "mo-khmer";
lastChange = "2018-01-05 14:26:42 +0000";
layers = (
{
anchors = (
{
name = abvm;
position = "{282, 655}";
},
{
name = blwm;
position = "{317, -10}";
}
);
color = 6;
components = (
{
alignment = -1;
locked = 1;
name = "ba-khmer";
}
);
layerId = "6517A2BC-7974-4B53-8E65-A6A29EB8D1E7";
paths = (
{
closed = 1;
nodes = (
"469 270 LINE",
"469 296 LINE",
"127 296 LINE",
"127 270 LINE"
);
}
);
width = 593;
}
);
leftMetricsKey = "ba-khmer";
note = uni1798;
rightMetricsKey = "ba-khmer";
unicode = 1798;
},
{
color = 6;
glyphname = "yo-khmer";
lastChange = "2018-01-05 14:26:42 +0000";
layers = (
{
anchors = (
{
name = abvm;
position = "{594, 655}";
},
{
name = blwm;
position = "{629, -10}";
}
);
color = 6;
components = (
{
alignment = -1;
locked = 1;
name = topout.right;
transform = "{1, 0, 0, 1, 651, 0}";
},
{
alignment = -1;
locked = 1;
name = topout.left;
transform = "{1, 0, 0, 1, 316, 0}";
}
);
layerId = "6517A2BC-7974-4B53-8E65-A6A29EB8D1E7";
paths = (
{
closed = 1;
nodes = (
"764 388 LINE",
"764 158 LINE SMOOTH",
"764 78 OFFCURVE",
"713 26 OFFCURVE",
"620 26 CURVE SMOOTH",
"516 26 OFFCURVE",
"473 63 OFFCURVE",
"473 102 CURVE SMOOTH",
"473 388 LINE",
"447 388 LINE",
"447 102 LINE SMOOTH",
"447 63 OFFCURVE",
"400 26 OFFCURVE",
"296 26 CURVE SMOOTH",
"193 26 OFFCURVE",
"136 67 OFFCURVE",
"136 158 CURVE SMOOTH",
"136 532 LINE SMOOTH",
"136 555 OFFCURVE",
"158 560 OFFCURVE",
"218 560 CURVE",
"218 586 LINE",
"185 586 LINE SMOOTH",
"134 586 OFFCURVE",
"110 569 OFFCURVE",
"110 536 CURVE SMOOTH",
"110 158 LINE SMOOTH",
"110 57 OFFCURVE",
"172 0 OFFCURVE",
"296 0 CURVE SMOOTH",
"299 0 LINE SMOOTH",
"362 0 OFFCURVE",
"434 19 OFFCURVE",
"459 57 CURVE",
"462 57 LINE",
"493 16 OFFCURVE",
"552 0 OFFCURVE",
"620 0 CURVE SMOOTH",
"723 0 OFFCURVE",
"790 62 OFFCURVE",
"790 158 CURVE SMOOTH",
"790 388 LINE"
);
}
);
width = 899;
}
);
note = uni1799;
rightMetricsKey = "ba-khmer";
unicode = 1799;
},
{
color = 6;
glyphname = "lo-khmer";
lastChange = "2018-01-05 14:26:42 +0000";
layers = (
{
anchors = (
{
name = abvm;
position = "{577, 655}";
},
{
name = blwm;
position = "{605, -10}";
}
);
color = 6;
components = (
{
alignment = -1;
locked = 1;
name = loopleft;
transform = "{1, 0, 0, 1, -20, 0}";
},
{
alignment = -1;
locked = 1;
name = topout.right;
transform = "{1, 0, 0, 1, 638, 0}";
}
);
layerId = "6517A2BC-7974-4B53-8E65-A6A29EB8D1E7";
paths = (
{
closed = 1;
nodes = (
"751 386 LINE",
"751 158 LINE SMOOTH",
"751 75 OFFCURVE",
"702 26 OFFCURVE",
"605 26 CURVE SMOOTH",
"510 26 OFFCURVE",
"462 75 OFFCURVE",
"462 158 CURVE SMOOTH",
"462 428 LINE SMOOTH",
"462 533 OFFCURVE",
"403 586 OFFCURVE",
"285 586 CURVE SMOOTH",
"169 586 OFFCURVE",
"110 533 OFFCURVE",
"110 428 CURVE SMOOTH",
"110 190 LINE",
"136 190 LINE",
"136 428 LINE SMOOTH",
"136 509 OFFCURVE",
"188 560 OFFCURVE",
"285 560 CURVE SMOOTH",
"384 560 OFFCURVE",
"436 509 OFFCURVE",
"436 428 CURVE SMOOTH",
"436 158 LINE SMOOTH",
"436 53 OFFCURVE",
"491 0 OFFCURVE",
"605 0 CURVE SMOOTH",
"721 0 OFFCURVE",
"777 53 OFFCURVE",
"777 158 CURVE SMOOTH",
"777 386 LINE"
);
}
);
width = 886;
}
);
note = uni179B;
rightMetricsKey = "ba-khmer";
unicode = 179B;
},
{
color = 6;
glyphname = "vo-khmer";
lastChange = "2018-01-05 14:26:42 +0000";
layers = (
{
anchors = (
{
name = abvm;
position = "{129, 724}";
},
{
name = blwm;
position = "{132, -10}";
}
);
color = 6;
components = (
{
alignment = -1;
locked = 1;
name = rovoloop;
transform = "{1, 0, 0, 1, 11, 0}";
}
);
layerId = "6517A2BC-7974-4B53-8E65-A6A29EB8D1E7";
paths = (
{
closed = 1;
nodes = (
"175 373 LINE",
"175 400 LINE",
"83 520 LINE",
"97 560 LINE",
"138 560 LINE SMOOTH",
"206 560 OFFCURVE",
"208 575 OFFCURVE",
"208 610 CURVE SMOOTH",
"208 674 LINE",
"182 674 LINE",
"182 610 LINE SMOOTH",
"182 593 OFFCURVE",
"177 586 OFFCURVE",
"155 586 CURVE SMOOTH",
"92 586 LINE",
"77 554 OFFCURVE",
"64 534 OFFCURVE",
"64 517 CURVE SMOOTH",
"64 499 OFFCURVE",
"105 452 OFFCURVE",
"149 388 CURVE",
"149 373 LINE"
);
}
);
width = 308;
}
);
leftMetricsKey = "ro-khmer";
note = uni179C;
unicode = 179C;
},
{
color = 6;
glyphname = "sha-khmer";
lastChange = "2018-01-05 14:26:42 +0000";
layers = (
{
anchors = (
{
name = abvm;
position = "{297, 655}";
},
{
name = blwm;
position = "{295, -10}";
}
);
color = 6;
components = (
{
alignment = -1;
locked = 1;
name = "ko-khmer";
}
);
layerId = "6517A2BC-7974-4B53-8E65-A6A29EB8D1E7";
paths = (
{
closed = 1;
nodes = (
"565 132 LINE",
"565 158 LINE",
"361 158 LINE",
"361 132 LINE"
);
}
);
width = 588;
}
);
leftMetricsKey = "ka-khmer";
note = uni179D;
unicode = 179D;
},
{
color = 6;
glyphname = "sso-khmer";
lastChange = "2018-01-05 14:26:42 +0000";
layers = (
{
anchors = (
{
name = abvm;
position = "{282, 655}";
},
{
name = blwm;
position = "{317, -10}";
}
);
color = 6;
components = (
{
alignment = -1;
locked = 1;
name = "ba-khmer";
}
);
layerId = "6517A2BC-7974-4B53-8E65-A6A29EB8D1E7";
paths = (
{
closed = 1;
nodes = (
"572 280 LINE",
"572 306 LINE",
"375 306 LINE",
"375 280 LINE"
);
}
);
width = 602;
}
);
leftMetricsKey = "ba-khmer";
note = uni179E;
unicode = 179E;
},
{
color = 6;
glyphname = "sa-khmer";
lastChange = "2018-01-05 14:26:42 +0000";
layers = (
{
anchors = (
{
name = abvm;
position = "{576, 655}";
},
{
name = blwm;
position = "{604, -10}";
},
{
name = blwm_nno;
position = "{373, 0}";
}
);
color = 6;
components = (
{
alignment = -1;
locked = 1;
name = loopleft;
transform = "{1, 0, 0, 1, -20, 0}";
},
{
alignment = -1;
locked = 1;
name = topout.right;
transform = "{1, 0, 0, 1, 637, 0}";
}
);
layerId = "6517A2BC-7974-4B53-8E65-A6A29EB8D1E7";
paths = (
{
closed = 1;
nodes = (
"216 449 LINE",
"163 537 LINE",
"171 560 LINE",
"429 560 LINE",
"429 586 LINE",
"171 586 LINE",
"155 564 OFFCURVE",
"145 549 OFFCURVE",
"145 531 CURVE SMOOTH",
"145 517 OFFCURVE",
"173 467 OFFCURVE",
"191 440 CURVE"
);
},
{
closed = 1;
nodes = (
"750 385 LINE",
"750 158 LINE SMOOTH",
"750 75 OFFCURVE",
"701 26 OFFCURVE",
"604 26 CURVE SMOOTH",
"507 26 OFFCURVE",
"459 75 OFFCURVE",
"459 158 CURVE SMOOTH",
"459 301 LINE SMOOTH",
"459 404 OFFCURVE",
"398 461 OFFCURVE",
"284 461 CURVE SMOOTH",
"170 461 OFFCURVE",
"110 400 OFFCURVE",
"110 301 CURVE SMOOTH",
"110 187 LINE",
"136 187 LINE",
"136 301 LINE SMOOTH",
"136 383 OFFCURVE",
"185 435 OFFCURVE",
"284 435 CURVE SMOOTH",
"383 435 OFFCURVE",
"433 383 OFFCURVE",
"433 301 CURVE SMOOTH",
"433 158 LINE SMOOTH",
"433 53 OFFCURVE",
"490 0 OFFCURVE",
"604 0 CURVE SMOOTH",
"719 0 OFFCURVE",
"776 53 OFFCURVE",
"776 158 CURVE SMOOTH",
"776 385 LINE"
);
}
);
width = 885;
}
);
leftMetricsKey = "ka-khmer";
note = uni179F;
rightMetricsKey = "ba-khmer";
unicode = 179F;
},
{
color = 6;
glyphname = "ha-khmer";
lastChange = "2018-01-05 14:26:42 +0000";
layers = (
{
anchors = (
{
name = abvm;
position = "{621, 655}";
},
{
name = blwm;
position = "{615, -10}";
}
);
color = 6;
components = (
{
alignment = -1;
locked = 1;
name = topout.left;
transform = "{1, 0, 0, 1, -20, 0}";
}
);
layerId = "6517A2BC-7974-4B53-8E65-A6A29EB8D1E7";
paths = (
{
closed = 1;
nodes = (
"111 382 LINE",
"111 158 LINE SMOOTH",
"111 53 OFFCURVE",
"173 0 OFFCURVE",
"297 0 CURVE SMOOTH",
"426 0 OFFCURVE",
"476 56 OFFCURVE",
"476 167 CURVE SMOOTH",
"476 428 LINE SMOOTH",
"476 508 OFFCURVE",
"528 560 OFFCURVE",
"621 560 CURVE SMOOTH",
"716 560 OFFCURVE",
"767 509 OFFCURVE",
"767 428 CURVE SMOOTH",
"767 0 LINE",
"793 0 LINE",
"793 428 LINE SMOOTH",
"793 533 OFFCURVE",
"734 586 OFFCURVE",
"621 586 CURVE SMOOTH",
"513 586 OFFCURVE",
"450 522 OFFCURVE",
"450 428 CURVE SMOOTH",
"450 158 LINE",
"450 75 OFFCURVE",
"404 25 OFFCURVE",
"297 25 CURVE SMOOTH",
"190 25 OFFCURVE",
"137 75 OFFCURVE",
"137 158 CURVE SMOOTH",
"137 382 LINE"
);
}
);
width = 903;
}
);
leftMetricsKey = "ba-khmer";
note = uni17A0;
rightMetricsKey = "ka-khmer";
unicode = 17A0;
},
{
color = 6;
glyphname = "qa-khmer";
lastChange = "2018-01-05 14:26:42 +0000";
layers = (
{
anchors = (
{
name = abvm;
position = "{311, 655}";
},
{
name = blwm;
position = "{301, -10}";
}
);
color = 6;
components = (
{
alignment = -1;
locked = 1;
name = topout.right;
transform = "{1, 0, 0, 1, 384, 0}";
},
{
alignment = -1;
locked = 1;
name = topout.left;
transform = "{1, 0, 0, 1, 19, 0}";
}
);
layerId = "6517A2BC-7974-4B53-8E65-A6A29EB8D1E7";
paths = (
{
closed = 1;
nodes = (
"497 385 LINE",
"497 306 LINE",
"176 306 LINE",
"176 385 LINE",
"150 385 LINE",
"150 66 LINE SMOOTH",
"150 32 OFFCURVE",
"129 26 OFFCURVE",
"60 26 CURVE",
"60 0 LINE",
"86 0 LINE SMOOTH",
"152 0 OFFCURVE",
"176 23 OFFCURVE",
"176 71 CURVE SMOOTH",
"176 279 LINE",
"497 279 LINE",
"497 66 LINE SMOOTH",
"497 32 OFFCURVE",
"476 26 OFFCURVE",
"407 26 CURVE",
"407 0 LINE",
"433 0 LINE SMOOTH",
"499 0 OFFCURVE",
"523 23 OFFCURVE",
"523 71 CURVE SMOOTH",
"523 385 LINE"
);
}
);
width = 632;
}
);
note = uni17A2;
unicode = 17A2;
},
{
color = 6;
glyphname = "qi-khmer";
lastChange = "2018-01-05 14:26:42 +0000";
layers = (
{
color = 6;
components = (
{
alignment = -1;
locked = 1;
name = "ta-khmer.base";
transform = "{1, 0, 0, 1, 1, 0}";
}
);
layerId = "6517A2BC-7974-4B53-8E65-A6A29EB8D1E7";
paths = (
{
closed = 1;
nodes = (
"129 450 LINE",
"98 482 OFFCURVE",
"86 499 OFFCURVE",
"86 513 CURVE SMOOTH",
"86 530 OFFCURVE",
"107 558 OFFCURVE",
"118 561 CURVE",
"399 561 LINE SMOOTH",
"480 561 OFFCURVE",
"482 576 OFFCURVE",
"482 611 CURVE SMOOTH",
"482 685 LINE",
"456 685 LINE",
"456 611 LINE SMOOTH",
"456 594 OFFCURVE",
"451 587 OFFCURVE",
"416 587 CURVE SMOOTH",
"116 587 LINE",
"83 558 OFFCURVE",
"60 532 OFFCURVE",
"60 507 CURVE SMOOTH",
"60 492 OFFCURVE",
"65 479 OFFCURVE",
"110 432 CURVE"
);
}
);
width = 594;
}
);
note = uni17A5;
unicode = 17A5;
},
{
color = 6;
glyphname = "qii-khmer";
lastChange = "2018-01-05 14:26:42 +0000";
layers = (
{
color = 6;
components = (
{
alignment = -1;
locked = 1;
name = loopleft;
transform = "{1, 0, 0, 1, -20, 0}";
},
{
alignment = -1;
locked = 1;
name = "ie-khmer.top";
transform = "{1, 0, 0, 1, 596, -19}";
}
);
guideLines = (
{
position = "{692, 563}";
showMeasurement = 1;
}
);
layerId = "6517A2BC-7974-4B53-8E65-A6A29EB8D1E7";
paths = (
{
closed = 1;
nodes = (
"746 554 LINE",
"746 -115 LINE SMOOTH",
"746 -174 OFFCURVE",
"704 -216 OFFCURVE",
"607 -216 CURVE SMOOTH",
"509 -216 OFFCURVE",
"455 -184 OFFCURVE",
"455 -119 CURVE SMOOTH",
"455 -47 OFFCURVE",
"368 -24 OFFCURVE",
"292 -24 CURVE SMOOTH",
"198 -24 OFFCURVE",
"130 -57 OFFCURVE",
"130 -138 CURVE SMOOTH",
"130 -208 LINE SMOOTH",
"130 -232 OFFCURVE",
"141 -244 OFFCURVE",
"178 -244 CURVE SMOOTH",
"198 -244 LINE",
"198 -218 LINE",
"173 -218 OFFCURVE",
"156 -218 OFFCURVE",
"156 -200 CURVE SMOOTH",
"156 -138 LINE SMOOTH",
"156 -74 OFFCURVE",
"220 -50 OFFCURVE",
"292 -50 CURVE SMOOTH",
"384 -50 OFFCURVE",
"429 -83 OFFCURVE",
"429 -127 CURVE SMOOTH",
"429 -209 OFFCURVE",
"498 -244 OFFCURVE",
"616 -244 CURVE SMOOTH",
"720 -244 OFFCURVE",
"772 -192 OFFCURVE",
"772 -127 CURVE SMOOTH",
"772 554 LINE"
);
},
{
closed = 1;
nodes = (
"136 186 LINE",
"136 424 LINE",
"136 506 OFFCURVE",
"189 556 OFFCURVE",
"296 556 CURVE SMOOTH",
"403 556 OFFCURVE",
"457 506 OFFCURVE",
"457 424 CURVE SMOOTH",
"457 0 LINE",
"483 0 LINE",
"483 424 LINE SMOOTH",
"483 529 OFFCURVE",
"421 582 OFFCURVE",
"296 582 CURVE SMOOTH",
"172 582 OFFCURVE",
"110 529 OFFCURVE",
"110 424 CURVE",
"110 186 LINE"
);
}
);
width = 882;
}
);
note = uni17A6;
rightMetricsKey = "ie-khmer.right1";
unicode = 17A6;
},
{
color = 6;
glyphname = "qu-khmer";
lastChange = "2018-01-05 14:26:42 +0000";
layers = (
{
anchors = (
{
name = abvm;
position = "{298, 655}";
},
{
name = blwm;
position = "{296, -20}";
}
);
color = 6;
guideLines = (
{
position = "{470, 234}";
},
{
angle = 185.305;
position = "{186, 267}";
}
);
layerId = "6517A2BC-7974-4B53-8E65-A6A29EB8D1E7";
paths = (
{
closed = 1;
nodes = (
"483 -18 LINE",
"483 234 LINE",
"457 234 LINE",
"457 152 LINE SMOOTH",
"457 126 OFFCURVE",
"352 27 OFFCURVE",
"255 27 CURVE SMOOTH",
"181 27 OFFCURVE",
"136 68 OFFCURVE",
"136 158 CURVE SMOOTH",
"136 262 LINE",
"267 275 LINE SMOOTH",
"408 289 OFFCURVE",
"483 342 OFFCURVE",
"483 447 CURVE SMOOTH",
"483 533 OFFCURVE",
"421 586 OFFCURVE",
"296 586 CURVE SMOOTH",
"175 586 OFFCURVE",
"112 522 OFFCURVE",
"112 432 CURVE SMOOTH",
"112 390 OFFCURVE",
"138 351 OFFCURVE",
"180 351 CURVE SMOOTH",
"184 351 LINE",
"184 375 LINE",
"161 375 OFFCURVE",
"138 395 OFFCURVE",
"138 432 CURVE SMOOTH",
"138 520 OFFCURVE",
"206 560 OFFCURVE",
"296 560 CURVE SMOOTH",
"415 560 OFFCURVE",
"457 517 OFFCURVE",
"457 446 CURVE SMOOTH",
"457 353 OFFCURVE",
"388 311 OFFCURVE",
"250 299 CURVE SMOOTH",
"110 286 LINE",
"110 158 LINE SMOOTH",
"110 48 OFFCURVE",
"172 1 OFFCURVE",
"254 1 CURVE SMOOTH",
"333 1 OFFCURVE",
"416 55 OFFCURVE",
"456 103 CURVE",
"457 103 LINE",
"457 -18 LINE"
);
}
);
width = 593;
}
);
note = uni17A7;
unicode = 17A7;
},
{
color = 6;
glyphname = "quk-khmer";
lastChange = "2018-01-05 14:26:42 +0000";
layers = (
{
color = 6;
components = (
{
alignment = -1;
locked = 1;
name = "qu-khmer";
}
);
layerId = "6517A2BC-7974-4B53-8E65-A6A29EB8D1E7";
paths = (
{
closed = 1;
nodes = (
"486 700 LINE",
"486 726 LINE",
"113 726 LINE",
"113 700 LINE"
);
}
);
width = 596;
}
);
leftMetricsKey = "qu-khmer";
note = uni17A8;
rightMetricsKey = "qu-khmer";
unicode = 17A8;
},
{
color = 6;
glyphname = "quu-khmer";
lastChange = "2018-01-05 14:26:42 +0000";
layers = (
{
color = 6;
components = (
{
alignment = -1;
locked = 1;
name = "qu-khmer";
}
);
guideLines = (
{
position = "{562, -18}";
}
);
layerId = "6517A2BC-7974-4B53-8E65-A6A29EB8D1E7";
paths = (
{
closed = 1;
nodes = (
"575 -18 LINE",
"575 234 LINE",
"549 234 LINE",
"549 -18 LINE"
);
}
);
width = 665;
}
);
leftMetricsKey = "qu-khmer";
note = uni17A9;
unicode = 17A9;
},
{
color = 6;
glyphname = "quuv-khmer";
lastChange = "2018-01-05 14:26:42 +0000";
layers = (
{
anchors = (
{
name = abvm;
position = "{288, 857}";
},
{
name = blwm;
position = "{294, -24}";
}
);
color = 6;
components = (
{
alignment = -1;
locked = 1;
name = "qu-khmer";
transform = "{1, 0, 0, 1, 7, 0}";
}
);
layerId = "6517A2BC-7974-4B53-8E65-A6A29EB8D1E7";
paths = (
{
closed = 1;
nodes = (
"138 562 LINE",
"107 594 OFFCURVE",
"95 611 OFFCURVE",
"95 625 CURVE SMOOTH",
"95 642 OFFCURVE",
"116 670 OFFCURVE",
"127 673 CURVE",
"407 673 LINE SMOOTH",
"488 673 OFFCURVE",
"490 688 OFFCURVE",
"490 723 CURVE SMOOTH",
"490 797 LINE",
"464 797 LINE",
"464 723 LINE SMOOTH",
"464 706 OFFCURVE",
"459 699 OFFCURVE",
"424 699 CURVE SMOOTH",
"125 699 LINE",
"92 670 OFFCURVE",
"69 644 OFFCURVE",
"69 619 CURVE SMOOTH",
"69 604 OFFCURVE",
"74 591 OFFCURVE",
"119 544 CURVE"
);
}
);
width = 597;
}
);
note = uni17AA;
unicode = 17AA;
},
{
color = 6;
glyphname = "qe-khmer";
lastChange = "2018-01-05 14:26:42 +0000";
layers = (
{
color = 6;
layerId = "6517A2BC-7974-4B53-8E65-A6A29EB8D1E7";
paths = (
{
closed = 1;
nodes = (
"146 0 LINE",
"302 134 LINE",
"455 0 LINE",
"486 0 LINE",
"486 424 LINE SMOOTH",
"486 537 OFFCURVE",
"436 586 OFFCURVE",
"331 586 CURVE SMOOTH",
"219 586 LINE SMOOTH",
"167 586 OFFCURVE",
"141 592 OFFCURVE",
"141 685 CURVE SMOOTH",
"141 742 LINE",
"115 742 LINE",
"115 657 LINE SMOOTH",
"115 583 OFFCURVE",
"150 560 OFFCURVE",
"225 560 CURVE SMOOTH",
"336 560 LINE SMOOTH",
"419 560 OFFCURVE",
"460 513 OFFCURVE",
"460 438 CURVE SMOOTH",
"460 31 LINE",
"302 169 LINE",
"140 29 LINE",
"140 453 LINE SMOOTH",
"140 474 OFFCURVE",
"133 481 OFFCURVE",
"106 481 CURVE SMOOTH",
"60 481 LINE",
"60 455 LINE",
"97 455 OFFCURVE",
"114 453 OFFCURVE",
"114 440 CURVE SMOOTH",
"114 0 LINE"
);
}
);
width = 596;
}
);
note = uni17AF;
unicode = 17AF;
},
{
color = 6;
glyphname = "qootypeone-khmer";
lastChange = "2018-01-05 14:26:42 +0000";
layers = (
{
color = 6;
components = (
{
alignment = -1;
locked = 1;
name = "qu-khmer";
transform = "{1, 0, 0, 1, 2, 0}";
}
);
layerId = "6517A2BC-7974-4B53-8E65-A6A29EB8D1E7";
paths = (
{
closed = 1;
nodes = (
"128 562 LINE",
"97 594 OFFCURVE",
"85 611 OFFCURVE",
"85 625 CURVE SMOOTH",
"85 642 OFFCURVE",
"106 670 OFFCURVE",
"117 673 CURVE",
"396 673 LINE SMOOTH",
"459 673 OFFCURVE",
"478 636 OFFCURVE",
"483 577 CURVE",
"516 595 LINE",
"500 663 OFFCURVE",
"467 699 OFFCURVE",
"386 699 CURVE SMOOTH",
"115 699 LINE",
"82 670 OFFCURVE",
"59 644 OFFCURVE",
"59 619 CURVE SMOOTH",
"59 604 OFFCURVE",
"64 591 OFFCURVE",
"109 544 CURVE"
);
}
);
width = 592;
}
);
note = uni17B1;
unicode = 17B1;
},
{
color = 6;
glyphname = "qootypetwo-khmer";
lastChange = "2018-01-05 14:26:42 +0000";
layers = (
{
color = 6;
guideLines = (
{
position = "{521, 460}";
},
{
angle = 221.634;
position = "{407, 336}";
}
);
layerId = "6517A2BC-7974-4B53-8E65-A6A29EB8D1E7";
paths = (
{
closed = 1;
nodes = (
"438 0 OFFCURVE",
"519 78 OFFCURVE",
"519 175 CURVE SMOOTH",
"519 232 OFFCURVE",
"479 296 OFFCURVE",
"442 331 CURVE",
"487 373 OFFCURVE",
"510 384 OFFCURVE",
"510 401 CURVE SMOOTH",
"510 411 OFFCURVE",
"507 414 OFFCURVE",
"488 436 CURVE",
"296 436 LINE",
"296 410 LINE",
"489 410 LINE",
"304 245 LINE",
"324 225 LINE",
"424 315 LINE",
"438 301 OFFCURVE",
"492 242 OFFCURVE",
"492 169 CURVE SMOOTH",
"492 76 OFFCURVE",
"397 26 OFFCURVE",
"299 26 CURVE SMOOTH",
"205 26 OFFCURVE",
"136 63 OFFCURVE",
"136 158 CURVE SMOOTH",
"136 428 LINE SMOOTH",
"136 488 OFFCURVE",
"187 559 OFFCURVE",
"305 559 CURVE SMOOTH",
"362 559 OFFCURVE",
"438 543 OFFCURVE",
"477 518 CURVE",
"495 541 LINE",
"449 568 OFFCURVE",
"380 585 OFFCURVE",
"311 585 CURVE SMOOTH",
"187 585 OFFCURVE",
"110 518 OFFCURVE",
"110 428 CURVE SMOOTH",
"110 158 LINE SMOOTH",
"110 68 OFFCURVE",
"159 0 OFFCURVE",
"299 0 CURVE SMOOTH"
);
}
);
width = 609;
}
);
note = uni17B2;
unicode = 17B2;
},
{
color = 6;
glyphname = "qau-khmer";
lastChange = "2018-01-05 14:26:42 +0000";
layers = (
{
color = 6;
components = (
{
alignment = -1;
locked = 1;
name = "qu-khmer";
transform = "{1, 0, 0, 1, 3, 0}";
}
);
guideLines = (
{
angle = 131.348;
position = "{404, 712}";
},
{
angle = 219.094;
position = "{547, 580}";
}
);
layerId = "6517A2BC-7974-4B53-8E65-A6A29EB8D1E7";
paths = (
{
closed = 1;
nodes = (
"139 562 LINE",
"108 594 OFFCURVE",
"96 611 OFFCURVE",
"96 625 CURVE SMOOTH",
"96 642 OFFCURVE",
"117 670 OFFCURVE",
"128 673 CURVE",
"408 673 LINE",
"501 567 LINE",
"522 584 LINE",
"503 635 OFFCURVE",
"484 683 OFFCURVE",
"422 699 CURVE",
"394 728 OFFCURVE",
"374 749 OFFCURVE",
"374 791 CURVE SMOOTH",
"374 818 OFFCURVE",
"381 862 OFFCURVE",
"426 908 CURVE",
"405 923 LINE",
"367 881 OFFCURVE",
"348 834 OFFCURVE",
"348 791 CURVE SMOOTH",
"348 752 OFFCURVE",
"364 722 OFFCURVE",
"385 699 CURVE",
"126 699 LINE",
"93 670 OFFCURVE",
"70 644 OFFCURVE",
"70 619 CURVE SMOOTH",
"70 604 OFFCURVE",
"75 591 OFFCURVE",
"120 544 CURVE"
);
}
);
width = 562;
}
);
note = uni17B3;
unicode = 17B3;
},
{
color = 7;
glyphname = "coeng_kho-khmer";
lastChange = "2018-01-05 14:26:33 +0000";
layers = (
{
anchors = (
{
name = abvm;
position = "{-3, 714}";
},
{
name = blwm;
position = "{-45, -264}";
}
);
color = 7;
components = (
{
alignment = -1;
locked = 1;
name = topout.right;
transform = "{1, 0, 0, 1, 17, 0}";
}
);
guideLines = (
{
position = "{-49, -126}";
showMeasurement = 1;
},
{
position = "{-413, -49}";
}
);
layerId = "6517A2BC-7974-4B53-8E65-A6A29EB8D1E7";
paths = (
{
closed = 1;
nodes = (
"130 385 LINE",
"130 -147 LINE SMOOTH",
"130 -195 OFFCURVE",
"95 -218 OFFCURVE",
"42 -218 CURVE SMOOTH",
"-4 -218 OFFCURVE",
"-32 -198 OFFCURVE",
"-32 -167 CURVE SMOOTH",
"-32 -49 LINE",
"-58 -49 LINE",
"-58 -167 LINE SMOOTH",
"-58 -198 OFFCURVE",
"-93 -218 OFFCURVE",
"-140 -218 CURVE SMOOTH",
"-185 -218 OFFCURVE",
"-219 -199 OFFCURVE",
"-219 -138 CURVE SMOOTH",
"-219 -49 LINE",
"-270 -49 LINE",
"-270 -75 LINE",
"-245 -75 LINE",
"-245 -138 LINE SMOOTH",
"-245 -220 OFFCURVE",
"-199 -244 OFFCURVE",
"-141 -244 CURVE SMOOTH",
"-98 -244 OFFCURVE",
"-68 -231 OFFCURVE",
"-45 -208 CURVE",
"-25 -231 OFFCURVE",
"7 -244 OFFCURVE",
"41 -244 CURVE SMOOTH",
"108 -244 OFFCURVE",
"156 -210 OFFCURVE",
"156 -147 CURVE SMOOTH",
"156 385 LINE"
);
}
);
width = 275;
}
);
note = uni17D21783;
category = Letter;
subCategory = Other;
},
{
color = 7;
glyphname = "coeng_cho-khmer";
lastChange = "2018-01-05 14:26:33 +0000";
layers = (
{
anchors = (
{
name = abvm;
position = "{-95, 714}";
},
{
name = blwm;
position = "{-124, -262}";
}
);
color = 7;
components = (
{
alignment = -1;
locked = 1;
name = topout.right;
transform = "{1, 0, 0, 1, -68, 0}";
}
);
guideLines = (
{
angle = 90;
position = "{-33, -117}";
showMeasurement = 1;
},
{
position = "{-95, -69}";
showMeasurement = 1;
},
{
position = "{-413, -49}";
}
);
layerId = "6517A2BC-7974-4B53-8E65-A6A29EB8D1E7";
paths = (
{
closed = 1;
nodes = (
"45 385 LINE",
"45 -146 LINE SMOOTH",
"45 -189 OFFCURVE",
"16 -221 OFFCURVE",
"-35 -221 CURVE SMOOTH",
"-74 -221 OFFCURVE",
"-111 -200 OFFCURVE",
"-111 -176 CURVE SMOOTH",
"-111 -49 LINE",
"-137 -49 LINE",
"-137 -176 LINE SMOOTH",
"-137 -200 OFFCURVE",
"-167 -218 OFFCURVE",
"-205 -218 CURVE SMOOTH",
"-246 -218 OFFCURVE",
"-268 -199 OFFCURVE",
"-268 -165 CURVE SMOOTH",
"-268 -135 LINE SMOOTH",
"-268 -80 OFFCURVE",
"-292 -39 OFFCURVE",
"-364 -39 CURVE SMOOTH",
"-436 -39 OFFCURVE",
"-462 -80 OFFCURVE",
"-462 -135 CURVE SMOOTH",
"-462 -244 LINE",
"-373 -244 LINE",
"-373 -218 LINE",
"-436 -218 LINE",
"-436 -131 LINE SMOOTH",
"-436 -85 OFFCURVE",
"-410 -65 OFFCURVE",
"-364 -65 CURVE SMOOTH",
"-318 -65 OFFCURVE",
"-294 -85 OFFCURVE",
"-294 -131 CURVE SMOOTH",
"-294 -165 LINE SMOOTH",
"-294 -214 OFFCURVE",
"-264 -244 OFFCURVE",
"-206 -244 CURVE SMOOTH",
"-164 -244 OFFCURVE",
"-137 -225 OFFCURVE",
"-124 -214 CURVE",
"-112 -225 OFFCURVE",
"-83 -244 OFFCURVE",
"-35 -244 CURVE SMOOTH",
"28 -244 OFFCURVE",
"71 -206 OFFCURVE",
"71 -146 CURVE SMOOTH",
"71 385 LINE"
);
}
);
width = 190;
}
);
note = uni17D21788;
rightMetricsKey = "coeng-khmer";
category = Letter;
subCategory = Other;
},
{
color = 7;
glyphname = "coeng_ttho-khmer";
lastChange = "2018-01-05 14:26:33 +0000";
layers = (
{
anchors = (
{
name = abvm;
position = "{-8, 714}";
}
);
color = 7;
components = (
{
alignment = -1;
locked = 1;
name = topout.right;
transform = "{1, 0, 0, 1, 10, 0}";
}
);
guideLines = (
{
position = "{-413, -49}";
}
);
layerId = "6517A2BC-7974-4B53-8E65-A6A29EB8D1E7";
paths = (
{
closed = 1;
nodes = (
"123 385 LINE",
"123 -185 LINE",
"66 -159 OFFCURVE",
"7 -145 OFFCURVE",
"-71 -145 CURVE SMOOTH",
"-132 -145 LINE",
"-132 -64 LINE SMOOTH",
"-132 -55 OFFCURVE",
"-134 -49 OFFCURVE",
"-142 -49 CURVE SMOOTH",
"-147 -49 LINE SMOOTH",
"-159 -49 OFFCURVE",
"-164 -55 OFFCURVE",
"-294 -121 CURVE",
"-426 -55 OFFCURVE",
"-430 -49 OFFCURVE",
"-443 -49 CURVE SMOOTH",
"-447 -49 LINE SMOOTH",
"-454 -49 OFFCURVE",
"-457 -52 OFFCURVE",
"-457 -61 CURVE SMOOTH",
"-457 -244 LINE",
"-396 -244 LINE",
"-396 -218 LINE",
"-431 -218 LINE",
"-431 -80 LINE",
"-294 -149 LINE",
"-158 -80 LINE",
"-158 -244 LINE",
"-132 -244 LINE",
"-132 -171 LINE",
"-78 -171 LINE SMOOTH",
"18 -171 OFFCURVE",
"113 -199 OFFCURVE",
"124 -244 CURVE",
"149 -244 LINE",
"149 385 LINE"
);
}
);
width = 268;
}
);
note = uni17D2178D;
rightMetricsKey = "coeng-khmer";
category = Letter;
subCategory = Other;
},
{
color = 7;
glyphname = "coeng_ba-khmer";
lastChange = "2018-01-05 14:26:33 +0000";
layers = (
{
anchors = (
{
name = abvm;
position = "{19, 714}";
},
{
name = blwm;
position = "{24, -239}";
}
);
color = 7;
components = (
{
alignment = -1;
locked = 1;
name = topout.right;
transform = "{1, 0, 0, 1, 41, 0}";
}
);
guideLines = (
{
position = "{-413, -49}";
}
);
layerId = "6517A2BC-7974-4B53-8E65-A6A29EB8D1E7";
paths = (
{
closed = 1;
nodes = (
"154 387 LINE",
"154 -212 LINE",
"24 -122 LINE",
"-108 -213 LINE",
"-108 -75 LINE",
"-27 -75 LINE",
"-27 -49 LINE",
"-134 -49 LINE",
"-134 -239 LINE",
"-95 -239 LINE",
"24 -154 LINE",
"142 -239 LINE",
"180 -239 LINE",
"180 387 LINE"
);
}
);
width = 299;
}
);
note = uni17D21794;
rightMetricsKey = "coeng-khmer";
category = Letter;
subCategory = Other;
},
{
color = 7;
glyphname = "coeng_yo-khmer";
lastChange = "2018-01-05 14:26:33 +0000";
layers = (
{
anchors = (
{
name = abvm;
position = "{19, 714}";
},
{
name = blwm;
position = "{21, -244}";
}
);
color = 7;
components = (
{
alignment = -1;
locked = 1;
name = topout.left;
transform = "{1, 0, 0, 1, 22, 0}";
}
);
layerId = "6517A2BC-7974-4B53-8E65-A6A29EB8D1E7";
paths = (
{
closed = 1;
nodes = (
"153 380 LINE",
"153 -86 LINE SMOOTH",
"153 -156 OFFCURVE",
"107 -218 OFFCURVE",
"21 -218 CURVE SMOOTH",
"-65 -218 OFFCURVE",
"-107 -158 OFFCURVE",
"-107 -88 CURVE SMOOTH",
"-107 -49 LINE",
"-133 -49 LINE",
"-133 -88 LINE SMOOTH",
"-133 -202 OFFCURVE",
"-52 -244 OFFCURVE",
"21 -244 CURVE SMOOTH",
"94 -244 OFFCURVE",
"179 -200 OFFCURVE",
"179 -86 CURVE SMOOTH",
"179 380 LINE"
);
}
);
width = 298;
}
);
note = uni17D21799;
rightMetricsKey = "coeng-khmer";
script = khmer;
category = Letter;
subCategory = Other;
},
{
color = 7;
glyphname = "coeng_ro-khmer";
lastChange = "2018-01-05 14:26:33 +0000";
layers = (
{
color = 7;
components = (
{
alignment = -1;
locked = 1;
name = topout.left;
}
);
guideLines = (
{
position = "{412, -244}";
}
);
layerId = "6517A2BC-7974-4B53-8E65-A6A29EB8D1E7";
paths = (
{
closed = 1;
nodes = (
"131 383 LINE",
"131 -112 LINE SMOOTH",
"131 -188 OFFCURVE",
"195 -244 OFFCURVE",
"285 -244 CURVE SMOOTH",
"375 -244 OFFCURVE",
"444 -198 OFFCURVE",
"444 -107 CURVE SMOOTH",
"444 -49 LINE",
"418 -49 LINE",
"418 -107 LINE SMOOTH",
"418 -172 OFFCURVE",
"374 -218 OFFCURVE",
"285 -218 CURVE SMOOTH",
"199 -218 OFFCURVE",
"157 -162 OFFCURVE",
"157 -107 CURVE SMOOTH",
"157 383 LINE"
);
}
);
width = 308;
}
);
note = uni17D2179A;
script = khmer;
category = Letter;
subCategory = Other;
},
{
color = 7;
glyphname = "coeng_sa-khmer";
lastChange = "2018-01-05 14:26:33 +0000";
layers = (
{
anchors = (
{
name = abvm;
position = "{21, 714}";
},
{
name = blwm;
position = "{19, -244}";
}
);
color = 7;
components = (
{
alignment = -1;
locked = 1;
name = topout.left;
transform = "{1, 0, 0, 1, 20, 0}";
}
);
guideLines = (
{
position = "{-413, -49}";
}
);
layerId = "6517A2BC-7974-4B53-8E65-A6A29EB8D1E7";
paths = (
{
closed = 1;
nodes = (
"151 386 LINE",
"151 30 LINE",
"21 30 LINE",
"21 4 LINE",
"151 4 LINE",
"151 -107 LINE SMOOTH",
"151 -155 OFFCURVE",
"108 -218 OFFCURVE",
"19 -218 CURVE SMOOTH",
"-67 -218 OFFCURVE",
"-109 -162 OFFCURVE",
"-109 -107 CURVE SMOOTH",
"-109 -49 LINE",
"-180 -49 LINE",
"-180 -75 LINE",
"-135 -75 LINE",
"-135 -107 LINE SMOOTH",
"-135 -188 OFFCURVE",
"-73 -244 OFFCURVE",
"19 -244 CURVE SMOOTH",
"100 -244 OFFCURVE",
"177 -191 OFFCURVE",
"177 -107 CURVE SMOOTH",
"177 4 LINE",
"231 4 LINE",
"231 30 LINE",
"177 30 LINE",
"177 386 LINE"
);
}
);
width = 299;
}
);
note = uni17D2179F;
rightMetricsKey = "coeng-khmer";
category = Letter;
subCategory = Other;
},
{
color = 7;
glyphname = "coeng_la-khmer";
lastChange = "2018-01-05 14:26:33 +0000";
layers = (
{
anchors = (
{
name = blwm;
position = "{8, -239}";
}
);
color = 7;
components = (
{
alignment = -1;
locked = 1;
name = topout.right;
transform = "{1, 0, 0, 1, 41, 0}";
}
);
guideLines = (
{
position = "{-413, -49}";
}
);
layerId = "6517A2BC-7974-4B53-8E65-A6A29EB8D1E7";
paths = (
{
closed = 1;
nodes = (
"154 383 LINE",
"154 -208 LINE",
"8 -70 LINE",
"-140 -210 LINE",
"-140 -80 LINE SMOOTH",
"-140 -62 OFFCURVE",
"-148 -49 OFFCURVE",
"-173 -49 CURVE SMOOTH",
"-220 -49 LINE",
"-220 -75 LINE",
"-184 -75 OFFCURVE",
"-166 -75 OFFCURVE",
"-166 -97 CURVE SMOOTH",
"-166 -239 LINE",
"-133 -239 LINE",
"8 -105 LINE",
"147 -239 LINE",
"180 -239 LINE",
"180 383 LINE"
);
}
);
width = 289;
}
);
rightMetricsKey = "ba-khmer";
category = Letter;
subCategory = Other;
},
{
color = 6;
glyphname = "avakrahasanya-khmer";
lastChange = "2018-01-05 14:26:42 +0000";
layers = (
{
color = 6;
layerId = "6517A2BC-7974-4B53-8E65-A6A29EB8D1E7";
paths = (
{
closed = 1;
nodes = (
"522 0 OFFCURVE",
"619 89 OFFCURVE",
"619 184 CURVE SMOOTH",
"619 300 OFFCURVE",
"537 335 OFFCURVE",
"382 360 CURVE SMOOTH",
"276 377 OFFCURVE",
"167 394 OFFCURVE",
"167 500 CURVE SMOOTH",
"167 618 OFFCURVE",
"293 658 OFFCURVE",
"385 658 CURVE SMOOTH",
"447 658 OFFCURVE",
"582 643 OFFCURVE",
"582 541 CURVE SMOOTH",
"582 472 OFFCURVE",
"513 467 OFFCURVE",
"491 467 CURVE",
"491 441 LINE",
"550 441 OFFCURVE",
"608 468 OFFCURVE",
"608 545 CURVE SMOOTH",
"608 618 OFFCURVE",
"537 684 OFFCURVE",
"388 684 CURVE SMOOTH",
"239 684 OFFCURVE",
"140 614 OFFCURVE",
"140 499 CURVE SMOOTH",
"140 375 OFFCURVE",
"258 351 OFFCURVE",
"363 334 CURVE SMOOTH",
"498 312 OFFCURVE",
"593 292 OFFCURVE",
"593 184 CURVE SMOOTH",
"593 112 OFFCURVE",
"500 26 OFFCURVE",
"359 26 CURVE SMOOTH",
"248 26 OFFCURVE",
"166 63 OFFCURVE",
"166 143 CURVE SMOOTH",
"166 195 OFFCURVE",
"246 224 OFFCURVE",
"284 224 CURVE",
"284 250 LINE",
"236 250 OFFCURVE",
"140 218 OFFCURVE",
"140 138 CURVE SMOOTH",
"140 61 OFFCURVE",
"207 0 OFFCURVE",
"356 0 CURVE SMOOTH"
);
}
);
width = 759;
}
);
note = uni17DC;
unicode = 17DC;
},
{
color = 6;
glyphname = "nyo-khmer.a";
lastChange = "2018-01-05 14:26:42 +0000";
layers = (
{
anchors = (
{
name = abvm;
position = "{599, 655}";
},
{
name = blwm;
position = "{652, -10}";
},
{
name = blwm_self;
position = "{472, -10}";
}
);
color = 6;
components = (
{
alignment = -1;
locked = 1;
name = "po-khmer";
}
);
layerId = "6517A2BC-7974-4B53-8E65-A6A29EB8D1E7";
paths = (
{
closed = 1;
nodes = (
"480 493 LINE",
"517 536 OFFCURVE",
"562 564 OFFCURVE",
"634 564 CURVE SMOOTH",
"737 564 OFFCURVE",
"781 533 OFFCURVE",
"781 449 CURVE SMOOTH",
"781 0 LINE",
"807 0 LINE",
"807 449 LINE SMOOTH",
"807 541 OFFCURVE",
"756 590 OFFCURVE",
"636 590 CURVE SMOOTH",
"559 590 OFFCURVE",
"502 554 OFFCURVE",
"466 513 CURVE"
);
}
);
width = 917;
}
);
note = uni1789.a;
},
{
color = 11;
glyphname = "ba-khmer.a";
lastChange = "2017-11-20 20:34:30 +0000";
layers = (
{
anchors = (
{
name = abvm;
position = "{296, 655}";
},
{
name = blwm;
position = "{297, -40}";
}
);
components = (
{
alignment = -1;
locked = 1;
name = "ba-khmer.a2";
}
);
layerId = "6517A2BC-7974-4B53-8E65-A6A29EB8D1E7";
paths = (
{
closed = 1;
nodes = (
"457 55 LINE",
"457 -40 LINE",
"483 -40 LINE",
"483 55 LINE"
);
}
);
width = 597;
}
);
note = uni1794.a;
},
{
color = 11;
glyphname = "ba-khmer.a2";
lastChange = "2017-11-20 20:34:30 +0000";
layers = (
{
anchors = (
{
name = abvm;
position = "{296, 655}";
},
{
name = blwm;
position = "{297, -40}";
}
);
layerId = "6517A2BC-7974-4B53-8E65-A6A29EB8D1E7";
paths = (
{
closed = 1;
nodes = (
"110 158 LINE SMOOTH",
"110 48 OFFCURVE",
"174 -10 OFFCURVE",
"256 -10 CURVE SMOOTH",
"345 -10 OFFCURVE",
"416 44 OFFCURVE",
"456 92 CURVE",
"457 92 LINE",
"457 -10 LINE",
"483 -10 LINE",
"483 439 LINE",
"457 439 LINE",
"457 141 LINE SMOOTH",
"457 115 OFFCURVE",
"364 16 OFFCURVE",
"257 16 CURVE SMOOTH",
"183 16 OFFCURVE",
"136 70 OFFCURVE",
"136 171 CURVE SMOOTH",
"136 394 LINE",
"103 439 OFFCURVE",
"87 461 OFFCURVE",
"87 474 CURVE SMOOTH",
"87 505 OFFCURVE",
"119 543 OFFCURVE",
"135 560 CURVE",
"507 560 LINE",
"507 586 LINE",
"130 586 LINE",
"76 521 OFFCURVE",
"60 491 OFFCURVE",
"60 470 CURVE SMOOTH",
"60 453 OFFCURVE",
"74 434 OFFCURVE",
"110 384 CURVE"
);
}
);
width = 597;
}
);
leftMetricsKey = "ba-khmer";
rightMetricsKey = "ba-khmer";
},
{
color = 11;
glyphname = "ie-khmer.right1.high";
lastChange = "2018-01-05 13:11:57 +0000";
layers = (
{
anchors = (
{
name = abvm;
position = "{0, 1045}";
}
);
components = (
{
alignment = -1;
locked = 1;
name = "ie-khmer.top";
transform = "{1, 0, 0, 1, 0, 40}";
}
);
layerId = "6517A2BC-7974-4B53-8E65-A6A29EB8D1E7";
paths = (
{
closed = 1;
nodes = (
"150 612 LINE",
"150 -127 LINE SMOOTH",
"150 -172 OFFCURVE",
"113 -218 OFFCURVE",
"20 -218 CURVE SMOOTH",
"-73 -218 OFFCURVE",
"-110 -172 OFFCURVE",
"-110 -127 CURVE SMOOTH",
"-110 -75 LINE",
"-86 -75 LINE",
"-86 -49 LINE",
"-136 -49 LINE",
"-136 -127 LINE SMOOTH",
"-136 -205 OFFCURVE",
"-64 -244 OFFCURVE",
"20 -244 CURVE SMOOTH",
"104 -244 OFFCURVE",
"176 -205 OFFCURVE",
"176 -127 CURVE SMOOTH",
"176 612 LINE"
);
}
);
width = 286;
}
);
leftMetricsKey = "ie-khmer.right1";
rightMetricsKey = "ie-khmer.right1";
category = Letter;
subCategory = Other;
},
{
color = 7;
glyphname = "coeng_yo-khmer.low";
lastChange = "2018-01-05 14:26:33 +0000";
layers = (
{
anchors = (
{
name = abvm;
position = "{19, 714}";
}
);
color = 7;
components = (
{
alignment = -1;
locked = 1;
name = topout.left;
transform = "{1, 0, 0, 1, 19, 0}";
}
);
guideLines = (
{
position = "{94, -391}";
},
{
angle = 270;
position = "{-110, -287}";
}
);
layerId = "6517A2BC-7974-4B53-8E65-A6A29EB8D1E7";
paths = (
{
closed = 1;
nodes = (
"150 380 LINE",
"150 -300 LINE SMOOTH",
"150 -353 OFFCURVE",
"114 -411 OFFCURVE",
"18 -411 CURVE SMOOTH",
"-78 -411 OFFCURVE",
"-110 -355 OFFCURVE",
"-110 -300 CURVE SMOOTH",
"-110 -294 LINE",
"-136 -294 LINE",
"-136 -300 LINE SMOOTH",
"-136 -391 OFFCURVE",
"-74 -437 OFFCURVE",
"18 -437 CURVE SMOOTH",
"99 -437 OFFCURVE",
"176 -391 OFFCURVE",
"176 -300 CURVE SMOOTH",
"176 380 LINE"
);
}
);
width = 295;
}
);
note = uni17D21799;
rightMetricsKey = "coeng-khmer";
script = khmer;
category = Letter;
subCategory = Other;
},
{
color = 7;
glyphname = "coeng_ro-khmer.low";
lastChange = "2018-01-05 14:26:33 +0000";
layers = (
{
color = 7;
components = (
{
alignment = -1;
locked = 1;
name = topout.left;
}
);
layerId = "6517A2BC-7974-4B53-8E65-A6A29EB8D1E7";
paths = (
{
closed = 1;
nodes = (
"131 385 LINE",
"131 -310 LINE SMOOTH",
"131 -386 OFFCURVE",
"188 -442 OFFCURVE",
"285 -442 CURVE SMOOTH",
"376 -442 OFFCURVE",
"444 -389 OFFCURVE",
"444 -297 CURVE SMOOTH",
"444 -294 LINE",
"418 -294 LINE",
"418 -297 LINE SMOOTH",
"417 -373 OFFCURVE",
"365 -416 OFFCURVE",
"285 -416 CURVE SMOOTH",
"199 -416 OFFCURVE",
"157 -360 OFFCURVE",
"157 -305 CURVE SMOOTH",
"157 385 LINE"
);
}
);
width = 308;
}
);
leftMetricsKey = "coeng-khmer";
note = uni17D2179A.b;
rightMetricsKey = "coeng-khmer";
category = Letter;
subCategory = Other;
},
{
color = 1;
glyphname = "ya-khmer.right1";
lastChange = "2018-01-05 14:26:23 +0000";
layers = (
{
anchors = (
{
name = abvm;
position = "{-37, 1011}";
}
);
color = 1;
components = (
{
alignment = -1;
locked = 1;
name = "ya-khmer.top";
transform = "{1, 0, 0, 1, 0, 6}";
}
);
guideLines = (
{
position = "{-433, -49}";
}
);
layerId = "6517A2BC-7974-4B53-8E65-A6A29EB8D1E7";
paths = (
{
closed = 1;
nodes = (
"150 544 LINE",
"150 -127 LINE SMOOTH",
"150 -172 OFFCURVE",
"107 -218 OFFCURVE",
"20 -218 CURVE SMOOTH",
"-67 -218 OFFCURVE",
"-111 -172 OFFCURVE",
"-111 -127 CURVE SMOOTH",
"-111 -75 LINE",
"-86 -75 LINE",
"-86 -49 LINE",
"-136 -49 LINE",
"-136 -127 LINE SMOOTH",
"-136 -205 OFFCURVE",
"-84 -244 OFFCURVE",
"20 -244 CURVE SMOOTH",
"124 -244 OFFCURVE",
"176 -205 OFFCURVE",
"176 -127 CURVE SMOOTH",
"176 544 LINE"
);
}
);
width = 286;
}
);
category = Letter;
subCategory = Other;
},
{
color = 1;
glyphname = "ie-khmer.right1";
lastChange = "2018-01-05 14:26:23 +0000";
layers = (
{
anchors = (
{
name = abvm;
position = "{0, 1015}";
}
);
color = 1;
components = (
{
alignment = -1;
locked = 1;
name = "ie-khmer.top";
transform = "{1, 0, 0, 1, 0, 10}";
}
);
guideLines = (
{
position = "{-433, -49}";
}
);
layerId = "6517A2BC-7974-4B53-8E65-A6A29EB8D1E7";
paths = (
{
closed = 1;
nodes = (
"150 582 LINE",
"150 -127 LINE SMOOTH",
"150 -172 OFFCURVE",
"113 -218 OFFCURVE",
"20 -218 CURVE SMOOTH",
"-73 -218 OFFCURVE",
"-110 -172 OFFCURVE",
"-110 -127 CURVE SMOOTH",
"-110 -75 LINE",
"-86 -75 LINE",
"-86 -49 LINE",
"-136 -49 LINE",
"-136 -127 LINE SMOOTH",
"-136 -205 OFFCURVE",
"-64 -244 OFFCURVE",
"20 -244 CURVE SMOOTH",
"104 -244 OFFCURVE",
"176 -205 OFFCURVE",
"176 -127 CURVE SMOOTH",
"176 582 LINE"
);
}
);
width = 286;
}
);
category = Letter;
subCategory = Other;
},
{
color = 1;
glyphname = "ya-khmer.right2";
lastChange = "2018-01-05 14:26:23 +0000";
layers = (
{
anchors = (
{
name = abvm;
position = "{-37, 1011}";
}
);
color = 1;
components = (
{
alignment = -1;
locked = 1;
name = "ya-khmer.top";
transform = "{1, 0, 0, 1, 0, 6}";
}
);
layerId = "6517A2BC-7974-4B53-8E65-A6A29EB8D1E7";
paths = (
{
closed = 1;
nodes = (
"150 544 LINE",
"150 -304 LINE SMOOTH",
"150 -349 OFFCURVE",
"107 -395 OFFCURVE",
"20 -395 CURVE SMOOTH",
"-67 -395 OFFCURVE",
"-110 -349 OFFCURVE",
"-110 -304 CURVE SMOOTH",
"-110 -294 LINE",
"-136 -294 LINE",
"-136 -304 LINE SMOOTH",
"-136 -382 OFFCURVE",
"-67 -421 OFFCURVE",
"20 -421 CURVE SMOOTH",
"107 -421 OFFCURVE",
"176 -374 OFFCURVE",
"176 -304 CURVE SMOOTH",
"176 544 LINE"
);
}
);
width = 286;
}
);
rightMetricsKey = "ya-khmer.right1";
category = Letter;
subCategory = Other;
},
{
color = 1;
glyphname = "ie-khmer.right2";
lastChange = "2018-01-05 14:26:23 +0000";
layers = (
{
anchors = (
{
name = abvm;
position = "{0, 1015}";
}
);
color = 1;
components = (
{
alignment = -1;
locked = 1;
name = "ie-khmer.top";
transform = "{1, 0, 0, 1, 0, 10}";
}
);
guideLines = (
{
position = "{-83, -274}";
},
{
angle = 180;
position = "{20, -304}";
}
);
layerId = "6517A2BC-7974-4B53-8E65-A6A29EB8D1E7";
paths = (
{
closed = 1;
nodes = (
"150 583 LINE",
"150 -304 LINE SMOOTH",
"150 -349 OFFCURVE",
"113 -395 OFFCURVE",
"20 -395 CURVE SMOOTH",
"-73 -395 OFFCURVE",
"-110 -349 OFFCURVE",
"-110 -304 CURVE SMOOTH",
"-110 -294 LINE",
"-136 -294 LINE",
"-136 -304 LINE SMOOTH",
"-136 -382 OFFCURVE",
"-64 -421 OFFCURVE",
"20 -421 CURVE SMOOTH",
"104 -421 OFFCURVE",
"176 -382 OFFCURVE",
"176 -304 CURVE SMOOTH",
"176 583 LINE"
);
}
);
width = 286;
}
);
rightMetricsKey = "ie-khmer.right1";
category = Letter;
subCategory = Other;
},
{
color = 1;
glyphname = "ya-khmer.right3";
lastChange = "2018-01-05 14:26:23 +0000";
layers = (
{
anchors = (
{
name = abvm;
position = "{-37, 1011}";
}
);
color = 1;
components = (
{
alignment = -1;
locked = 1;
name = "ya-khmer.top";
transform = "{1, 0, 0, 1, 0, 6}";
}
);
guideLines = (
{
position = "{-286, -499}";
},
{
position = "{-568, -514}";
}
);
layerId = "6517A2BC-7974-4B53-8E65-A6A29EB8D1E7";
paths = (
{
closed = 1;
nodes = (
"150 544 LINE",
"150 -574 LINE SMOOTH",
"150 -619 OFFCURVE",
"107 -665 OFFCURVE",
"20 -665 CURVE SMOOTH",
"-67 -665 OFFCURVE",
"-110 -619 OFFCURVE",
"-110 -574 CURVE SMOOTH",
"-110 -564 LINE",
"-136 -564 LINE",
"-136 -574 LINE SMOOTH",
"-136 -652 OFFCURVE",
"-67 -691 OFFCURVE",
"20 -691 CURVE SMOOTH",
"107 -691 OFFCURVE",
"176 -644 OFFCURVE",
"176 -574 CURVE SMOOTH",
"176 544 LINE"
);
}
);
width = 286;
}
);
rightMetricsKey = "ya-khmer.right1";
category = Letter;
subCategory = Other;
},
{
color = 1;
glyphname = "ie-khmer.right3";
lastChange = "2018-01-05 14:26:23 +0000";
layers = (
{
anchors = (
{
name = abvm;
position = "{0, 1015}";
}
);
color = 1;
components = (
{
alignment = -1;
locked = 1;
name = "ie-khmer.top";
transform = "{1, 0, 0, 1, 0, 10}";
}
);
guideLines = (
{
position = "{-568, -514}";
}
);
layerId = "6517A2BC-7974-4B53-8E65-A6A29EB8D1E7";
paths = (
{
closed = 1;
nodes = (
"150 585 LINE",
"150 -559 LINE SMOOTH",
"150 -617 OFFCURVE",
"107 -660 OFFCURVE",
"20 -660 CURVE SMOOTH",
"-66 -660 OFFCURVE",
"-110 -614 OFFCURVE",
"-110 -569 CURVE SMOOTH",
"-110 -565 LINE",
"-136 -565 LINE",
"-136 -569 LINE SMOOTH",
"-136 -647 OFFCURVE",
"-62 -686 OFFCURVE",
"20 -686 CURVE SMOOTH",
"107 -686 OFFCURVE",
"176 -644 OFFCURVE",
"176 -559 CURVE SMOOTH",
"176 585 LINE"
);
}
);
width = 286;
}
);
rightMetricsKey = "ie-khmer.right1";
category = Letter;
subCategory = Other;
},
{
color = 11;
export = 0;
glyphname = "ta-khmer.base";
lastChange = "2017-11-20 20:34:33 +0000";
layers = (
{
components = (
{
alignment = -1;
locked = 1;
name = loopleft;
transform = "{1, 0, 0, 1, -20, 0}";
}
);
layerId = "6517A2BC-7974-4B53-8E65-A6A29EB8D1E7";
paths = (
{
closed = 1;
nodes = (
"136 186 LINE",
"136 312 LINE",
"136 394 OFFCURVE",
"189 444 OFFCURVE",
"296 444 CURVE SMOOTH",
"403 444 OFFCURVE",
"457 394 OFFCURVE",
"457 312 CURVE SMOOTH",
"457 0 LINE",
"483 0 LINE",
"483 312 LINE SMOOTH",
"483 417 OFFCURVE",
"421 470 OFFCURVE",
"296 470 CURVE SMOOTH",
"172 470 OFFCURVE",
"110 417 OFFCURVE",
"110 312 CURVE",
"110 186 LINE"
);
}
);
width = 593;
}
);
},
{
color = 11;
glyphname = "ttha_aasign-khmer";
lastChange = "2017-11-20 20:13:38 +0000";
layers = (
{
anchors = (
{
name = abvm;
position = "{287, 714}";
},
{
name = abvm_a;
position = "{622, 717}";
},
{
name = abvm_high;
position = "{622, 684}";
},
{
name = blwm;
position = "{318, -10}";
},
{
name = blwm_a;
position = "{576, -10}";
}
);
components = (
{
alignment = -1;
locked = 1;
name = "ttha-khmer";
},
{
alignment = -1;
locked = 1;
name = "aasign-khmer";
transform = "{1, 0, 0, 1, 614, 0}";
}
);
layerId = "6517A2BC-7974-4B53-8E65-A6A29EB8D1E7";
paths = (
{
closed = 1;
nodes = (
"461 560 LINE",
"488 560 LINE",
"488 586 LINE",
"461 586 LINE"
);
}
);
width = 851;
}
);
leftMetricsKey = "ttha-khmer";
rightMetricsKey = "aasign-khmer";
category = Letter;
subCategory = Ligature;
},
{
color = 11;
glyphname = "ttha_au-khmer";
lastChange = "2017-11-20 20:13:38 +0000";
layers = (
{
anchors = (
{
name = abvm;
position = "{287, 714}";
},
{
name = blwm;
position = "{318, -10}";
},
{
name = blwm_a;
position = "{576, -10}";
}
);
components = (
{
alignment = -1;
locked = 1;
name = "ttha-khmer";
},
{
alignment = -1;
locked = 1;
name = "au-khmer.right";
transform = "{1, 0, 0, 1, 614, 0}";
}
);
layerId = "6517A2BC-7974-4B53-8E65-A6A29EB8D1E7";
paths = (
{
closed = 1;
nodes = (
"461 560 LINE",
"488 560 LINE",
"488 586 LINE",
"461 586 LINE"
);
}
);
width = 851;
}
);
leftMetricsKey = "ttha-khmer";
rightMetricsKey = "au-khmer";
category = Letter;
subCategory = Ligature;
},
{
color = 11;
glyphname = "vo_aasign-khmer";
lastChange = "2017-11-20 20:13:38 +0000";
layers = (
{
anchors = (
{
name = abvm;
position = "{129, 724}";
},
{
name = abvm_a;
position = "{292, 724}";
},
{
name = abvm_mskt;
position = "{292, 724}";
},
{
name = blwm;
position = "{132, -10}";
},
{
name = blwm_a;
position = "{246, -10}";
}
);
components = (
{
alignment = -1;
locked = 1;
name = "vo-khmer";
},
{
alignment = -1;
locked = 1;
name = "aasign-khmer";
transform = "{1, 0, 0, 1, 284, 0}";
}
);
layerId = "6517A2BC-7974-4B53-8E65-A6A29EB8D1E7";
paths = (
{
closed = 1;
nodes = (
"134 560 LINE",
"188 560 LINE",
"188 586 LINE",
"134 586 LINE"
);
}
);
width = 521;
}
);
leftMetricsKey = "vo-khmer";
rightMetricsKey = "aasign-khmer";
category = Letter;
subCategory = Ligature;
},
{
color = 11;
glyphname = "vo_au-khmer";
lastChange = "2017-11-20 20:13:38 +0000";
layers = (
{
anchors = (
{
name = abvm;
position = "{129, 724}";
},
{
name = blwm;
position = "{132, -10}";
},
{
name = blwm_a;
position = "{246, -10}";
}
);
components = (
{
alignment = -1;
locked = 1;
name = "vo-khmer";
},
{
alignment = -1;
locked = 1;
name = "au-khmer.right";
transform = "{1, 0, 0, 1, 284, 0}";
}
);
layerId = "6517A2BC-7974-4B53-8E65-A6A29EB8D1E7";
paths = (
{
closed = 1;
nodes = (
"134 560 LINE",
"188 560 LINE",
"188 586 LINE",
"134 586 LINE"
);
}
);
width = 521;
}
);
leftMetricsKey = "vo-khmer";
rightMetricsKey = "au-khmer";
category = Letter;
subCategory = Ligature;
},
{
color = 11;
glyphname = dottedCircle;
lastChange = "2018-01-05 11:43:11 +0000";
layers = (
{
anchors = (
{
name = abvm;
position = "{321, 600}";
},
{
name = blwm;
position = "{321, -10}";
}
);
guideLines = (
{
angle = 90;
position = "{321, 293}";
},
{
angle = 180;
position = "{321, 293}";
},
{
angle = 30;
position = "{410, 345}";
},
{
angle = 60;
position = "{321, 292}";
},
{
angle = 120;
position = "{349, 245}";
},
{
angle = 150;
position = "{380, 259}";
}
);
layerId = "6517A2BC-7974-4B53-8E65-A6A29EB8D1E7";
paths = (
{
closed = 1;
nodes = (
"133 276 OFFCURVE",
"140 283 OFFCURVE",
"140 291 CURVE SMOOTH",
"140 299 OFFCURVE",
"133 306 OFFCURVE",
"125 306 CURVE SMOOTH",
"117 306 OFFCURVE",
"110 299 OFFCURVE",
"110 291 CURVE SMOOTH",
"110 283 OFFCURVE",
"117 276 OFFCURVE",
"125 276 CURVE SMOOTH"
);
},
{
closed = 1;
nodes = (
"159 377 OFFCURVE",
"166 384 OFFCURVE",
"166 392 CURVE SMOOTH",
"166 400 OFFCURVE",
"159 407 OFFCURVE",
"151 407 CURVE SMOOTH",
"143 407 OFFCURVE",
"136 400 OFFCURVE",
"136 392 CURVE SMOOTH",
"136 384 OFFCURVE",
"143 377 OFFCURVE",
"151 377 CURVE SMOOTH"
);
},
{
closed = 1;
nodes = (
"230 447 OFFCURVE",
"237 454 OFFCURVE",
"237 462 CURVE SMOOTH",
"237 470 OFFCURVE",
"230 477 OFFCURVE",
"222 477 CURVE SMOOTH",
"214 477 OFFCURVE",
"207 470 OFFCURVE",
"207 462 CURVE SMOOTH",
"207 454 OFFCURVE",
"214 447 OFFCURVE",
"222 447 CURVE SMOOTH"
);
},
{
closed = 1;
nodes = (
"327 471 OFFCURVE",
"334 478 OFFCURVE",
"334 486 CURVE SMOOTH",
"334 494 OFFCURVE",
"327 501 OFFCURVE",
"319 501 CURVE SMOOTH",
"311 501 OFFCURVE",
"304 494 OFFCURVE",
"304 486 CURVE SMOOTH",
"304 478 OFFCURVE",
"311 471 OFFCURVE",
"319 471 CURVE SMOOTH"
);
},
{
closed = 1;
nodes = (
"424 447 OFFCURVE",
"431 454 OFFCURVE",
"431 462 CURVE SMOOTH",
"431 470 OFFCURVE",
"424 477 OFFCURVE",
"416 477 CURVE SMOOTH",
"408 477 OFFCURVE",
"401 470 OFFCURVE",
"401 462 CURVE SMOOTH",
"401 454 OFFCURVE",
"408 447 OFFCURVE",
"416 447 CURVE SMOOTH"
);
},
{
closed = 1;
nodes = (
"494 375 OFFCURVE",
"501 382 OFFCURVE",
"501 390 CURVE SMOOTH",
"501 398 OFFCURVE",
"494 405 OFFCURVE",
"486 405 CURVE SMOOTH",
"478 405 OFFCURVE",
"471 398 OFFCURVE",
"471 390 CURVE SMOOTH",
"471 382 OFFCURVE",
"478 375 OFFCURVE",
"486 375 CURVE SMOOTH"
);
},
{
closed = 1;
nodes = (
"524 276 OFFCURVE",
"531 283 OFFCURVE",
"531 291 CURVE SMOOTH",
"531 299 OFFCURVE",
"524 306 OFFCURVE",
"516 306 CURVE SMOOTH",
"508 306 OFFCURVE",
"501 299 OFFCURVE",
"501 291 CURVE SMOOTH",
"501 283 OFFCURVE",
"508 276 OFFCURVE",
"516 276 CURVE SMOOTH"
);
},
{
closed = 1;
nodes = (
"496 182 OFFCURVE",
"503 189 OFFCURVE",
"503 197 CURVE SMOOTH",
"503 205 OFFCURVE",
"496 212 OFFCURVE",
"488 212 CURVE SMOOTH",
"480 212 OFFCURVE",
"473 205 OFFCURVE",
"473 197 CURVE SMOOTH",
"473 189 OFFCURVE",
"480 182 OFFCURVE",
"488 182 CURVE SMOOTH"
);
},
{
closed = 1;
nodes = (
"425 110 OFFCURVE",
"432 117 OFFCURVE",
"432 125 CURVE SMOOTH",
"432 133 OFFCURVE",
"425 140 OFFCURVE",
"417 140 CURVE SMOOTH",
"409 140 OFFCURVE",
"402 133 OFFCURVE",
"402 125 CURVE SMOOTH",
"402 117 OFFCURVE",
"409 110 OFFCURVE",
"417 110 CURVE SMOOTH"
);
},
{
closed = 1;
nodes = (
"327 82 OFFCURVE",
"334 89 OFFCURVE",
"334 97 CURVE SMOOTH",
"334 105 OFFCURVE",
"327 112 OFFCURVE",
"319 112 CURVE SMOOTH",
"311 112 OFFCURVE",
"304 105 OFFCURVE",
"304 97 CURVE SMOOTH",
"304 89 OFFCURVE",
"311 82 OFFCURVE",
"319 82 CURVE SMOOTH"
);
},
{
closed = 1;
nodes = (
"230 109 OFFCURVE",
"237 116 OFFCURVE",
"237 124 CURVE SMOOTH",
"237 132 OFFCURVE",
"230 139 OFFCURVE",
"222 139 CURVE SMOOTH",
"214 139 OFFCURVE",
"207 132 OFFCURVE",
"207 124 CURVE SMOOTH",
"207 116 OFFCURVE",
"214 109 OFFCURVE",
"222 109 CURVE SMOOTH"
);
},
{
closed = 1;
nodes = (
"157 181 OFFCURVE",
"164 188 OFFCURVE",
"164 196 CURVE SMOOTH",
"164 204 OFFCURVE",
"157 211 OFFCURVE",
"149 211 CURVE SMOOTH",
"141 211 OFFCURVE",
"134 204 OFFCURVE",
"134 196 CURVE SMOOTH",
"134 188 OFFCURVE",
"141 181 OFFCURVE",
"149 181 CURVE SMOOTH"
);
}
);
width = 641;
}
);
leftMetricsKey = "ka-khmer";
note = uni25CC;
rightMetricsKey = "ka-khmer";
unicode = 25CC;
script = khmer;
category = Letter;
},
{
color = 1;
glyphname = "aasign-khmer";
lastChange = "2018-01-05 14:24:54 +0000";
layers = (
{
anchors = (
{
name = abvm_a;
position = "{8, 655}";
},
{
name = abvm_high;
position = "{8, 714}";
},
{
name = blwm_a;
position = "{-38, -10}";
}
);
color = 1;
layerId = "6517A2BC-7974-4B53-8E65-A6A29EB8D1E7";
paths = (
{
closed = 1;
nodes = (
"127 0 LINE",
"127 494 LINE SMOOTH",
"127 568 OFFCURVE",
"97 586 OFFCURVE",
"3 586 CURVE SMOOTH",
"-128 586 LINE",
"-128 560 LINE",
"23 560 LINE SMOOTH",
"84 560 OFFCURVE",
"101 535 OFFCURVE",
"101 483 CURVE SMOOTH",
"101 0 LINE"
);
}
);
width = 237;
}
);
note = uni17B6;
unicode = 17B6;
category = Letter;
},
{
color = 1;
glyphname = "ae-khmer";
lastChange = "2018-01-05 14:24:54 +0000";
layers = (
{
color = 1;
components = (
{
alignment = -1;
locked = 1;
name = "e-khmer";
}
);
layerId = "6517A2BC-7974-4B53-8E65-A6A29EB8D1E7";
paths = (
{
closed = 1;
nodes = (
"202 635 OFFCURVE",
"264 720 OFFCURVE",
"264 854 CURVE",
"238 854 LINE",
"238 754 OFFCURVE",
"197 661 OFFCURVE",
"107 661 CURVE SMOOTH",
"56 661 OFFCURVE",
"26 688 OFFCURVE",
"26 724 CURVE SMOOTH",
"26 768 OFFCURVE",
"62 789 OFFCURVE",
"111 789 CURVE",
"111 815 LINE",
"50 815 OFFCURVE",
"0 785 OFFCURVE",
"0 724 CURVE SMOOTH",
"0 665 OFFCURVE",
"51 635 OFFCURVE",
"107 635 CURVE SMOOTH"
);
}
);
width = 248;
}
);
note = uni17C2;
unicode = 17C2;
category = Letter;
},
{
color = 1;
glyphname = "ai-khmer";
lastChange = "2018-01-05 14:24:54 +0000";
layers = (
{
color = 1;
components = (
{
alignment = -1;
locked = 1;
name = "e-khmer";
}
);
layerId = "6517A2BC-7974-4B53-8E65-A6A29EB8D1E7";
paths = (
{
closed = 1;
nodes = (
"115 635 LINE SMOOTH",
"189 635 OFFCURVE",
"231 675 OFFCURVE",
"231 736 CURVE SMOOTH",
"231 802 OFFCURVE",
"186 830 OFFCURVE",
"139 830 CURVE SMOOTH",
"105 830 OFFCURVE",
"81 815 OFFCURVE",
"69 797 CURVE",
"69 907 LINE SMOOTH",
"69 924 OFFCURVE",
"59 928 OFFCURVE",
"41 928 CURVE SMOOTH",
"19 928 LINE",
"19 903 LINE",
"38 903 OFFCURVE",
"43 899 OFFCURVE",
"43 883 CURVE SMOOTH",
"43 747 LINE",
"69 747 LINE",
"73 771 OFFCURVE",
"90 803 OFFCURVE",
"136 803 CURVE SMOOTH",
"175 803 OFFCURVE",
"205 779 OFFCURVE",
"205 736 CURVE SMOOTH",
"205 696 OFFCURVE",
"179 661 OFFCURVE",
"115 661 CURVE SMOOTH",
"43 661 LINE",
"43 635 LINE"
);
}
);
width = 248;
}
);
note = uni17C3;
unicode = 17C3;
category = Letter;
},
{
color = 7;
glyphname = "coeng_sso-khmer";
lastChange = "2018-01-05 14:25:14 +0000";
layers = (
{
anchors = (
{
name = abvm;
position = "{10, 714}";
},
{
name = blwm;
position = "{8, -239}";
}
);
color = 7;
components = (
{
alignment = -1;
locked = 1;
name = topout.left;
transform = "{1, 0, 0, 1, 21, 0}";
}
);
guideLines = (
{
position = "{-413, -49}";
}
);
layerId = "6517A2BC-7974-4B53-8E65-A6A29EB8D1E7";
paths = (
{
closed = 1;
nodes = (
"152 385 LINE",
"152 30 LINE",
"52 30 LINE",
"52 4 LINE",
"152 4 LINE",
"152 -212 LINE",
"22 -122 LINE",
"-110 -213 LINE",
"-110 -75 LINE",
"-29 -75 LINE",
"-29 -49 LINE",
"-136 -49 LINE",
"-136 -239 LINE",
"-97 -239 LINE",
"22 -154 LINE",
"140 -239 LINE",
"178 -239 LINE",
"178 4 LINE",
"232 4 LINE",
"232 30 LINE",
"178 30 LINE",
"178 385 LINE"
);
}
);
width = 300;
}
);
note = uni17D21794;
category = Letter;
subCategory = Spacing;
},
{
color = 0;
glyphname = "lektoo-khmer";
lastChange = "2018-01-05 14:25:58 +0000";
layers = (
{
color = -1;
layerId = "6517A2BC-7974-4B53-8E65-A6A29EB8D1E7";
paths = (
{
closed = 1;
nodes = (
"271 -195 LINE SMOOTH",
"394 -195 OFFCURVE",
"455 -143 OFFCURVE",
"455 -39 CURVE SMOOTH",
"455 586 LINE",
"429 586 LINE",
"396 545 OFFCURVE",
"345 487 OFFCURVE",
"309 487 CURVE SMOOTH",
"266 487 OFFCURVE",
"261 586 OFFCURVE",
"179 586 CURVE SMOOTH",
"136 586 OFFCURVE",
"106 550 OFFCURVE",
"106 508 CURVE SMOOTH",
"106 451 OFFCURVE",
"145 420 OFFCURVE",
"193 420 CURVE SMOOTH",
"209 420 LINE",
"209 446 LINE",
"200 446 LINE SMOOTH",
"156 446 OFFCURVE",
"132 472 OFFCURVE",
"132 508 CURVE SMOOTH",
"132 536 OFFCURVE",
"147 560 OFFCURVE",
"178 560 CURVE SMOOTH",
"242 560 OFFCURVE",
"245 461 OFFCURVE",
"309 461 CURVE SMOOTH",
"343 461 OFFCURVE",
"379 492 OFFCURVE",
"428 544 CURVE",
"429 544 LINE",
"429 -39 LINE SMOOTH",
"429 -118 OFFCURVE",
"376 -167 OFFCURVE",
"271 -169 CURVE SMOOTH",
"269 -169 LINE",
"269 -195 LINE"
);
}
);
width = 586;
}
);
note = uni17D7;
unicode = 17D7;
},
{
color = 7;
glyphname = "coeng_kho-khmer.low";
lastChange = "2018-01-05 14:25:14 +0000";
layers = (
{
anchors = (
{
name = abvm;
position = "{-3, 714}";
}
);
color = 7;
components = (
{
alignment = -1;
locked = 1;
name = topout.right;
transform = "{1, 0, 0, 1, 17, 0}";
}
);
guideLines = (
{
position = "{-45, -335}";
showMeasurement = 1;
}
);
layerId = "6517A2BC-7974-4B53-8E65-A6A29EB8D1E7";
paths = (
{
closed = 1;
nodes = (
"130 388 LINE",
"130 -344 LINE SMOOTH",
"130 -392 OFFCURVE",
"95 -414 OFFCURVE",
"45 -414 CURVE SMOOTH",
"3 -414 OFFCURVE",
"-32 -396 OFFCURVE",
"-32 -362 CURVE SMOOTH",
"-32 -300 LINE",
"-58 -300 LINE",
"-58 -362 LINE SMOOTH",
"-58 -396 OFFCURVE",
"-93 -415 OFFCURVE",
"-142 -415 CURVE SMOOTH",
"-185 -415 OFFCURVE",
"-219 -396 OFFCURVE",
"-219 -335 CURVE SMOOTH",
"-219 -294 LINE",
"-270 -294 LINE",
"-270 -320 LINE",
"-245 -320 LINE",
"-245 -335 LINE SMOOTH",
"-245 -417 OFFCURVE",
"-195 -441 OFFCURVE",
"-142 -441 CURVE SMOOTH",
"-99 -441 OFFCURVE",
"-68 -426 OFFCURVE",
"-45 -407 CURVE",
"-22 -430 OFFCURVE",
"7 -441 OFFCURVE",
"45 -441 CURVE SMOOTH",
"108 -441 OFFCURVE",
"156 -407 OFFCURVE",
"156 -344 CURVE SMOOTH",
"156 388 LINE"
);
}
);
width = 275;
}
);
note = uni17D21783;
rightMetricsKey = "coeng-khmer";
category = Letter;
subCategory = Spacing;
},
{
color = 7;
glyphname = "coeng_cho-khmer.low";
lastChange = "2018-01-05 14:25:14 +0000";
layers = (
{
anchors = (
{
name = abvm;
position = "{-95, 714}";
}
);
color = 7;
components = (
{
alignment = -1;
locked = 1;
name = topout.right;
transform = "{1, 0, 0, 1, -68, 0}";
}
);
guideLines = (
{
position = "{-39, -376}";
showMeasurement = 1;
}
);
layerId = "6517A2BC-7974-4B53-8E65-A6A29EB8D1E7";
paths = (
{
closed = 1;
nodes = (
"45 385 LINE",
"45 -365 LINE SMOOTH",
"45 -408 OFFCURVE",
"16 -440 OFFCURVE",
"-35 -440 CURVE SMOOTH",
"-74 -440 OFFCURVE",
"-111 -419 OFFCURVE",
"-111 -395 CURVE SMOOTH",
"-111 -294 LINE",
"-137 -294 LINE",
"-137 -395 LINE SMOOTH",
"-137 -419 OFFCURVE",
"-167 -437 OFFCURVE",
"-205 -437 CURVE SMOOTH",
"-246 -437 OFFCURVE",
"-268 -418 OFFCURVE",
"-268 -384 CURVE SMOOTH",
"-268 -380 LINE SMOOTH",
"-268 -325 OFFCURVE",
"-292 -284 OFFCURVE",
"-364 -284 CURVE SMOOTH",
"-436 -284 OFFCURVE",
"-462 -325 OFFCURVE",
"-462 -380 CURVE SMOOTH",
"-462 -463 LINE",
"-373 -463 LINE",
"-373 -437 LINE",
"-436 -437 LINE",
"-436 -376 LINE SMOOTH",
"-436 -330 OFFCURVE",
"-410 -310 OFFCURVE",
"-364 -310 CURVE SMOOTH",
"-318 -310 OFFCURVE",
"-294 -330 OFFCURVE",
"-294 -376 CURVE SMOOTH",
"-294 -384 LINE SMOOTH",
"-294 -433 OFFCURVE",
"-264 -463 OFFCURVE",
"-206 -463 CURVE SMOOTH",
"-164 -463 OFFCURVE",
"-137 -444 OFFCURVE",
"-124 -433 CURVE",
"-112 -444 OFFCURVE",
"-83 -463 OFFCURVE",
"-35 -463 CURVE SMOOTH",
"28 -463 OFFCURVE",
"71 -425 OFFCURVE",
"71 -365 CURVE SMOOTH",
"71 385 LINE"
);
}
);
width = 190;
}
);
note = uni17D21788;
rightMetricsKey = "coeng_cho-khmer";
category = Letter;
subCategory = Spacing;
},
{
color = 7;
glyphname = "coeng_ttho-khmer.low";
lastChange = "2018-01-05 14:25:14 +0000";
layers = (
{
anchors = (
{
name = abvm;
position = "{-8, 714}";
}
);
color = 7;
components = (
{
alignment = -1;
locked = 1;
name = topout.right;
transform = "{1, 0, 0, 1, 10, 0}";
}
);
layerId = "6517A2BC-7974-4B53-8E65-A6A29EB8D1E7";
paths = (
{
closed = 1;
nodes = (
"123 386 LINE",
"123 -412 LINE",
"68 -377 OFFCURVE",
"7 -362 OFFCURVE",
"-71 -362 CURVE SMOOTH",
"-132 -362 LINE",
"-132 -306 LINE SMOOTH",
"-132 -297 OFFCURVE",
"-134 -291 OFFCURVE",
"-142 -291 CURVE SMOOTH",
"-147 -291 LINE SMOOTH",
"-159 -291 OFFCURVE",
"-164 -297 OFFCURVE",
"-294 -363 CURVE",
"-426 -297 OFFCURVE",
"-430 -291 OFFCURVE",
"-443 -291 CURVE SMOOTH",
"-447 -291 LINE SMOOTH",
"-454 -291 OFFCURVE",
"-457 -294 OFFCURVE",
"-457 -303 CURVE SMOOTH",
"-457 -461 LINE",
"-396 -461 LINE",
"-396 -435 LINE",
"-431 -435 LINE",
"-431 -322 LINE",
"-294 -391 LINE",
"-158 -322 LINE",
"-158 -461 LINE",
"-132 -461 LINE",
"-132 -388 LINE",
"-78 -388 LINE SMOOTH",
"18 -388 OFFCURVE",
"111 -416 OFFCURVE",
"124 -461 CURVE",
"149 -461 LINE",
"149 386 LINE"
);
}
);
width = 268;
}
);
note = uni17D2178D;
rightMetricsKey = "coeng_ttho-khmer";
category = Letter;
subCategory = Spacing;
},
{
color = 7;
glyphname = "coeng_ba-khmer.low";
lastChange = "2018-01-05 14:25:14 +0000";
layers = (
{
anchors = (
{
name = abvm;
position = "{19, 714}";
}
);
color = 7;
components = (
{
alignment = -1;
locked = 1;
name = topout.right;
transform = "{1, 0, 0, 1, 41, 0}";
}
);
layerId = "6517A2BC-7974-4B53-8E65-A6A29EB8D1E7";
paths = (
{
closed = 1;
nodes = (
"154 387 LINE",
"154 -437 LINE",
"24 -347 LINE",
"-108 -438 LINE",
"-108 -320 LINE",
"-37 -320 LINE",
"-37 -294 LINE",
"-134 -294 LINE",
"-134 -464 LINE",
"-95 -464 LINE",
"24 -379 LINE",
"142 -464 LINE",
"180 -464 LINE",
"180 387 LINE"
);
}
);
width = 299;
}
);
leftMetricsKey = "coeng-khmer";
note = uni17D21794;
rightMetricsKey = "coeng-khmer";
category = Letter;
subCategory = Spacing;
},
{
color = 7;
glyphname = "coeng_sso-khmer.low";
lastChange = "2018-01-05 14:25:14 +0000";
layers = (
{
anchors = (
{
name = abvm;
position = "{10, 714}";
}
);
color = 7;
components = (
{
alignment = -1;
locked = 1;
name = topout.left;
transform = "{1, 0, 0, 1, 21, 0}";
}
);
layerId = "6517A2BC-7974-4B53-8E65-A6A29EB8D1E7";
paths = (
{
closed = 1;
nodes = (
"152 386 LINE",
"152 -184 LINE",
"52 -184 LINE",
"52 -210 LINE",
"152 -210 LINE",
"152 -431 LINE",
"22 -341 LINE",
"-110 -432 LINE",
"-110 -319 LINE",
"-29 -319 LINE",
"-29 -293 LINE",
"-136 -293 LINE",
"-136 -458 LINE",
"-97 -458 LINE",
"22 -373 LINE",
"140 -458 LINE",
"178 -458 LINE",
"178 -210 LINE",
"232 -210 LINE",
"232 -184 LINE",
"178 -184 LINE",
"178 386 LINE"
);
}
);
width = 300;
}
);
leftMetricsKey = "coeng-khmer";
note = uni17D21794;
rightMetricsKey = "coeng-khmer";
category = Letter;
subCategory = Spacing;
},
{
color = 7;
glyphname = "coeng_sa-khmer.low";
lastChange = "2018-01-05 14:25:14 +0000";
layers = (
{
anchors = (
{
name = abvm;
position = "{21, 714}";
}
);
color = 7;
components = (
{
alignment = -1;
locked = 1;
name = topout.left;
transform = "{1, 0, 0, 1, 20, 0}";
}
);
layerId = "6517A2BC-7974-4B53-8E65-A6A29EB8D1E7";
paths = (
{
closed = 1;
nodes = (
"151 385 LINE",
"151 -190 LINE",
"21 -190 LINE",
"21 -216 LINE",
"151 -216 LINE",
"151 -327 LINE SMOOTH",
"151 -380 OFFCURVE",
"107 -438 OFFCURVE",
"19 -438 CURVE SMOOTH",
"-67 -438 OFFCURVE",
"-109 -385 OFFCURVE",
"-109 -332 CURVE SMOOTH",
"-109 -294 LINE",
"-180 -294 LINE",
"-180 -320 LINE",
"-135 -320 LINE",
"-135 -332 LINE SMOOTH",
"-135 -408 OFFCURVE",
"-73 -464 OFFCURVE",
"19 -464 CURVE SMOOTH",
"103 -464 OFFCURVE",
"177 -411 OFFCURVE",
"177 -327 CURVE SMOOTH",
"177 -216 LINE",
"231 -216 LINE",
"231 -190 LINE",
"177 -190 LINE",
"177 385 LINE"
);
}
);
width = 299;
}
);
note = uni17D2179F;
rightMetricsKey = "coeng_sa-khmer";
category = Letter;
subCategory = Spacing;
},
{
color = 9;
glyphname = "lekattakson-khmer";
lastChange = "2018-01-05 14:27:23 +0000";
layers = (
{
color = -1;
layerId = "6517A2BC-7974-4B53-8E65-A6A29EB8D1E7";
paths = (
{
closed = 1;
nodes = (
"273 6 OFFCURVE",
"313 61 OFFCURVE",
"313 171 CURVE SMOOTH",
"313 281 OFFCURVE",
"273 336 OFFCURVE",
"194 336 CURVE SMOOTH",
"115 336 OFFCURVE",
"76 281 OFFCURVE",
"76 171 CURVE SMOOTH",
"76 61 OFFCURVE",
"115 6 OFFCURVE",
"194 6 CURVE SMOOTH"
);
},
{
closed = 1;
nodes = (
"134 32 OFFCURVE",
"102 70 OFFCURVE",
"102 171 CURVE SMOOTH",
"102 272 OFFCURVE",
"134 310 OFFCURVE",
"194 310 CURVE SMOOTH",
"255 310 OFFCURVE",
"287 271 OFFCURVE",
"287 171 CURVE SMOOTH",
"287 70 OFFCURVE",
"256 32 OFFCURVE",
"194 32 CURVE SMOOTH"
);
}
);
width = 389;
}
);
note = uni17F0;
unicode = 17F0;
},
{
color = 9;
glyphname = "lekattakmuoy-khmer";
lastChange = "2018-01-05 14:27:23 +0000";
layers = (
{
color = -1;
layerId = "6517A2BC-7974-4B53-8E65-A6A29EB8D1E7";
paths = (
{
closed = 1;
nodes = (
"86 0 LINE",
"189 303 LINE",
"289 0 LINE",
"315 0 LINE",
"199 342 LINE",
"179 342 LINE",
"60 0 LINE"
);
}
);
width = 375;
}
);
note = uni17F1;
unicode = 17F1;
},
{
color = 9;
glyphname = "lekattakpii-khmer";
lastChange = "2018-01-05 14:27:23 +0000";
layers = (
{
color = -1;
layerId = "6517A2BC-7974-4B53-8E65-A6A29EB8D1E7";
paths = (
{
closed = 1;
nodes = (
"86 0 LINE",
"86 342 LINE",
"60 342 LINE",
"60 0 LINE"
);
}
);
width = 146;
}
);
note = uni17F2;
unicode = 17F2;
},
{
color = 9;
glyphname = "lekattakbei-khmer";
lastChange = "2018-01-05 14:27:23 +0000";
layers = (
{
color = -1;
layerId = "6517A2BC-7974-4B53-8E65-A6A29EB8D1E7";
paths = (
{
closed = 1;
nodes = (
"401 342 LINE",
"304 35 LINE",
"204 342 LINE",
"186 342 LINE",
"76 0 LINE",
"102 0 LINE",
"195 303 LINE",
"291 0 LINE",
"315 0 LINE",
"410 303 LINE",
"504 0 LINE",
"530 0 LINE",
"419 342 LINE"
);
}
);
width = 633;
}
);
note = uni17F3;
unicode = 17F3;
},
{
color = 9;
glyphname = "lekattakbuon-khmer";
lastChange = "2018-01-05 14:27:23 +0000";
layers = (
{
color = -1;
layerId = "6517A2BC-7974-4B53-8E65-A6A29EB8D1E7";
paths = (
{
closed = 1;
nodes = (
"210 0 LINE",
"317 342 LINE",
"291 342 LINE",
"198 39 LINE",
"102 342 LINE",
"76 342 LINE",
"184 0 LINE"
);
}
);
width = 391;
}
);
note = uni17F4;
unicode = 17F4;
},
{
color = 9;
glyphname = "lekattakpram-khmer";
lastChange = "2018-01-05 14:27:23 +0000";
layers = (
{
color = -1;
layerId = "6517A2BC-7974-4B53-8E65-A6A29EB8D1E7";
paths = (
{
closed = 1;
nodes = (
"238 6 OFFCURVE",
"270 36 OFFCURVE",
"270 98 CURVE SMOOTH",
"270 143 OFFCURVE",
"251 187 OFFCURVE",
"212 231 CURVE",
"311 342 LINE",
"283 342 LINE",
"195 247 LINE",
"108 342 LINE",
"80 342 LINE",
"178 231 LINE",
"140 186 OFFCURVE",
"121 142 OFFCURVE",
"121 98 CURVE SMOOTH",
"121 30 OFFCURVE",
"152 6 OFFCURVE",
"196 6 CURVE SMOOTH"
);
},
{
closed = 1;
nodes = (
"147 129 OFFCURVE",
"158 169 OFFCURVE",
"195 212 CURVE",
"233 167 OFFCURVE",
"244 130 OFFCURVE",
"244 98 CURVE SMOOTH",
"244 64 OFFCURVE",
"226 32 OFFCURVE",
"195 32 CURVE SMOOTH",
"163 32 OFFCURVE",
"147 66 OFFCURVE",
"147 98 CURVE SMOOTH"
);
}
);
width = 391;
}
);
note = uni17F5;
unicode = 17F5;
},
{
color = 9;
glyphname = "lekattakpramMuoy-khmer";
lastChange = "2018-01-05 14:27:23 +0000";
layers = (
{
color = -1;
layerId = "6517A2BC-7974-4B53-8E65-A6A29EB8D1E7";
paths = (
{
closed = 1;
nodes = (
"221 0 LINE",
"102 342 LINE",
"74 342 LINE",
"193 0 LINE"
);
}
);
width = 269;
}
);
note = uni17F6;
unicode = 17F6;
},
{
color = 9;
glyphname = "lekattakpramPii-khmer";
lastChange = "2018-01-05 14:27:23 +0000";
layers = (
{
color = -1;
layerId = "6517A2BC-7974-4B53-8E65-A6A29EB8D1E7";
paths = (
{
closed = 1;
nodes = (
"114 0 LINE",
"209 285 LINE",
"296 0 LINE",
"309 0 LINE",
"424 342 LINE",
"396 342 LINE",
"304 66 LINE",
"218 342 LINE",
"203 342 LINE",
"86 0 LINE"
);
}
);
width = 510;
}
);
note = uni17F7;
unicode = 17F7;
},
{
color = 9;
glyphname = "lekattakpramBei-khmer";
lastChange = "2018-01-05 14:27:23 +0000";
layers = (
{
color = -1;
layerId = "6517A2BC-7974-4B53-8E65-A6A29EB8D1E7";
paths = (
{
closed = 1;
nodes = (
"94 0 LINE",
"213 342 LINE",
"185 342 LINE",
"68 0 LINE"
);
}
);
width = 281;
}
);
note = uni17F8;
unicode = 17F8;
},
{
color = 9;
glyphname = "lekattakpramBuon-khmer";
lastChange = "2018-01-05 14:27:23 +0000";
layers = (
{
color = -1;
layerId = "6517A2BC-7974-4B53-8E65-A6A29EB8D1E7";
paths = (
{
closed = 1;
nodes = (
"343 -165 OFFCURVE",
"401 -141 OFFCURVE",
"401 -54 CURVE SMOOTH",
"401 -13 OFFCURVE",
"388 49 OFFCURVE",
"268 49 CURVE SMOOTH",
"121 49 LINE",
"351 229 LINE",
"337 252 LINE",
"60 36 LINE",
"68 23 LINE",
"249 23 LINE SMOOTH",
"339 23 OFFCURVE",
"375 0 OFFCURVE",
"375 -54 CURVE SMOOTH",
"375 -111 OFFCURVE",
"342 -141 OFFCURVE",
"244 -141 CURVE",
"244 -165 LINE"
);
}
);
width = 461;
}
);
note = uni17F9;
unicode = 17F9;
},
{
color = 5;
glyphname = "zero-khmer";
lastChange = "2018-01-05 14:25:10 +0000";
layers = (
{
color = 5;
layerId = "6517A2BC-7974-4B53-8E65-A6A29EB8D1E7";
paths = (
{
closed = 1;
nodes = (
"414 0 OFFCURVE",
"484 62 OFFCURVE",
"484 186 CURVE SMOOTH",
"484 400 LINE SMOOTH",
"484 524 OFFCURVE",
"414 586 OFFCURVE",
"297 586 CURVE SMOOTH",
"180 586 OFFCURVE",
"110 524 OFFCURVE",
"110 400 CURVE SMOOTH",
"110 186 LINE SMOOTH",
"110 62 OFFCURVE",
"180 0 OFFCURVE",
"297 0 CURVE SMOOTH"
);
},
{
closed = 1;
nodes = (
"190 26 OFFCURVE",
"136 85 OFFCURVE",
"136 186 CURVE SMOOTH",
"136 400 LINE SMOOTH",
"136 501 OFFCURVE",
"190 560 OFFCURVE",
"297 560 CURVE SMOOTH",
"404 560 OFFCURVE",
"458 501 OFFCURVE",
"458 400 CURVE SMOOTH",
"458 186 LINE SMOOTH",
"458 85 OFFCURVE",
"404 26 OFFCURVE",
"297 26 CURVE SMOOTH"
);
}
);
width = 594;
}
);
note = uni17E0;
unicode = 17E0;
},
{
color = 5;
glyphname = "one-khmer";
lastChange = "2018-01-05 14:25:10 +0000";
layers = (
{
color = 5;
layerId = "6517A2BC-7974-4B53-8E65-A6A29EB8D1E7";
paths = (
{
closed = 1;
nodes = (
"413 0 OFFCURVE",
"483 54 OFFCURVE",
"483 156 CURVE SMOOTH",
"483 430 LINE SMOOTH",
"483 532 OFFCURVE",
"416 586 OFFCURVE",
"296 586 CURVE SMOOTH",
"177 586 OFFCURVE",
"110 534 OFFCURVE",
"110 430 CURVE SMOOTH",
"110 356 LINE SMOOTH",
"110 293 OFFCURVE",
"152 254 OFFCURVE",
"206 254 CURVE SMOOTH",
"296 254 LINE",
"296 280 LINE",
"204 280 LINE SMOOTH",
"157 280 OFFCURVE",
"136 321 OFFCURVE",
"136 356 CURVE SMOOTH",
"136 430 LINE SMOOTH",
"136 511 OFFCURVE",
"189 560 OFFCURVE",
"296 560 CURVE SMOOTH",
"403 560 OFFCURVE",
"457 511 OFFCURVE",
"457 430 CURVE SMOOTH",
"457 156 LINE SMOOTH",
"457 75 OFFCURVE",
"403 26 OFFCURVE",
"296 26 CURVE SMOOTH",
"189 26 OFFCURVE",
"136 75 OFFCURVE",
"136 156 CURVE",
"110 156 LINE",
"110 55 OFFCURVE",
"181 0 OFFCURVE",
"296 0 CURVE SMOOTH"
);
}
);
width = 593;
}
);
note = uni17E1;
unicode = 17E1;
},
{
color = 5;
glyphname = "two-khmer";
lastChange = "2018-01-05 14:25:10 +0000";
layers = (
{
color = 5;
layerId = "6517A2BC-7974-4B53-8E65-A6A29EB8D1E7";
paths = (
{
closed = 1;
nodes = (
"469 0 OFFCURVE",
"554 63 OFFCURVE",
"554 195 CURVE SMOOTH",
"554 586 LINE",
"528 586 LINE",
"392 468 LINE",
"259 586 LINE",
"233 586 LINE",
"233 308 LINE",
"286 308 LINE",
"286 334 LINE",
"259 334 LINE",
"259 551 LINE",
"392 433 LINE",
"528 551 LINE",
"528 195 LINE SMOOTH",
"528 88 OFFCURVE",
"462 26 OFFCURVE",
"330 26 CURVE SMOOTH",
"199 26 OFFCURVE",
"134 88 OFFCURVE",
"134 195 CURVE SMOOTH",
"134 690 LINE SMOOTH",
"134 708 OFFCURVE",
"130 714 OFFCURVE",
"113 714 CURVE SMOOTH",
"60 714 LINE",
"60 688 LINE",
"108 688 LINE",
"108 195 LINE SMOOTH",
"108 65 OFFCURVE",
"191 0 OFFCURVE",
"330 0 CURVE SMOOTH"
);
}
);
width = 664;
}
);
note = uni17E2;
unicode = 17E2;
},
{
color = 5;
glyphname = "three-khmer";
lastChange = "2018-01-05 14:25:10 +0000";
layers = (
{
color = 5;
layerId = "6517A2BC-7974-4B53-8E65-A6A29EB8D1E7";
paths = (
{
closed = 1;
nodes = (
"185 0 LINE",
"185 26 LINE",
"136 26 LINE",
"136 430 LINE SMOOTH",
"136 513 OFFCURVE",
"182 560 OFFCURVE",
"267 560 CURVE SMOOTH",
"352 560 OFFCURVE",
"398 533 OFFCURVE",
"398 501 CURVE SMOOTH",
"398 0 LINE",
"424 0 LINE",
"424 501 LINE SMOOTH",
"424 533 OFFCURVE",
"467 560 OFFCURVE",
"554 560 CURVE SMOOTH",
"639 560 OFFCURVE",
"685 513 OFFCURVE",
"685 440 CURVE SMOOTH",
"685 0 LINE",
"711 0 LINE",
"711 440 LINE SMOOTH",
"711 537 OFFCURVE",
"641 586 OFFCURVE",
"554 586 CURVE SMOOTH",
"489 586 OFFCURVE",
"441 571 OFFCURVE",
"410 542 CURVE",
"379 571 OFFCURVE",
"331 586 OFFCURVE",
"267 586 CURVE SMOOTH",
"180 586 OFFCURVE",
"110 539 OFFCURVE",
"110 435 CURVE SMOOTH",
"110 0 LINE"
);
}
);
width = 821;
}
);
note = uni17E3;
unicode = 17E3;
},
{
color = 5;
glyphname = "four-khmer";
lastChange = "2018-01-05 14:25:10 +0000";
layers = (
{
color = 5;
guideLines = (
{
angle = -56.4472;
position = "{406, 140}";
}
);
layerId = "6517A2BC-7974-4B53-8E65-A6A29EB8D1E7";
paths = (
{
closed = 1;
nodes = (
"455 0 LINE",
"477 31 LINE",
"348 227 LINE",
"348 432 LINE",
"482 432 LINE",
"482 458 LINE",
"372 458 LINE SMOOTH",
"324 458 OFFCURVE",
"322 449 OFFCURVE",
"322 418 CURVE SMOOTH",
"322 219 LINE",
"449 26 LINE",
"295 26 LINE SMOOTH",
"188 26 OFFCURVE",
"135 88 OFFCURVE",
"135 195 CURVE SMOOTH",
"135 687 LINE SMOOTH",
"135 708 OFFCURVE",
"126 713 OFFCURVE",
"109 713 CURVE SMOOTH",
"60 713 LINE",
"60 687 LINE",
"109 687 LINE",
"109 195 LINE SMOOTH",
"109 65 OFFCURVE",
"180 0 OFFCURVE",
"295 0 CURVE SMOOTH"
);
}
);
width = 592;
}
);
note = uni17E4;
unicode = 17E4;
},
{
color = 5;
glyphname = "five-khmer";
lastChange = "2018-01-05 14:25:10 +0000";
layers = (
{
color = 5;
guideLines = (
{
angle = -56.4472;
position = "{418, 123}";
}
);
layerId = "6517A2BC-7974-4B53-8E65-A6A29EB8D1E7";
paths = (
{
closed = 1;
nodes = (
"456 0 LINE",
"478 31 LINE",
"349 227 LINE",
"349 365 LINE",
"483 365 LINE",
"483 391 LINE",
"357 391 LINE SMOOTH",
"325 391 OFFCURVE",
"323 382 OFFCURVE",
"323 351 CURVE SMOOTH",
"323 219 LINE",
"450 26 LINE",
"296 26 LINE SMOOTH",
"189 26 OFFCURVE",
"136 88 OFFCURVE",
"136 195 CURVE SMOOTH",
"136 417 LINE SMOOTH",
"136 481 OFFCURVE",
"174 513 OFFCURVE",
"206 525 CURVE",
"246 499 OFFCURVE",
"302 485 OFFCURVE",
"345 485 CURVE SMOOTH",
"409 485 OFFCURVE",
"483 529 OFFCURVE",
"483 590 CURVE SMOOTH",
"483 714 LINE",
"457 714 LINE",
"457 590 LINE SMOOTH",
"457 551 OFFCURVE",
"402 511 OFFCURVE",
"345 511 CURVE SMOOTH",
"305 511 OFFCURVE",
"259 519 OFFCURVE",
"234 537 CURVE",
"244 545 OFFCURVE",
"251 554 OFFCURVE",
"251 571 CURVE SMOOTH",
"251 589 OFFCURVE",
"235 608 OFFCURVE",
"211 608 CURVE SMOOTH",
"191 608 OFFCURVE",
"174 592 OFFCURVE",
"174 571 CURVE SMOOTH",
"174 559 OFFCURVE",
"178 552 OFFCURVE",
"186 543 CURVE",
"125 515 OFFCURVE",
"110 464 OFFCURVE",
"110 423 CURVE SMOOTH",
"110 195 LINE SMOOTH",
"110 65 OFFCURVE",
"179 0 OFFCURVE",
"299 0 CURVE SMOOTH"
);
}
);
width = 583;
}
);
note = uni17E5;
unicode = 17E5;
},
{
color = 5;
glyphname = "six-khmer";
lastChange = "2018-01-05 14:25:10 +0000";
layers = (
{
color = 5;
layerId = "6517A2BC-7974-4B53-8E65-A6A29EB8D1E7";
paths = (
{
closed = 1;
nodes = (
"415 0 OFFCURVE",
"483 69 OFFCURVE",
"483 195 CURVE SMOOTH",
"483 391 LINE SMOOTH",
"483 521 OFFCURVE",
"421 586 OFFCURVE",
"296 586 CURVE SMOOTH",
"214 586 OFFCURVE",
"164 557 OFFCURVE",
"136 512 CURVE",
"136 714 LINE",
"110 714 LINE",
"110 422 LINE",
"136 422 LINE",
"142 510 OFFCURVE",
"189 560 OFFCURVE",
"296 560 CURVE SMOOTH",
"403 560 OFFCURVE",
"457 498 OFFCURVE",
"457 391 CURVE SMOOTH",
"457 195 LINE SMOOTH",
"457 88 OFFCURVE",
"403 26 OFFCURVE",
"296 26 CURVE SMOOTH",
"189 26 OFFCURVE",
"135 80 OFFCURVE",
"135 171 CURVE SMOOTH",
"135 240 OFFCURVE",
"150 316 OFFCURVE",
"250 316 CURVE SMOOTH",
"321 316 LINE",
"321 342 LINE",
"260 342 LINE SMOOTH",
"149 342 OFFCURVE",
"110 285 OFFCURVE",
"110 171 CURVE SMOOTH",
"110 62 OFFCURVE",
"174 0 OFFCURVE",
"296 0 CURVE SMOOTH"
);
}
);
width = 593;
}
);
note = uni17E6;
unicode = 17E6;
},
{
color = 5;
glyphname = "seven-khmer";
lastChange = "2018-01-05 14:25:10 +0000";
layers = (
{
color = 5;
guideLines = (
{
position = "{516, 69}";
}
);
layerId = "6517A2BC-7974-4B53-8E65-A6A29EB8D1E7";
paths = (
{
closed = 1;
nodes = (
"249 0 LINE",
"249 26 LINE",
"136 26 LINE",
"136 501 LINE SMOOTH",
"136 540 OFFCURVE",
"157 560 OFFCURVE",
"188 560 CURVE SMOOTH",
"213 560 OFFCURVE",
"233 541 OFFCURVE",
"258 510 CURVE SMOOTH",
"266 500 OFFCURVE",
"275 495 OFFCURVE",
"285 495 CURVE SMOOTH",
"295 495 OFFCURVE",
"304 500 OFFCURVE",
"313 510 CURVE SMOOTH",
"339 540 OFFCURVE",
"360 560 OFFCURVE",
"385 560 CURVE SMOOTH",
"416 560 OFFCURVE",
"434 535 OFFCURVE",
"434 503 CURVE SMOOTH",
"434 72 LINE SMOOTH",
"434 21 OFFCURVE",
"469 0 OFFCURVE",
"516 0 CURVE SMOOTH",
"563 0 OFFCURVE",
"598 21 OFFCURVE",
"598 72 CURVE SMOOTH",
"598 714 LINE",
"572 714 LINE",
"572 69 LINE SMOOTH",
"572 35 OFFCURVE",
"546 26 OFFCURVE",
"516 26 CURVE SMOOTH",
"486 26 OFFCURVE",
"460 35 OFFCURVE",
"460 69 CURVE SMOOTH",
"460 485 LINE SMOOTH",
"460 553 OFFCURVE",
"434 586 OFFCURVE",
"387 586 CURVE SMOOTH",
"352 586 OFFCURVE",
"320 560 OFFCURVE",
"285 519 CURVE",
"251 560 OFFCURVE",
"219 586 OFFCURVE",
"184 586 CURVE SMOOTH",
"138 586 OFFCURVE",
"110 554 OFFCURVE",
"110 492 CURVE SMOOTH",
"110 0 LINE"
);
}
);
width = 708;
}
);
note = uni17E7;
unicode = 17E7;
},
{
color = 5;
glyphname = "eight-khmer";
lastChange = "2018-01-05 14:25:10 +0000";
layers = (
{
color = 5;
guideLines = (
{
angle = -38.5653;
position = "{389, 78}";
},
{
angle = 38.191;
position = "{209, 80}";
}
);
layerId = "6517A2BC-7974-4B53-8E65-A6A29EB8D1E7";
paths = (
{
closed = 1;
nodes = (
"148 0 LINE",
"298 118 LINE",
"446 0 LINE",
"484 0 LINE",
"484 306 LINE SMOOTH",
"484 332 OFFCURVE",
"472 346 OFFCURVE",
"439 346 CURVE SMOOTH",
"312 346 LINE",
"312 320 LINE",
"432 320 LINE SMOOTH",
"457 320 OFFCURVE",
"458 306 OFFCURVE",
"458 280 CURVE SMOOTH",
"458 24 LINE",
"298 150 LINE",
"136 23 LINE",
"136 430 LINE SMOOTH",
"136 511 OFFCURVE",
"194 560 OFFCURVE",
"301 560 CURVE SMOOTH",
"408 560 OFFCURVE",
"458 519 OFFCURVE",
"458 430 CURVE",
"484 430 LINE",
"484 714 LINE",
"458 714 LINE",
"458 526 LINE",
"436 556 OFFCURVE",
"379 586 OFFCURVE",
"301 586 CURVE SMOOTH",
"186 586 OFFCURVE",
"110 534 OFFCURVE",
"110 430 CURVE SMOOTH",
"110 0 LINE"
);
}
);
width = 594;
}
);
note = uni17E8;
unicode = 17E8;
},
{
color = 5;
glyphname = "nine-khmer";
lastChange = "2018-01-05 14:25:10 +0000";
layers = (
{
color = 5;
guideLines = (
{
angle = 270;
position = "{445, 346}";
}
);
layerId = "6517A2BC-7974-4B53-8E65-A6A29EB8D1E7";
paths = (
{
closed = 1;
nodes = (
"423 0 OFFCURVE",
"485 60 OFFCURVE",
"485 142 CURVE SMOOTH",
"485 219 OFFCURVE",
"424 240 OFFCURVE",
"347 240 CURVE SMOOTH",
"298 240 LINE",
"298 214 LINE",
"347 214 LINE SMOOTH",
"422 214 OFFCURVE",
"459 196 OFFCURVE",
"459 138 CURVE SMOOTH",
"459 72 OFFCURVE",
"409 26 OFFCURVE",
"298 26 CURVE SMOOTH",
"191 26 OFFCURVE",
"138 71 OFFCURVE",
"138 146 CURVE SMOOTH",
"138 258 LINE SMOOTH",
"138 303 OFFCURVE",
"160 333 OFFCURVE",
"190 333 CURVE SMOOTH",
"445 333 LINE",
"445 359 LINE",
"187 359 LINE SMOOTH",
"160 359 OFFCURVE",
"136 402 OFFCURVE",
"136 441 CURVE SMOOTH",
"136 517 OFFCURVE",
"196 560 OFFCURVE",
"298 560 CURVE SMOOTH",
"413 560 OFFCURVE",
"459 527 OFFCURVE",
"459 460 CURVE",
"485 460 LINE",
"485 714 LINE",
"459 714 LINE",
"459 541 LINE",
"413 578 OFFCURVE",
"358 586 OFFCURVE",
"298 586 CURVE SMOOTH",
"204 586 OFFCURVE",
"110 546 OFFCURVE",
"110 442 CURVE SMOOTH",
"110 385 OFFCURVE",
"138 362 OFFCURVE",
"146 346 CURVE",
"123 321 OFFCURVE",
"112 290 OFFCURVE",
"112 257 CURVE SMOOTH",
"112 146 LINE SMOOTH",
"112 49 OFFCURVE",
"182 0 OFFCURVE",
"298 0 CURVE SMOOTH"
);
}
);
width = 575;
}
);
note = uni17E9;
unicode = 17E9;
},
{
color = 0;
glyphname = "khan-khmer";
lastChange = "2018-01-05 14:25:58 +0000";
layers = (
{
color = -1;
layerId = "6517A2BC-7974-4B53-8E65-A6A29EB8D1E7";
paths = (
{
closed = 1;
nodes = (
"455 0 LINE",
"455 586 LINE",
"429 586 LINE",
"392 524 OFFCURVE",
"323 431 OFFCURVE",
"241 431 CURVE SMOOTH",
"176 431 OFFCURVE",
"157 472 OFFCURVE",
"157 502 CURVE SMOOTH",
"157 526 OFFCURVE",
"177 560 OFFCURVE",
"235 560 CURVE SMOOTH",
"244 560 LINE",
"244 586 LINE",
"243 586 LINE SMOOTH",
"168 586 OFFCURVE",
"131 553 OFFCURVE",
"131 501 CURVE SMOOTH",
"131 439 OFFCURVE",
"178 405 OFFCURVE",
"240 405 CURVE SMOOTH",
"323 405 OFFCURVE",
"392 483 OFFCURVE",
"429 538 CURVE",
"429 0 LINE"
);
}
);
width = 586;
}
);
note = uni17D4;
unicode = 17D4;
},
{
color = 0;
glyphname = "bariyoosan-khmer";
lastChange = "2018-01-05 14:25:58 +0000";
layers = (
{
color = -1;
components = (
{
alignment = -1;
locked = 1;
name = "khan-khmer";
transform = "{1, 0, 0, 1, -21, 0}";
}
);
layerId = "6517A2BC-7974-4B53-8E65-A6A29EB8D1E7";
paths = (
{
closed = 1;
nodes = (
"517 0 LINE",
"517 586 LINE",
"489 586 LINE",
"489 0 LINE"
);
}
);
width = 627;
}
);
note = uni17D5;
unicode = 17D5;
},
{
color = 0;
glyphname = "camnucpiikuuh-khmer";
lastChange = "2018-01-05 14:25:58 +0000";
layers = (
{
color = -1;
components = (
{
alignment = -1;
name = "nikahit-khmer";
transform = "{1, 0, 0, 1, 546, -687}";
},
{
alignment = -1;
name = "nikahit-khmer";
transform = "{1, 0, 0, 1, 546, -321}";
}
);
guideLines = (
{
position = "{192, 300}";
showMeasurement = 1;
},
{
angle = 180;
position = "{222, 476}";
showMeasurement = 1;
}
);
layerId = "6517A2BC-7974-4B53-8E65-A6A29EB8D1E7";
paths = (
{
closed = 1;
nodes = (
"408 281 LINE",
"408 307 LINE",
"90 307 LINE",
"90 281 LINE"
);
}
);
width = 498;
}
);
leftMetricsKey = "reahmuk-khmer";
note = uni17D6;
rightMetricsKey = "reahmuk-khmer";
unicode = 17D6;
},
{
color = 0;
glyphname = "phnaekmuan-khmer";
lastChange = "2018-01-05 14:25:58 +0000";
layers = (
{
color = -1;
layerId = "6517A2BC-7974-4B53-8E65-A6A29EB8D1E7";
paths = (
{
closed = 1;
nodes = (
"525 14 OFFCURVE",
"593 113 OFFCURVE",
"593 293 CURVE SMOOTH",
"593 473 OFFCURVE",
"525 573 OFFCURVE",
"351 573 CURVE SMOOTH",
"177 573 OFFCURVE",
"110 473 OFFCURVE",
"110 293 CURVE SMOOTH",
"110 113 OFFCURVE",
"177 14 OFFCURVE",
"351 14 CURVE SMOOTH"
);
},
{
closed = 1;
nodes = (
"203 40 OFFCURVE",
"136 114 OFFCURVE",
"136 293 CURVE SMOOTH",
"136 472 OFFCURVE",
"203 547 OFFCURVE",
"351 547 CURVE SMOOTH",
"499 547 OFFCURVE",
"567 472 OFFCURVE",
"567 293 CURVE SMOOTH",
"567 114 OFFCURVE",
"499 40 OFFCURVE",
"351 40 CURVE SMOOTH"
);
},
{
closed = 1;
nodes = (
"431 93 OFFCURVE",
"471 178 OFFCURVE",
"471 293 CURVE SMOOTH",
"471 408 OFFCURVE",
"431 492 OFFCURVE",
"351 492 CURVE SMOOTH",
"271 492 OFFCURVE",
"231 406 OFFCURVE",
"231 293 CURVE SMOOTH",
"231 180 OFFCURVE",
"271 93 OFFCURVE",
"351 93 CURVE SMOOTH"
);
},
{
closed = 1;
nodes = (
"291 119 OFFCURVE",
"257 201 OFFCURVE",
"257 293 CURVE SMOOTH",
"257 381 OFFCURVE",
"286 466 OFFCURVE",
"351 466 CURVE SMOOTH",
"414 466 OFFCURVE",
"445 386 OFFCURVE",
"445 293 CURVE SMOOTH",
"445 204 OFFCURVE",
"415 119 OFFCURVE",
"351 119 CURVE SMOOTH"
);
}
);
width = 703;
}
);
note = uni17D9;
unicode = 17D9;
},
{
color = 0;
glyphname = "koomuut-khmer";
lastChange = "2018-01-05 14:25:58 +0000";
layers = (
{
color = -1;
guideLines = (
{
position = "{267, 257}";
showMeasurement = 1;
},
{
angle = 62.2415;
position = "{562, 246}";
},
{
angle = 247.932;
position = "{1185, 204}";
}
);
layerId = "6517A2BC-7974-4B53-8E65-A6A29EB8D1E7";
paths = (
{
closed = 1;
nodes = (
"410 0 OFFCURVE",
"497 122 OFFCURVE",
"560 241 CURVE SMOOTH",
"691 487 LINE",
"855 67 LINE",
"885 67 LINE",
"1011 432 LINE",
"1117 106 LINE",
"1145 106 LINE",
"1211 269 LINE",
"1319 269 LINE",
"1319 295 LINE",
"1193 295 LINE",
"1133 147 LINE",
"1025 464 LINE",
"995 464 LINE",
"869 99 LINE",
"707 517 LINE",
"677 517 LINE",
"558 292 LINE SMOOTH",
"529 237 OFFCURVE",
"427 26 OFFCURVE",
"303 26 CURVE SMOOTH",
"217 26 OFFCURVE",
"136 125 OFFCURVE",
"136 302 CURVE SMOOTH",
"136 471 OFFCURVE",
"220 562 OFFCURVE",
"339 562 CURVE SMOOTH",
"407 562 OFFCURVE",
"473 527 OFFCURVE",
"473 443 CURVE SMOOTH",
"473 356 OFFCURVE",
"406 323 OFFCURVE",
"333 323 CURVE",
"333 297 LINE",
"438 297 OFFCURVE",
"499 356 OFFCURVE",
"499 446 CURVE SMOOTH",
"499 531 OFFCURVE",
"435 588 OFFCURVE",
"338 588 CURVE SMOOTH",
"221 588 OFFCURVE",
"110 503 OFFCURVE",
"110 303 CURVE SMOOTH",
"110 116 OFFCURVE",
"196 0 OFFCURVE",
"299 0 CURVE SMOOTH"
);
}
);
width = 1399;
}
);
leftMetricsKey = "phnaekmuan-khmer";
note = uni17DA;
unicode = 17DA;
},
{
color = 11;
glyphname = zerowidthjoiner;
lastChange = "2018-01-05 11:42:53 +0000";
layers = (
{
layerId = "6517A2BC-7974-4B53-8E65-A6A29EB8D1E7";
paths = (
{
closed = 1;
nodes = (
"21 -133 LINE",
"21 535 LINE",
"83 473 LINE",
"109 500 LINE",
"27 582 LINE",
"109 663 LINE",
"83 690 LINE",
"0 607 LINE",
"-83 690 LINE",
"-109 663 LINE",
"-27 582 LINE",
"-109 500 LINE",
"-83 473 LINE",
"-21 535 LINE",
"-21 -133 LINE"
);
}
);
width = 0;
}
);
note = uni200D;
unicode = 200D;
},
{
color = 11;
glyphname = zerowidthnonjoiner;
lastChange = "2018-01-05 11:42:53 +0000";
layers = (
{
layerId = "6517A2BC-7974-4B53-8E65-A6A29EB8D1E7";
paths = (
{
closed = 1;
nodes = (
"21 -133 LINE",
"21 628 LINE",
"-21 628 LINE",
"-21 -133 LINE"
);
}
);
width = 0;
}
);
note = uni200C;
unicode = 200C;
},
{
color = 0;
glyphname = "riel-khmer";
lastChange = "2018-01-05 14:26:04 +0000";
layers = (
{
color = -1;
components = (
{
alignment = -1;
locked = 1;
name = "ro-khmer";
}
);
layerId = "6517A2BC-7974-4B53-8E65-A6A29EB8D1E7";
paths = (
{
closed = 1;
nodes = (
"226 280 LINE",
"226 306 LINE",
"61 306 LINE",
"61 280 LINE"
);
}
);
width = 295;
}
);
note = uni17DB;
unicode = 17DB;
},
{
color = 1;
glyphname = "iMark-khmer";
lastChange = "2018-01-05 14:25:28 +0000";
layers = (
{
anchors = (
{
name = _abvm;
position = "{-310, 684}";
},
{
name = abvm;
position = "{-310, 911}";
}
);
color = 1;
layerId = "6517A2BC-7974-4B53-8E65-A6A29EB8D1E7";
paths = (
{
closed = 1;
nodes = (
"-114 684 LINE",
"-114 718 LINE",
"-156 794 OFFCURVE",
"-269 861 OFFCURVE",
"-351 861 CURVE SMOOTH",
"-457 861 OFFCURVE",
"-491 782 OFFCURVE",
"-491 717 CURVE SMOOTH",
"-491 692 OFFCURVE",
"-482 684 OFFCURVE",
"-458 684 CURVE SMOOTH"
);
},
{
closed = 1;
nodes = (
"-464 790 OFFCURVE",
"-427 835 OFFCURVE",
"-351 835 CURVE SMOOTH",
"-272 835 OFFCURVE",
"-167 761 OFFCURVE",
"-140 710 CURVE",
"-464 710 LINE"
);
}
);
width = 0;
}
);
note = uni17B7;
unicode = 17B7;
},
{
color = 11;
glyphname = "iMark_toandakhiat-khmer";
lastChange = "2018-01-05 11:42:35 +0000";
layers = (
{
anchors = (
{
name = _abvm;
position = "{-310, 684}";
},
{
name = abvm;
position = "{-310, 959}";
}
);
components = (
{
alignment = -1;
locked = 1;
name = "iMark-khmer";
}
);
layerId = "6517A2BC-7974-4B53-8E65-A6A29EB8D1E7";
paths = (
{
closed = 1;
nodes = (
"-218 798 LINE",
"-209 813 OFFCURVE",
"-197 817 OFFCURVE",
"-161 819 CURVE SMOOTH",
"-118 820 OFFCURVE",
"-62 839 OFFCURVE",
"-62 919 CURVE",
"-88 919 LINE",
"-88 850 OFFCURVE",
"-133 845 OFFCURVE",
"-162 844 CURVE SMOOTH",
"-205 843 OFFCURVE",
"-230 837 OFFCURVE",
"-243 812 CURVE"
);
}
);
width = 0;
}
);
note = uni17B717CD;
},
{
color = 1;
glyphname = "iiMark-khmer";
lastChange = "2018-01-05 14:25:28 +0000";
layers = (
{
anchors = (
{
name = _abvm;
position = "{-310, 684}";
},
{
name = abvm;
position = "{-310, 950}";
}
);
color = 1;
components = (
{
alignment = -1;
locked = 1;
name = "iMark-khmer";
}
);
layerId = "6517A2BC-7974-4B53-8E65-A6A29EB8D1E7";
paths = (
{
closed = 1;
nodes = (
"-114 897 LINE",
"-140 897 LINE",
"-140 684 LINE",
"-114 684 LINE"
);
}
);
width = 0;
}
);
note = uni17B8;
unicode = 17B8;
},
{
color = 1;
glyphname = "yMark-khmer";
lastChange = "2018-01-05 14:25:28 +0000";
layers = (
{
anchors = (
{
name = _abvm;
position = "{-310, 684}";
},
{
name = abvm;
position = "{-310, 950}";
}
);
color = 1;
components = (
{
alignment = -1;
locked = 1;
name = "iMark-khmer";
}
);
layerId = "6517A2BC-7974-4B53-8E65-A6A29EB8D1E7";
paths = (
{
closed = 1;
nodes = (
"-148 748 LINE",
"-133 765 OFFCURVE",
"-116 803 OFFCURVE",
"-116 834 CURVE SMOOTH",
"-116 870 OFFCURVE",
"-142 910 OFFCURVE",
"-191 910 CURVE SMOOTH",
"-233 910 OFFCURVE",
"-274 877 OFFCURVE",
"-292 839 CURVE"
);
},
{
closed = 1;
nodes = (
"-250 863 OFFCURVE",
"-219 884 OFFCURVE",
"-192 884 CURVE SMOOTH",
"-162 884 OFFCURVE",
"-142 862 OFFCURVE",
"-142 835 CURVE SMOOTH",
"-142 812 OFFCURVE",
"-155 782 OFFCURVE",
"-164 773 CURVE",
"-264 836 LINE"
);
}
);
width = 0;
}
);
note = uni17B9;
unicode = 17B9;
},
{
color = 1;
glyphname = "yyMark-khmer";
lastChange = "2018-01-05 14:25:28 +0000";
layers = (
{
anchors = (
{
name = _abvm;
position = "{-306, 684}";
},
{
name = abvm;
position = "{-306, 950}";
}
);
color = 1;
components = (
{
alignment = -1;
locked = 1;
name = "iMark-khmer";
}
);
layerId = "6517A2BC-7974-4B53-8E65-A6A29EB8D1E7";
paths = (
{
closed = 1;
nodes = (
"-140 684 LINE",
"-114 684 LINE",
"-114 897 LINE",
"-140 897 LINE"
);
},
{
closed = 1;
nodes = (
"-226 796 LINE",
"-200 796 LINE",
"-200 922 LINE",
"-226 922 LINE"
);
}
);
width = 0;
}
);
note = uni17BA;
unicode = 17BA;
},
{
color = 1;
glyphname = "nikahit-khmer";
lastChange = "2018-01-05 14:25:28 +0000";
layers = (
{
anchors = (
{
name = _abvm;
position = "{-299, 688}";
},
{
name = _abvm_a;
position = "{-299, 688}";
},
{
name = _abvm_high;
position = "{-299, 688}";
}
);
color = 1;
layerId = "6517A2BC-7974-4B53-8E65-A6A29EB8D1E7";
paths = (
{
closed = 1;
nodes = (
"-238 688 OFFCURVE",
"-189 737 OFFCURVE",
"-189 798 CURVE SMOOTH",
"-189 859 OFFCURVE",
"-238 908 OFFCURVE",
"-299 908 CURVE SMOOTH",
"-360 908 OFFCURVE",
"-409 859 OFFCURVE",
"-409 798 CURVE SMOOTH",
"-409 737 OFFCURVE",
"-360 688 OFFCURVE",
"-299 688 CURVE SMOOTH"
);
},
{
closed = 1;
nodes = (
"-345 714 OFFCURVE",
"-383 752 OFFCURVE",
"-383 798 CURVE SMOOTH",
"-383 844 OFFCURVE",
"-345 882 OFFCURVE",
"-299 882 CURVE SMOOTH",
"-253 882 OFFCURVE",
"-215 844 OFFCURVE",
"-215 798 CURVE SMOOTH",
"-215 752 OFFCURVE",
"-253 714 OFFCURVE",
"-299 714 CURVE SMOOTH"
);
}
);
width = 0;
}
);
note = uni17C6;
unicode = 17C6;
},
{
color = 1;
glyphname = "muusikatoan-khmer";
lastChange = "2018-01-05 14:25:28 +0000";
layers = (
{
anchors = (
{
name = _abvm;
position = "{-297, 684}";
},
{
name = _abvm_a;
position = "{-297, 684}";
},
{
name = _abvm_mskt;
position = "{-297, 684}";
},
{
name = abvm;
position = "{-297, 950}";
}
);
color = 1;
guideLines = (
{
angle = 270;
position = "{-297, 436}";
}
);
layerId = "6517A2BC-7974-4B53-8E65-A6A29EB8D1E7";
paths = (
{
closed = 1;
nodes = (
"-351 684 LINE",
"-351 879 LINE",
"-379 879 LINE",
"-379 684 LINE"
);
},
{
closed = 1;
nodes = (
"-215 684 LINE",
"-215 879 LINE",
"-243 879 LINE",
"-243 684 LINE"
);
}
);
width = 0;
}
);
note = uni17C9;
unicode = 17C9;
},
{
color = 1;
glyphname = "triisap-khmer";
lastChange = "2018-01-05 14:25:28 +0000";
layers = (
{
anchors = (
{
name = _abvm;
position = "{-297, 684}";
},
{
name = abvm;
position = "{-297, 778}";
}
);
color = 1;
guideLines = (
{
angle = 270;
position = "{-297, 436}";
},
{
angle = 270;
position = "{-297, 436}";
}
);
layerId = "6517A2BC-7974-4B53-8E65-A6A29EB8D1E7";
paths = (
{
closed = 1;
nodes = (
"-112 684 LINE",
"-112 710 LINE",
"-265 710 LINE",
"-298 686 LINE",
"-330 710 LINE",
"-483 710 LINE",
"-483 684 LINE"
);
}
);
width = 0;
}
);
note = uni17CA;
unicode = 17CA;
},
{
color = 1;
glyphname = "bantoc-khmer";
lastChange = "2018-01-05 14:25:28 +0000";
layers = (
{
anchors = (
{
name = _abvm;
position = "{-298, 684}";
},
{
name = abvm;
position = "{-297, 919}";
}
);
color = 1;
guideLines = (
{
angle = 270;
position = "{-297, 436}";
}
);
layerId = "6517A2BC-7974-4B53-8E65-A6A29EB8D1E7";
paths = (
{
closed = 1;
nodes = (
"-284 684 LINE",
"-284 879 LINE",
"-310 879 LINE",
"-310 684 LINE"
);
}
);
width = 0;
}
);
note = uni17CB;
unicode = 17CB;
},
{
color = 1;
glyphname = "robat-khmer";
lastChange = "2018-01-05 14:25:28 +0000";
layers = (
{
anchors = (
{
name = _abvm;
position = "{-297, 684}";
},
{
name = abvm;
position = "{-297, 986}";
}
);
color = 1;
guideLines = (
{
angle = 270;
position = "{-297, 436}";
}
);
layerId = "6517A2BC-7974-4B53-8E65-A6A29EB8D1E7";
paths = (
{
closed = 1;
nodes = (
"-377 742 OFFCURVE",
"-355 758 OFFCURVE",
"-300 758 CURVE SMOOTH",
"-250 758 OFFCURVE",
"-212 742 OFFCURVE",
"-178 698 CURVE",
"-157 715 LINE",
"-200 761 OFFCURVE",
"-244 793 OFFCURVE",
"-333 781 CURVE",
"-293 823 OFFCURVE",
"-273 850 OFFCURVE",
"-232 911 CURVE",
"-257 919 LINE",
"-291 858 OFFCURVE",
"-354 788 OFFCURVE",
"-448 723 CURVE",
"-433 702 LINE"
);
}
);
width = 420;
}
);
note = uni17CC;
unicode = 17CC;
},
{
color = 1;
glyphname = "toandakhiat-khmer";
lastChange = "2018-01-05 14:25:28 +0000";
layers = (
{
anchors = (
{
name = _abvm;
position = "{-297, 684}";
},
{
name = abvm;
position = "{-297, 975}";
}
);
color = 1;
guideLines = (
{
angle = 270;
position = "{-297, 436}";
}
);
layerId = "6517A2BC-7974-4B53-8E65-A6A29EB8D1E7";
paths = (
{
closed = 1;
nodes = (
"-360 684 LINE",
"-360 710 LINE",
"-378 710 LINE SMOOTH",
"-427 710 OFFCURVE",
"-440 723 OFFCURVE",
"-440 750 CURVE SMOOTH",
"-440 775 OFFCURVE",
"-424 787 OFFCURVE",
"-386 787 CURVE SMOOTH",
"-279 787 LINE SMOOTH",
"-188 787 OFFCURVE",
"-132 828 OFFCURVE",
"-132 908 CURVE",
"-158 908 LINE",
"-158 839 OFFCURVE",
"-203 813 OFFCURVE",
"-275 813 CURVE SMOOTH",
"-378 813 LINE SMOOTH",
"-432 813 OFFCURVE",
"-466 797 OFFCURVE",
"-466 748 CURVE SMOOTH",
"-466 705 OFFCURVE",
"-440 684 OFFCURVE",
"-392 684 CURVE SMOOTH"
);
}
);
width = 0;
}
);
note = uni17CD;
unicode = 17CD;
},
{
color = 1;
glyphname = "kakabat-khmer";
lastChange = "2018-01-05 14:25:28 +0000";
layers = (
{
anchors = (
{
name = _abvm;
position = "{-297, 684}";
},
{
name = abvm;
position = "{-297, 993}";
}
);
color = 1;
guideLines = (
{
angle = 270;
position = "{-297, 436}";
}
);
layerId = "6517A2BC-7974-4B53-8E65-A6A29EB8D1E7";
paths = (
{
closed = 1;
nodes = (
"-284 684 LINE",
"-284 796 LINE",
"-172 796 LINE",
"-172 822 LINE",
"-284 822 LINE",
"-284 934 LINE",
"-310 934 LINE",
"-310 822 LINE",
"-422 822 LINE",
"-422 796 LINE",
"-310 796 LINE",
"-310 684 LINE"
);
}
);
width = 0;
}
);
note = uni17CE;
unicode = 17CE;
},
{
color = 1;
glyphname = "ahsda-khmer";
lastChange = "2018-01-05 14:25:28 +0000";
layers = (
{
anchors = (
{
name = _abvm;
position = "{-297, 684}";
},
{
name = abvm;
position = "{-297, 985}";
}
);
color = 1;
guideLines = (
{
angle = 270;
position = "{-297, 436}";
},
{
angle = 270;
position = "{-297, 436}";
}
);
layerId = "6517A2BC-7974-4B53-8E65-A6A29EB8D1E7";
paths = (
{
closed = 1;
nodes = (
"-439 684 LINE",
"-297 739 LINE",
"-155 684 LINE",
"-125 684 LINE",
"-125 767 LINE",
"-151 767 LINE",
"-151 710 LINE",
"-296 767 LINE",
"-443 710 LINE",
"-443 768 LINE SMOOTH",
"-443 797 OFFCURVE",
"-443 816 OFFCURVE",
"-409 816 CURVE SMOOTH",
"-189 816 LINE SMOOTH",
"-150 816 OFFCURVE",
"-131 833 OFFCURVE",
"-131 862 CURVE SMOOTH",
"-131 881 LINE",
"-157 881 LINE",
"-157 842 OFFCURVE",
"-166 842 OFFCURVE",
"-214 842 CURVE SMOOTH",
"-403 842 LINE SMOOTH",
"-462 842 OFFCURVE",
"-469 815 OFFCURVE",
"-469 768 CURVE SMOOTH",
"-469 684 LINE"
);
}
);
width = 0;
}
);
note = uni17CF;
unicode = 17CF;
},
{
color = 1;
glyphname = "viriam-khmer";
lastChange = "2018-01-05 14:25:28 +0000";
layers = (
{
anchors = (
{
name = _abvm;
position = "{-297, 674}";
},
{
name = abvm;
position = "{-297, 758}";
}
);
color = 1;
guideLines = (
{
angle = 270;
position = "{-297, 436}";
}
);
layerId = "6517A2BC-7974-4B53-8E65-A6A29EB8D1E7";
paths = (
{
closed = 1;
nodes = (
"-122 684 LINE",
"-122 710 LINE",
"-473 710 LINE",
"-473 684 LINE"
);
}
);
width = 0;
}
);
note = uni17D1;
unicode = 17D1;
},
{
color = 1;
glyphname = "bathamasat-khmer";
lastChange = "2018-01-05 14:25:28 +0000";
layers = (
{
anchors = (
{
name = _abvm;
position = "{-297, 684}";
}
);
color = 1;
guideLines = (
{
angle = 270;
position = "{-297, 436}";
showMeasurement = 1;
}
);
layerId = "6517A2BC-7974-4B53-8E65-A6A29EB8D1E7";
paths = (
{
closed = 1;
nodes = (
"-206 685 OFFCURVE",
"-102 717 OFFCURVE",
"-102 807 CURVE SMOOTH",
"-102 893 OFFCURVE",
"-193 929 OFFCURVE",
"-297 929 CURVE SMOOTH",
"-388 929 OFFCURVE",
"-493 891 OFFCURVE",
"-493 807 CURVE SMOOTH",
"-493 722 OFFCURVE",
"-391 685 OFFCURVE",
"-297 685 CURVE SMOOTH"
);
},
{
closed = 1;
nodes = (
"-393 711 OFFCURVE",
"-467 741 OFFCURVE",
"-467 807 CURVE SMOOTH",
"-467 880 OFFCURVE",
"-364 903 OFFCURVE",
"-297 903 CURVE SMOOTH",
"-204 903 OFFCURVE",
"-128 876 OFFCURVE",
"-128 807 CURVE SMOOTH",
"-128 742 OFFCURVE",
"-200 711 OFFCURVE",
"-297 711 CURVE SMOOTH"
);
}
);
width = 0;
}
);
note = uni17D3;
unicode = 17D3;
},
{
color = 1;
glyphname = "atthacan-khmer";
lastChange = "2018-01-05 14:25:28 +0000";
layers = (
{
anchors = (
{
name = _abvm;
position = "{-303, 684}";
}
);
color = 1;
layerId = "6517A2BC-7974-4B53-8E65-A6A29EB8D1E7";
paths = (
{
closed = 1;
nodes = (
"-467 687 LINE",
"-467 776 OFFCURVE",
"-387 810 OFFCURVE",
"-303 810 CURVE SMOOTH",
"-219 810 OFFCURVE",
"-139 776 OFFCURVE",
"-139 687 CURVE",
"-113 687 LINE",
"-113 808 OFFCURVE",
"-228 836 OFFCURVE",
"-304 836 CURVE SMOOTH",
"-380 836 OFFCURVE",
"-493 808 OFFCURVE",
"-493 687 CURVE"
);
}
);
width = 0;
}
);
note = uni17DD;
unicode = 17DD;
},
{
color = 1;
glyphname = "uMark-khmer";
lastChange = "2018-01-05 14:25:28 +0000";
layers = (
{
anchors = (
{
name = _blwm;
position = "{-297, 16}";
}
);
color = 1;
guideLines = (
{
angle = 270;
position = "{-297, 821}";
}
);
layerId = "6517A2BC-7974-4B53-8E65-A6A29EB8D1E7";
paths = (
{
closed = 1;
nodes = (
"-257 -244 LINE",
"-257 -34 LINE",
"-350 -34 LINE",
"-350 -60 LINE",
"-283 -60 LINE",
"-283 -244 LINE"
);
}
);
width = 0;
}
);
note = uni17BB;
unicode = 17BB;
script = khmer;
category = Mark;
},
{
color = 1;
glyphname = "uuMark-khmer";
lastChange = "2018-01-05 14:25:28 +0000";
layers = (
{
anchors = (
{
name = _blwm;
position = "{-297, 16}";
}
);
color = 1;
guideLines = (
{
angle = 270;
position = "{-297, 821}";
}
);
layerId = "6517A2BC-7974-4B53-8E65-A6A29EB8D1E7";
paths = (
{
closed = 1;
nodes = (
"-207 -230 OFFCURVE",
"-169 -194 OFFCURVE",
"-169 -128 CURVE SMOOTH",
"-169 -34 LINE",
"-195 -34 LINE",
"-195 -126 LINE SMOOTH",
"-195 -186 OFFCURVE",
"-233 -204 OFFCURVE",
"-297 -204 CURVE SMOOTH",
"-361 -204 OFFCURVE",
"-399 -186 OFFCURVE",
"-399 -126 CURVE SMOOTH",
"-399 -34 LINE",
"-425 -34 LINE",
"-425 -128 LINE SMOOTH",
"-425 -194 OFFCURVE",
"-387 -230 OFFCURVE",
"-297 -230 CURVE SMOOTH"
);
}
);
width = 0;
}
);
note = uni17BC;
unicode = 17BC;
},
{
color = 1;
glyphname = "uaMark-khmer";
lastChange = "2018-01-05 14:25:28 +0000";
layers = (
{
anchors = (
{
name = _blwm;
position = "{-297, 16}";
}
);
color = 1;
guideLines = (
{
angle = 270;
position = "{-297, 821}";
},
{
position = "{-471, -116}";
showMeasurement = 1;
},
{
angle = 142.97;
position = "{-227, -169}";
},
{
angle = 38.2731;
position = "{-364, -169}";
}
);
layerId = "6517A2BC-7974-4B53-8E65-A6A29EB8D1E7";
paths = (
{
closed = 1;
nodes = (
"-406 -230 LINE",
"-297 -144 LINE",
"-183 -230 LINE",
"-153 -230 LINE",
"-153 -34 LINE",
"-179 -34 LINE",
"-179 -201 LINE",
"-297 -112 LINE",
"-415 -205 LINE",
"-415 -34 LINE",
"-441 -34 LINE",
"-441 -230 LINE"
);
}
);
width = 0;
}
);
note = uni17BD;
unicode = 17BD;
},
{
color = 1;
glyphname = "e-khmer";
lastChange = "2018-01-05 14:25:28 +0000";
layers = (
{
color = 1;
guideLines = (
{
angle = 270;
position = "{216, 609}";
showMeasurement = 1;
}
);
layerId = "6517A2BC-7974-4B53-8E65-A6A29EB8D1E7";
paths = (
{
closed = 1;
nodes = (
"111 384 LINE",
"111 65 LINE SMOOTH",
"111 17 OFFCURVE",
"135 0 OFFCURVE",
"184 0 CURVE SMOOTH",
"248 0 LINE",
"248 26 LINE",
"173 26 LINE SMOOTH",
"144 26 OFFCURVE",
"137 42 OFFCURVE",
"137 65 CURVE SMOOTH",
"137 384 LINE"
);
},
{
closed = 1;
nodes = (
"137 376 LINE",
"137 398 LINE",
"55 536 LINE",
"63 560 LINE",
"156 560 LINE",
"156 586 LINE",
"65 586 LINE",
"50 569 OFFCURVE",
"40 547 OFFCURVE",
"40 530 CURVE SMOOTH",
"40 514 OFFCURVE",
"54 486 OFFCURVE",
"111 394 CURVE",
"111 376 LINE"
);
}
);
width = 248;
}
);
note = uni17C1;
unicode = 17C1;
},
{
color = 1;
glyphname = "reahmuk-khmer";
lastChange = "2018-01-05 14:25:28 +0000";
layers = (
{
color = 1;
guideLines = (
{
angle = 180;
position = "{200, 476}";
showMeasurement = 1;
},
{
angle = 90;
position = "{200, 571}";
showMeasurement = 1;
}
);
layerId = "6517A2BC-7974-4B53-8E65-A6A29EB8D1E7";
paths = (
{
closed = 1;
nodes = (
"261 366 OFFCURVE",
"310 415 OFFCURVE",
"310 476 CURVE SMOOTH",
"310 537 OFFCURVE",
"261 586 OFFCURVE",
"200 586 CURVE SMOOTH",
"139 586 OFFCURVE",
"90 537 OFFCURVE",
"90 476 CURVE SMOOTH",
"90 415 OFFCURVE",
"139 366 OFFCURVE",
"200 366 CURVE SMOOTH"
);
},
{
closed = 1;
nodes = (
"154 392 OFFCURVE",
"116 430 OFFCURVE",
"116 476 CURVE SMOOTH",
"116 522 OFFCURVE",
"154 560 OFFCURVE",
"200 560 CURVE SMOOTH",
"246 560 OFFCURVE",
"284 522 OFFCURVE",
"284 476 CURVE SMOOTH",
"284 430 OFFCURVE",
"246 392 OFFCURVE",
"200 392 CURVE SMOOTH"
);
},
{
closed = 1;
nodes = (
"261 0 OFFCURVE",
"310 49 OFFCURVE",
"310 110 CURVE SMOOTH",
"310 171 OFFCURVE",
"261 220 OFFCURVE",
"200 220 CURVE SMOOTH",
"139 220 OFFCURVE",
"90 171 OFFCURVE",
"90 110 CURVE SMOOTH",
"90 49 OFFCURVE",
"139 0 OFFCURVE",
"200 0 CURVE SMOOTH"
);
},
{
closed = 1;
nodes = (
"154 26 OFFCURVE",
"116 64 OFFCURVE",
"116 110 CURVE SMOOTH",
"116 156 OFFCURVE",
"154 194 OFFCURVE",
"200 194 CURVE SMOOTH",
"246 194 OFFCURVE",
"284 156 OFFCURVE",
"284 110 CURVE SMOOTH",
"284 64 OFFCURVE",
"246 26 OFFCURVE",
"200 26 CURVE SMOOTH"
);
}
);
width = 399;
}
);
note = uni17C7;
unicode = 17C7;
},
{
color = 1;
glyphname = "yuukaleapintu-khmer";
lastChange = "2018-01-05 14:25:28 +0000";
layers = (
{
color = 1;
layerId = "6517A2BC-7974-4B53-8E65-A6A29EB8D1E7";
paths = (
{
closed = 1;
nodes = (
"157 434 OFFCURVE",
"174 451 OFFCURVE",
"174 471 CURVE SMOOTH",
"174 491 OFFCURVE",
"157 508 OFFCURVE",
"137 508 CURVE SMOOTH",
"117 508 OFFCURVE",
"100 491 OFFCURVE",
"100 471 CURVE SMOOTH",
"100 451 OFFCURVE",
"117 434 OFFCURVE",
"137 434 CURVE SMOOTH"
);
},
{
closed = 1;
nodes = (
"157 68 OFFCURVE",
"174 85 OFFCURVE",
"174 105 CURVE SMOOTH",
"174 125 OFFCURVE",
"157 142 OFFCURVE",
"137 142 CURVE SMOOTH",
"117 142 OFFCURVE",
"100 125 OFFCURVE",
"100 105 CURVE SMOOTH",
"100 85 OFFCURVE",
"117 68 OFFCURVE",
"137 68 CURVE SMOOTH"
);
}
);
width = 283;
}
);
note = uni17C8;
unicode = 17C8;
},
{
color = 1;
glyphname = "coeng-khmer";
lastChange = "2018-01-05 14:25:28 +0000";
layers = (
{
anchors = (
{
name = blwm;
position = "{-297, -24}";
}
);
color = 1;
guideLines = (
{
angle = 270;
position = "{-297, 436}";
}
);
layerId = "6517A2BC-7974-4B53-8E65-A6A29EB8D1E7";
paths = (
{
closed = 1;
nodes = (
"-285 -244 LINE",
"-285 -147 LINE",
"-182 -147 LINE",
"-182 -121 LINE",
"-285 -121 LINE",
"-285 -24 LINE",
"-311 -24 LINE",
"-311 -121 LINE",
"-411 -121 LINE",
"-411 -147 LINE",
"-311 -147 LINE",
"-311 -244 LINE"
);
}
);
width = 0;
}
);
note = uni17D2;
unicode = 17D2;
},
{
color = 7;
glyphname = "coeng_ka-khmer";
lastChange = "2018-01-05 14:25:33 +0000";
layers = (
{
anchors = (
{
name = _blwm;
position = "{-317, 16}";
},
{
name = blwm;
position = "{-317, -254}";
}
);
color = 7;
layerId = "6517A2BC-7974-4B53-8E65-A6A29EB8D1E7";
paths = (
{
closed = 1;
nodes = (
"-459 -244 LINE",
"-459 -138 LINE SMOOTH",
"-459 -78 OFFCURVE",
"-425 -50 OFFCURVE",
"-317 -50 CURVE SMOOTH",
"-209 -50 OFFCURVE",
"-176 -77 OFFCURVE",
"-176 -138 CURVE SMOOTH",
"-176 -244 LINE",
"-150 -244 LINE",
"-150 -138 LINE SMOOTH",
"-150 -55 OFFCURVE",
"-204 -24 OFFCURVE",
"-317 -24 CURVE SMOOTH",
"-430 -24 OFFCURVE",
"-485 -60 OFFCURVE",
"-485 -138 CURVE SMOOTH",
"-485 -244 LINE"
);
}
);
width = 0;
}
);
note = uni17D21780;
},
{
color = 7;
glyphname = "coeng_kha-khmer";
lastChange = "2018-01-05 14:25:33 +0000";
layers = (
{
anchors = (
{
name = _blwm;
position = "{-318, 16}";
},
{
name = blwm;
position = "{-320, -254}";
}
);
color = 7;
guideLines = (
{
angle = 90;
position = "{-317, -37}";
showMeasurement = 1;
},
{
position = "{-362, -180}";
showMeasurement = 1;
}
);
layerId = "6517A2BC-7974-4B53-8E65-A6A29EB8D1E7";
paths = (
{
closed = 1;
nodes = (
"-209 -244 OFFCURVE",
"-155 -208 OFFCURVE",
"-155 -163 CURVE SMOOTH",
"-155 -156 LINE",
"-182 -163 LINE",
"-182 -194 OFFCURVE",
"-223 -218 OFFCURVE",
"-317 -218 CURVE SMOOTH",
"-412 -218 OFFCURVE",
"-453 -208 OFFCURVE",
"-453 -185 CURVE SMOOTH",
"-453 -160 OFFCURVE",
"-377 -158 OFFCURVE",
"-308 -147 CURVE SMOOTH",
"-221 -133 OFFCURVE",
"-155 -120 OFFCURVE",
"-155 -79 CURVE SMOOTH",
"-155 -44 OFFCURVE",
"-191 -24 OFFCURVE",
"-317 -24 CURVE SMOOTH",
"-405 -24 OFFCURVE",
"-480 -37 OFFCURVE",
"-480 -91 CURVE SMOOTH",
"-480 -98 OFFCURVE",
"-476 -101 OFFCURVE",
"-464 -101 CURVE SMOOTH",
"-457 -101 LINE",
"-453 -57 OFFCURVE",
"-407 -49 OFFCURVE",
"-317 -49 CURVE SMOOTH",
"-253 -49 OFFCURVE",
"-181 -52 OFFCURVE",
"-181 -79 CURVE SMOOTH",
"-181 -105 OFFCURVE",
"-256 -115 OFFCURVE",
"-350 -128 CURVE SMOOTH",
"-416 -137 OFFCURVE",
"-480 -146 OFFCURVE",
"-480 -186 CURVE SMOOTH",
"-480 -228 OFFCURVE",
"-426 -244 OFFCURVE",
"-317 -244 CURVE SMOOTH"
);
}
);
width = 0;
}
);
note = uni17D21781;
},
{
color = 7;
glyphname = "coeng_ko-khmer";
lastChange = "2018-01-05 14:25:33 +0000";
layers = (
{
anchors = (
{
name = _blwm;
position = "{-317, 16}";
},
{
name = blwm;
position = "{-317, -254}";
}
);
color = 7;
guideLines = (
{
angle = 205.594;
position = "{-388, -191}";
},
{
angle = -59.4208;
position = "{-308, -179}";
}
);
layerId = "6517A2BC-7974-4B53-8E65-A6A29EB8D1E7";
paths = (
{
closed = 1;
nodes = (
"-454 -244 LINE",
"-454 -223 LINE",
"-322 -159 LINE",
"-335 -137 LINE",
"-454 -194 LINE",
"-454 -157 LINE SMOOTH",
"-454 -85 OFFCURVE",
"-418 -50 OFFCURVE",
"-317 -50 CURVE SMOOTH",
"-209 -50 OFFCURVE",
"-176 -77 OFFCURVE",
"-176 -138 CURVE SMOOTH",
"-176 -244 LINE",
"-150 -244 LINE",
"-150 -138 LINE SMOOTH",
"-150 -67 OFFCURVE",
"-181 -24 OFFCURVE",
"-317 -24 CURVE SMOOTH",
"-430 -24 OFFCURVE",
"-480 -67 OFFCURVE",
"-480 -138 CURVE SMOOTH",
"-480 -244 LINE"
);
}
);
width = 0;
}
);
note = uni17D21782;
},
{
color = 7;
glyphname = "coeng_ngo-khmer";
lastChange = "2018-01-05 14:25:33 +0000";
layers = (
{
anchors = (
{
name = _blwm;
position = "{-323, 16}";
},
{
name = blwm;
position = "{-331, -254}";
}
);
color = 7;
layerId = "6517A2BC-7974-4B53-8E65-A6A29EB8D1E7";
paths = (
{
closed = 1;
nodes = (
"-240 -230 OFFCURVE",
"-155 -161 OFFCURVE",
"-151 -24 CURVE",
"-180 -24 LINE",
"-185 -131 OFFCURVE",
"-233 -204 OFFCURVE",
"-370 -204 CURVE SMOOTH",
"-428 -204 OFFCURVE",
"-464 -183 OFFCURVE",
"-464 -146 CURVE SMOOTH",
"-464 -108 OFFCURVE",
"-429 -88 OFFCURVE",
"-351 -88 CURVE",
"-351 -60 LINE",
"-440 -60 OFFCURVE",
"-490 -92 OFFCURVE",
"-490 -147 CURVE SMOOTH",
"-490 -209 OFFCURVE",
"-434 -230 OFFCURVE",
"-370 -230 CURVE SMOOTH"
);
}
);
width = 0;
}
);
note = uni17D21784;
},
{
color = 7;
glyphname = "coeng_ca-khmer";
lastChange = "2018-01-05 14:25:33 +0000";
layers = (
{
anchors = (
{
name = _blwm;
position = "{-317, 16}";
},
{
name = blwm;
position = "{-331, -277}";
}
);
color = 7;
layerId = "6517A2BC-7974-4B53-8E65-A6A29EB8D1E7";
paths = (
{
closed = 1;
nodes = (
"-132 -234 LINE",
"-132 -209 OFFCURVE",
"-137 -180 OFFCURVE",
"-171 -142 CURVE",
"-165 -133 OFFCURVE",
"-161 -122 OFFCURVE",
"-161 -110 CURVE SMOOTH",
"-161 -95 OFFCURVE",
"-171 -82 OFFCURVE",
"-191 -82 CURVE SMOOTH",
"-211 -82 OFFCURVE",
"-222 -96 OFFCURVE",
"-222 -111 CURVE SMOOTH",
"-222 -124 OFFCURVE",
"-217 -133 OFFCURVE",
"-209 -143 CURVE",
"-237 -174 OFFCURVE",
"-328 -208 OFFCURVE",
"-392 -208 CURVE SMOOTH",
"-428 -208 OFFCURVE",
"-455 -205 OFFCURVE",
"-455 -183 CURVE SMOOTH",
"-455 -168 OFFCURVE",
"-428 -146 OFFCURVE",
"-403 -126 CURVE SMOOTH",
"-364 -94 OFFCURVE",
"-355 -65 OFFCURVE",
"-347 -46 CURVE",
"-373 -37 LINE",
"-379 -56 OFFCURVE",
"-383 -79 OFFCURVE",
"-417 -105 CURVE SMOOTH",
"-450 -131 OFFCURVE",
"-481 -155 OFFCURVE",
"-481 -187 CURVE SMOOTH",
"-481 -216 OFFCURVE",
"-450 -234 OFFCURVE",
"-392 -234 CURVE SMOOTH",
"-318 -234 OFFCURVE",
"-235 -201 OFFCURVE",
"-190 -161 CURVE",
"-168 -184 OFFCURVE",
"-160 -200 OFFCURVE",
"-160 -234 CURVE"
);
}
);
width = 0;
}
);
note = uni17D21785;
},
{
color = 7;
glyphname = "coeng_cha-khmer";
lastChange = "2018-01-05 14:25:33 +0000";
layers = (
{
anchors = (
{
name = _blwm;
position = "{-316, 16}";
},
{
name = blwm;
position = "{-320, -254}";
}
);
color = 7;
guideLines = (
{
position = "{-410, -85}";
showMeasurement = 1;
}
);
layerId = "6517A2BC-7974-4B53-8E65-A6A29EB8D1E7";
paths = (
{
closed = 1;
nodes = (
"-438 -244 OFFCURVE",
"-427 -219 OFFCURVE",
"-425 -199 CURVE",
"-398 -199 OFFCURVE",
"-353 -199 OFFCURVE",
"-334 -206 CURVE SMOOTH",
"-298 -220 OFFCURVE",
"-276 -244 OFFCURVE",
"-229 -244 CURVE SMOOTH",
"-181 -244 OFFCURVE",
"-151 -223 OFFCURVE",
"-151 -168 CURVE SMOOTH",
"-151 -24 LINE",
"-227 -24 LINE",
"-227 -49 LINE",
"-177 -49 LINE",
"-177 -165 LINE SMOOTH",
"-177 -208 OFFCURVE",
"-195 -218 OFFCURVE",
"-229 -218 CURVE SMOOTH",
"-265 -218 OFFCURVE",
"-276 -200 OFFCURVE",
"-312 -185 CURVE SMOOTH",
"-342 -173 OFFCURVE",
"-383 -173 OFFCURVE",
"-425 -173 CURVE",
"-425 -24 LINE",
"-451 -24 LINE",
"-451 -173 LINE",
"-474 -178 OFFCURVE",
"-490 -195 OFFCURVE",
"-490 -213 CURVE SMOOTH",
"-490 -230 OFFCURVE",
"-481 -244 OFFCURVE",
"-462 -244 CURVE SMOOTH"
);
}
);
width = 0;
}
);
note = uni17D21786;
},
{
color = 7;
glyphname = "coeng_co-khmer";
lastChange = "2018-01-05 14:25:33 +0000";
layers = (
{
anchors = (
{
name = _blwm;
position = "{-310, 16}";
},
{
name = blwm;
position = "{-303, -272}";
}
);
color = 7;
layerId = "6517A2BC-7974-4B53-8E65-A6A29EB8D1E7";
paths = (
{
closed = 1;
nodes = (
"-341 -217 OFFCURVE",
"-328 -192 OFFCURVE",
"-308 -174 CURVE",
"-291 -188 OFFCURVE",
"-270 -217 OFFCURVE",
"-229 -217 CURVE SMOOTH",
"-174 -217 OFFCURVE",
"-139 -166 OFFCURVE",
"-139 -101 CURVE",
"-78 -101 LINE",
"-78 -75 LINE",
"-139 -75 LINE",
"-142 -53 OFFCURVE",
"-150 -31 OFFCURVE",
"-175 -31 CURVE SMOOTH",
"-194 -31 OFFCURVE",
"-204 -44 OFFCURVE",
"-204 -59 CURVE SMOOTH",
"-204 -80 OFFCURVE",
"-185 -95 OFFCURVE",
"-165 -101 CURVE",
"-166 -132 OFFCURVE",
"-176 -191 OFFCURVE",
"-228 -191 CURVE SMOOTH",
"-267 -191 OFFCURVE",
"-281 -148 OFFCURVE",
"-307 -148 CURVE SMOOTH",
"-330 -148 OFFCURVE",
"-341 -191 OFFCURVE",
"-389 -191 CURVE SMOOTH",
"-416 -191 OFFCURVE",
"-450 -176 OFFCURVE",
"-450 -125 CURVE SMOOTH",
"-450 -81 OFFCURVE",
"-423 -57 OFFCURVE",
"-384 -57 CURVE SMOOTH",
"-378 -57 LINE",
"-378 -31 LINE",
"-387 -31 LINE SMOOTH",
"-438 -31 OFFCURVE",
"-476 -70 OFFCURVE",
"-476 -127 CURVE SMOOTH",
"-476 -185 OFFCURVE",
"-433 -217 OFFCURVE",
"-390 -217 CURVE SMOOTH"
);
}
);
width = 0;
}
);
note = uni17D21787;
},
{
color = 7;
glyphname = "coeng_nyo-khmer";
lastChange = "2018-01-05 14:25:33 +0000";
layers = (
{
anchors = (
{
name = _blwm;
position = "{-304, 16}";
},
{
name = blwm;
position = "{-304, -254}";
}
);
color = 7;
layerId = "6517A2BC-7974-4B53-8E65-A6A29EB8D1E7";
paths = (
{
closed = 1;
nodes = (
"-179 -200 OFFCURVE",
"-124 -124 OFFCURVE",
"-124 -55 CURVE SMOOTH",
"-124 -35 LINE",
"-247 -35 LINE",
"-247 -61 LINE",
"-150 -61 LINE",
"-150 -120 OFFCURVE",
"-200 -174 OFFCURVE",
"-248 -174 CURVE SMOOTH",
"-286 -174 OFFCURVE",
"-298 -163 OFFCURVE",
"-362 -121 CURVE SMOOTH",
"-410 -89 OFFCURVE",
"-444 -70 OFFCURVE",
"-503 -70 CURVE SMOOTH",
"-519 -70 LINE",
"-519 -96 LINE",
"-503 -96 LINE SMOOTH",
"-451 -96 OFFCURVE",
"-418 -113 OFFCURVE",
"-372 -145 CURVE SMOOTH",
"-312 -187 OFFCURVE",
"-285 -200 OFFCURVE",
"-248 -200 CURVE SMOOTH"
);
}
);
width = 0;
}
);
note = uni17D21789;
},
{
color = 7;
glyphname = "coeng_da-khmer";
lastChange = "2018-01-05 14:25:33 +0000";
layers = (
{
anchors = (
{
name = _blwm;
position = "{-317, 16}";
},
{
name = blwm;
position = "{-319, -254}";
}
);
color = 7;
layerId = "6517A2BC-7974-4B53-8E65-A6A29EB8D1E7";
paths = (
{
closed = 1;
nodes = (
"-340 -244 LINE",
"-340 -218 LINE",
"-404 -218 LINE SMOOTH",
"-459 -218 OFFCURVE",
"-459 -192 OFFCURVE",
"-459 -138 CURVE SMOOTH",
"-459 -78 OFFCURVE",
"-425 -50 OFFCURVE",
"-317 -50 CURVE SMOOTH",
"-209 -50 OFFCURVE",
"-176 -64 OFFCURVE",
"-176 -138 CURVE SMOOTH",
"-176 -244 LINE",
"-150 -244 LINE",
"-150 -138 LINE SMOOTH",
"-150 -36 OFFCURVE",
"-209 -24 OFFCURVE",
"-317 -24 CURVE SMOOTH",
"-425 -24 OFFCURVE",
"-485 -50 OFFCURVE",
"-485 -138 CURVE SMOOTH",
"-485 -177 LINE SMOOTH",
"-485 -221 OFFCURVE",
"-463 -244 OFFCURVE",
"-415 -244 CURVE SMOOTH"
);
}
);
width = 0;
}
);
note = uni17D2178A;
},
{
color = 7;
glyphname = "coeng_ttha-khmer";
lastChange = "2018-01-05 14:25:33 +0000";
layers = (
{
anchors = (
{
name = _blwm;
position = "{-304, 16}";
},
{
name = blwm;
position = "{-295, -254}";
}
);
color = 7;
layerId = "6517A2BC-7974-4B53-8E65-A6A29EB8D1E7";
paths = (
{
closed = 1;
nodes = (
"-455 -240 LINE",
"-317 -166 LINE",
"-179 -240 LINE",
"-153 -240 LINE",
"-153 -66 LINE",
"-110 -66 LINE",
"-110 -40 LINE",
"-153 -40 LINE",
"-153 -20 LINE",
"-179 -20 LINE",
"-179 -40 LINE",
"-441 -40 LINE SMOOTH",
"-471 -40 OFFCURVE",
"-481 -48 OFFCURVE",
"-481 -69 CURVE SMOOTH",
"-481 -240 LINE"
);
},
{
closed = 1;
nodes = (
"-455 -66 LINE",
"-179 -66 LINE",
"-179 -210 LINE",
"-317 -139 LINE",
"-455 -210 LINE"
);
}
);
width = 0;
}
);
note = uni17D2178B;
},
{
color = 7;
glyphname = "coeng_do-khmer";
lastChange = "2018-01-05 14:25:33 +0000";
layers = (
{
anchors = (
{
name = _blwm;
position = "{-318, 16}";
},
{
name = blwm;
position = "{-318, -254}";
}
);
color = 7;
layerId = "6517A2BC-7974-4B53-8E65-A6A29EB8D1E7";
paths = (
{
closed = 1;
nodes = (
"-480 -241 OFFCURVE",
"-477 -244 OFFCURVE",
"-462 -244 CURVE SMOOTH",
"-455 -244 LINE",
"-181 -215 LINE",
"-181 -244 LINE",
"-155 -244 LINE",
"-155 -150 LINE",
"-181 -150 LINE",
"-181 -189 LINE",
"-454 -218 LINE",
"-454 -168 LINE",
"-251 -144 OFFCURVE",
"-155 -129 OFFCURVE",
"-155 -104 CURVE SMOOTH",
"-155 -43 LINE SMOOTH",
"-155 -30 OFFCURVE",
"-155 -24 OFFCURVE",
"-172 -24 CURVE SMOOTH",
"-180 -24 LINE",
"-317 -55 LINE",
"-455 -24 LINE",
"-465 -24 LINE SMOOTH",
"-475 -24 OFFCURVE",
"-480 -30 OFFCURVE",
"-480 -40 CURVE SMOOTH",
"-480 -108 LINE",
"-454 -108 LINE",
"-454 -51 LINE",
"-317 -81 LINE",
"-181 -50 LINE",
"-181 -94 LINE SMOOTH",
"-181 -107 OFFCURVE",
"-342 -133 OFFCURVE",
"-462 -142 CURVE SMOOTH",
"-475 -143 OFFCURVE",
"-480 -148 OFFCURVE",
"-480 -163 CURVE SMOOTH",
"-480 -227 LINE SMOOTH"
);
}
);
width = 0;
}
);
note = uni17D2178C;
},
{
color = 7;
glyphname = "coeng_nno-khmer";
lastChange = "2018-01-05 14:25:33 +0000";
layers = (
{
anchors = (
{
name = _blwm;
position = "{-620, 16}";
},
{
name = _blwm_nno;
position = "{-699, 10}";
},
{
name = blwm;
position = "{-620, -254}";
}
);
color = 7;
guideLines = (
{
position = "{-91, -105}";
},
{
position = "{-98, -28}";
}
);
layerId = "6517A2BC-7974-4B53-8E65-A6A29EB8D1E7";
paths = (
{
closed = 1;
nodes = (
"-908 -244 LINE",
"-908 -218 LINE",
"-963 -218 LINE",
"-963 -105 LINE SMOOTH",
"-963 -62 OFFCURVE",
"-912 -50 OFFCURVE",
"-851 -50 CURVE SMOOTH",
"-798 -50 OFFCURVE",
"-751 -62 OFFCURVE",
"-751 -105 CURVE SMOOTH",
"-751 -244 LINE",
"-725 -244 LINE",
"-620 -176 LINE",
"-514 -244 LINE",
"-488 -244 LINE",
"-488 -105 LINE SMOOTH",
"-488 -62 OFFCURVE",
"-441 -50 OFFCURVE",
"-387 -50 CURVE SMOOTH",
"-326 -50 OFFCURVE",
"-277 -62 OFFCURVE",
"-277 -105 CURVE SMOOTH",
"-277 -244 LINE",
"-251 -244 LINE",
"-251 -105 LINE SMOOTH",
"-251 -41 OFFCURVE",
"-310 -24 OFFCURVE",
"-387 -24 CURVE SMOOTH",
"-458 -24 OFFCURVE",
"-514 -41 OFFCURVE",
"-514 -105 CURVE SMOOTH",
"-514 -217 LINE",
"-620 -148 LINE",
"-725 -217 LINE",
"-725 -105 LINE SMOOTH",
"-725 -41 OFFCURVE",
"-776 -24 OFFCURVE",
"-853 -24 CURVE SMOOTH",
"-924 -24 OFFCURVE",
"-989 -41 OFFCURVE",
"-989 -105 CURVE SMOOTH",
"-989 -244 LINE"
);
}
);
width = 0;
}
);
note = uni17D2178E;
},
{
color = 7;
glyphname = "coeng_ta-khmer";
lastChange = "2018-01-05 14:25:33 +0000";
layers = (
{
anchors = (
{
name = _blwm;
position = "{-318, 16}";
},
{
name = blwm;
position = "{-317, -254}";
}
);
color = 7;
layerId = "6517A2BC-7974-4B53-8E65-A6A29EB8D1E7";
paths = (
{
closed = 1;
nodes = (
"-340 -244 LINE",
"-340 -218 LINE",
"-428 -218 LINE SMOOTH",
"-445 -218 OFFCURVE",
"-454 -213 OFFCURVE",
"-454 -202 CURVE SMOOTH",
"-454 -138 LINE SMOOTH",
"-454 -81 OFFCURVE",
"-425 -50 OFFCURVE",
"-317 -50 CURVE SMOOTH",
"-219 -50 OFFCURVE",
"-181 -81 OFFCURVE",
"-181 -138 CURVE SMOOTH",
"-181 -244 LINE",
"-155 -244 LINE",
"-155 -138 LINE SMOOTH",
"-155 -70 OFFCURVE",
"-195 -24 OFFCURVE",
"-317 -24 CURVE SMOOTH",
"-439 -24 OFFCURVE",
"-480 -67 OFFCURVE",
"-480 -138 CURVE SMOOTH",
"-480 -202 LINE SMOOTH",
"-480 -234 OFFCURVE",
"-458 -244 OFFCURVE",
"-428 -244 CURVE SMOOTH"
);
}
);
width = 0;
}
);
note = uni17D2178F;
},
{
color = 7;
glyphname = "coeng_tha-khmer";
lastChange = "2018-01-05 14:25:33 +0000";
layers = (
{
anchors = (
{
name = _blwm;
position = "{-333, 16}";
},
{
name = blwm;
position = "{-328, -254}";
}
);
color = 7;
guideLines = (
{
position = "{-583, -216}";
showMeasurement = 1;
}
);
layerId = "6517A2BC-7974-4B53-8E65-A6A29EB8D1E7";
paths = (
{
closed = 1;
nodes = (
"-426 -244 LINE",
"-426 -218 LINE",
"-493 -218 LINE",
"-493 -148 OFFCURVE",
"-455 -50 OFFCURVE",
"-390 -50 CURVE SMOOTH",
"-341 -50 OFFCURVE",
"-309 -102 OFFCURVE",
"-280 -140 CURVE SMOOTH",
"-225 -213 OFFCURVE",
"-176 -242 OFFCURVE",
"-129 -242 CURVE",
"-129 -213 LINE",
"-173 -213 OFFCURVE",
"-211 -187 OFFCURVE",
"-262 -121 CURVE SMOOTH",
"-297 -76 OFFCURVE",
"-325 -24 OFFCURVE",
"-387 -24 CURVE SMOOTH",
"-462 -24 OFFCURVE",
"-520 -110 OFFCURVE",
"-520 -244 CURVE"
);
}
);
width = 0;
}
);
note = uni17D21790;
},
{
color = 7;
glyphname = "coeng_to-khmer";
lastChange = "2018-01-05 14:25:33 +0000";
layers = (
{
anchors = (
{
name = _blwm;
position = "{-312, 16}";
},
{
name = blwm;
position = "{-312, -254}";
}
);
color = 7;
guideLines = (
{
angle = 187.407;
position = "{-343, -102}";
},
{
angle = 184.879;
position = "{-268, -195}";
}
);
layerId = "6517A2BC-7974-4B53-8E65-A6A29EB8D1E7";
paths = (
{
closed = 1;
nodes = (
"-169 -238 LINE SMOOTH",
"-162 -238 OFFCURVE",
"-151 -228 OFFCURVE",
"-151 -207 CURVE SMOOTH",
"-151 -159 LINE",
"-397 -180 LINE SMOOTH",
"-444 -184 OFFCURVE",
"-456 -177 OFFCURVE",
"-456 -161 CURVE SMOOTH",
"-456 -144 OFFCURVE",
"-431 -139 OFFCURVE",
"-390 -134 CURVE SMOOTH",
"-283 -120 LINE SMOOTH",
"-216 -111 OFFCURVE",
"-152 -86 OFFCURVE",
"-152 -36 CURVE SMOOTH",
"-152 -24 LINE",
"-252 -24 LINE",
"-252 -50 LINE",
"-183 -50 LINE",
"-188 -71 OFFCURVE",
"-237 -88 OFFCURVE",
"-297 -96 CURVE SMOOTH",
"-393 -108 LINE SMOOTH",
"-456 -116 OFFCURVE",
"-486 -125 OFFCURVE",
"-486 -163 CURVE SMOOTH",
"-486 -191 OFFCURVE",
"-459 -211 OFFCURVE",
"-415 -207 CURVE SMOOTH",
"-192 -189 LINE SMOOTH",
"-183 -188 OFFCURVE",
"-179 -191 OFFCURVE",
"-179 -199 CURVE SMOOTH",
"-179 -211 OFFCURVE",
"-183 -219 OFFCURVE",
"-197 -238 CURVE"
);
}
);
width = 0;
}
);
note = uni17D21791;
},
{
color = 7;
glyphname = "coeng_tho-khmer";
lastChange = "2018-01-05 14:25:33 +0000";
layers = (
{
anchors = (
{
name = _blwm;
position = "{-318, 16}";
},
{
name = blwm;
position = "{-297, -233}";
}
);
color = 7;
guideLines = (
{
angle = 192.711;
position = "{-384, -120}";
}
);
layerId = "6517A2BC-7974-4B53-8E65-A6A29EB8D1E7";
paths = (
{
closed = 1;
nodes = (
"-340 -233 OFFCURVE",
"-311 -198 OFFCURVE",
"-303 -170 CURVE",
"-284 -188 OFFCURVE",
"-262 -198 OFFCURVE",
"-232 -198 CURVE SMOOTH",
"-196 -198 OFFCURVE",
"-155 -188 OFFCURVE",
"-155 -124 CURVE SMOOTH",
"-155 -39 LINE",
"-181 -39 LINE",
"-198 -50 OFFCURVE",
"-256 -65 OFFCURVE",
"-481 -114 CURVE",
"-481 -164 LINE SMOOTH",
"-481 -205 OFFCURVE",
"-445 -233 OFFCURVE",
"-399 -233 CURVE SMOOTH"
);
},
{
closed = 1;
nodes = (
"-418 -207 OFFCURVE",
"-455 -201 OFFCURVE",
"-455 -159 CURVE SMOOTH",
"-455 -136 LINE",
"-327 -107 LINE",
"-327 -138 LINE SMOOTH",
"-327 -194 OFFCURVE",
"-361 -207 OFFCURVE",
"-393 -207 CURVE SMOOTH"
);
},
{
closed = 1;
nodes = (
"-181 -159 OFFCURVE",
"-197 -174 OFFCURVE",
"-233 -174 CURVE SMOOTH",
"-263 -174 OFFCURVE",
"-301 -153 OFFCURVE",
"-301 -141 CURVE SMOOTH",
"-301 -101 LINE",
"-181 -74 LINE",
"-181 -128 LINE SMOOTH"
);
}
);
width = 0;
}
);
note = uni17D21792;
},
{
color = 7;
glyphname = "coeng_no-khmer";
lastChange = "2018-01-05 14:25:33 +0000";
layers = (
{
anchors = (
{
name = _blwm;
position = "{-323, 16}";
},
{
name = blwm;
position = "{-297, -236}";
}
);
color = 7;
guideLines = (
{
angle = 184.899;
position = "{-290, -190}";
}
);
layerId = "6517A2BC-7974-4B53-8E65-A6A29EB8D1E7";
paths = (
{
closed = 1;
nodes = (
"-171 -212 OFFCURVE",
"-161 -201 OFFCURVE",
"-161 -186 CURVE SMOOTH",
"-161 -170 OFFCURVE",
"-174 -157 OFFCURVE",
"-193 -156 CURVE",
"-193 -100 LINE",
"-138 -100 LINE",
"-138 -74 LINE",
"-193 -74 LINE",
"-193 -24 LINE",
"-219 -24 LINE",
"-219 -74 LINE",
"-370 -74 LINE SMOOTH",
"-453 -74 OFFCURVE",
"-497 -87 OFFCURVE",
"-497 -140 CURVE SMOOTH",
"-497 -183 OFFCURVE",
"-458 -204 OFFCURVE",
"-376 -197 CURVE SMOOTH",
"-219 -184 LINE",
"-215 -202 OFFCURVE",
"-204 -212 OFFCURVE",
"-187 -212 CURVE SMOOTH"
);
},
{
closed = 1;
nodes = (
"-359 -170 OFFCURVE",
"-471 -190 OFFCURVE",
"-471 -140 CURVE SMOOTH",
"-471 -108 OFFCURVE",
"-441 -100 OFFCURVE",
"-370 -100 CURVE SMOOTH",
"-219 -100 LINE",
"-219 -158 LINE"
);
}
);
width = 0;
}
);
note = uni17D21793;
},
{
color = 7;
glyphname = "coeng_pha-khmer";
lastChange = "2018-01-05 14:25:33 +0000";
layers = (
{
anchors = (
{
name = _blwm;
position = "{-318, 16}";
},
{
name = blwm;
position = "{-318, -254}";
}
);
color = 7;
guideLines = (
{
position = "{-512, -142}";
showMeasurement = 1;
}
);
layerId = "6517A2BC-7974-4B53-8E65-A6A29EB8D1E7";
paths = (
{
closed = 1;
nodes = (
"-446 -244 LINE",
"-317 -170 LINE",
"-189 -244 LINE",
"-155 -244 LINE",
"-155 -24 LINE",
"-272 -24 LINE",
"-272 -50 LINE",
"-181 -50 LINE",
"-181 -220 LINE",
"-317 -142 LINE",
"-454 -220 LINE",
"-454 -24 LINE",
"-480 -24 LINE",
"-480 -244 LINE"
);
}
);
width = 0;
}
);
note = uni17D21795;
},
{
color = 7;
glyphname = "coeng_po-khmer";
lastChange = "2018-01-05 14:25:33 +0000";
layers = (
{
anchors = (
{
name = _blwm;
position = "{-318, 16}";
},
{
name = blwm;
position = "{-318, -254}";
}
);
color = 7;
guideLines = (
{
angle = 204.507;
position = "{-260, -62}";
}
);
layerId = "6517A2BC-7974-4B53-8E65-A6A29EB8D1E7";
paths = (
{
closed = 1;
nodes = (
"-415 -244 LINE",
"-415 -219 LINE",
"-454 -219 LINE",
"-454 -54 LINE",
"-317 -116 LINE",
"-181 -54 LINE",
"-181 -244 LINE",
"-155 -244 LINE",
"-155 -24 LINE",
"-176 -24 LINE",
"-317 -89 LINE",
"-459 -24 LINE",
"-480 -24 LINE",
"-480 -244 LINE"
);
}
);
width = 0;
}
);
note = uni17D21796;
},
{
color = 7;
glyphname = "coeng_pho-khmer";
lastChange = "2018-01-05 14:25:33 +0000";
layers = (
{
anchors = (
{
name = _blwm;
position = "{-344, 16}";
},
{
name = blwm;
position = "{-344, -254}";
}
);
color = 7;
layerId = "6517A2BC-7974-4B53-8E65-A6A29EB8D1E7";
paths = (
{
closed = 1;
nodes = (
"-454 -244 LINE",
"-454 -138 LINE SMOOTH",
"-454 -78 OFFCURVE",
"-411 -49 OFFCURVE",
"-317 -49 CURVE SMOOTH",
"-223 -49 OFFCURVE",
"-181 -77 OFFCURVE",
"-181 -138 CURVE SMOOTH",
"-181 -244 LINE",
"-155 -244 LINE",
"-155 -138 LINE SMOOTH",
"-155 -59 OFFCURVE",
"-215 -24 OFFCURVE",
"-317 -24 CURVE SMOOTH",
"-419 -24 OFFCURVE",
"-480 -59 OFFCURVE",
"-480 -138 CURVE SMOOTH",
"-480 -220 LINE",
"-528 -220 LINE",
"-528 -244 LINE"
);
}
);
width = 0;
}
);
note = uni17D21797;
},
{
color = 7;
glyphname = "coeng_mo-khmer";
lastChange = "2018-01-05 14:25:33 +0000";
layers = (
{
anchors = (
{
name = _blwm;
position = "{0, 16}";
},
{
name = blwm;
position = "{30, -254}";
}
);
color = 7;
layerId = "6517A2BC-7974-4B53-8E65-A6A29EB8D1E7";
paths = (
{
closed = 1;
nodes = (
"198 -199 OFFCURVE",
"209 -186 OFFCURVE",
"209 -172 CURVE SMOOTH",
"209 -155 OFFCURVE",
"199 -142 OFFCURVE",
"173 -140 CURVE",
"173 -24 LINE",
"147 -24 LINE",
"147 -140 LINE",
"-159 -140 LINE",
"-159 -166 LINE",
"145 -166 LINE",
"150 -188 OFFCURVE",
"163 -199 OFFCURVE",
"182 -199 CURVE"
);
}
);
width = 340;
}
);
note = uni17D21798;
},
{
color = 7;
glyphname = "coeng_lo-khmer";
lastChange = "2018-01-05 14:25:33 +0000";
layers = (
{
anchors = (
{
name = _blwm;
position = "{-317, 16}";
},
{
name = blwm;
position = "{-314, -254}";
}
);
color = 7;
layerId = "6517A2BC-7974-4B53-8E65-A6A29EB8D1E7";
paths = (
{
closed = 1;
nodes = (
"-470 -244 LINE",
"-470 -75 OFFCURVE",
"-433 -56 OFFCURVE",
"-391 -56 CURVE SMOOTH",
"-355 -56 OFFCURVE",
"-335 -88 OFFCURVE",
"-327 -149 CURVE SMOOTH",
"-320 -205 OFFCURVE",
"-283 -244 OFFCURVE",
"-235 -244 CURVE SMOOTH",
"-175 -244 OFFCURVE",
"-138 -184 OFFCURVE",
"-139 -24 CURVE",
"-165 -24 LINE",
"-165 -120 OFFCURVE",
"-174 -218 OFFCURVE",
"-235 -218 CURVE SMOOTH",
"-270 -218 OFFCURVE",
"-297 -187 OFFCURVE",
"-304 -137 CURVE SMOOTH",
"-316 -52 OFFCURVE",
"-350 -30 OFFCURVE",
"-391 -30 CURVE SMOOTH",
"-469 -30 OFFCURVE",
"-496 -103 OFFCURVE",
"-496 -244 CURVE"
);
}
);
width = 0;
}
);
note = uni17D2179B;
},
{
color = 7;
glyphname = "coeng_vo-khmer";
lastChange = "2018-01-05 14:25:33 +0000";
layers = (
{
anchors = (
{
name = _blwm;
position = "{-318, 16}";
},
{
name = blwm;
position = "{-318, -246}";
}
);
color = 7;
layerId = "6517A2BC-7974-4B53-8E65-A6A29EB8D1E7";
paths = (
{
closed = 1;
nodes = (
"-246 -230 OFFCURVE",
"-157 -163 OFFCURVE",
"-157 -62 CURVE SMOOTH",
"-157 -36 LINE",
"-176 -36 LINE",
"-286 -82 OFFCURVE",
"-336 -97 OFFCURVE",
"-478 -128 CURVE",
"-478 -153 LINE SMOOTH",
"-478 -200 OFFCURVE",
"-434 -230 OFFCURVE",
"-362 -230 CURVE SMOOTH"
);
},
{
closed = 1;
nodes = (
"-426 -204 OFFCURVE",
"-452 -182 OFFCURVE",
"-452 -149 CURVE",
"-344 -126 OFFCURVE",
"-292 -111 OFFCURVE",
"-183 -68 CURVE",
"-183 -134 OFFCURVE",
"-245 -204 OFFCURVE",
"-361 -204 CURVE SMOOTH"
);
}
);
width = 0;
}
);
note = uni17D2179C;
},
{
color = 7;
glyphname = "coeng_sha-khmer";
lastChange = "2018-01-05 14:25:33 +0000";
layers = (
{
anchors = (
{
name = _blwm;
position = "{-315, 16}";
},
{
name = blwm;
position = "{-320, -244}";
}
);
color = 7;
components = (
{
alignment = -1;
locked = 1;
name = "coeng_ko-khmer";
}
);
layerId = "6517A2BC-7974-4B53-8E65-A6A29EB8D1E7";
paths = (
{
closed = 1;
nodes = (
"-96 -162 LINE",
"-96 -136 LINE",
"-286 -136 LINE",
"-286 -162 LINE"
);
}
);
width = 0;
}
);
},
{
color = 7;
glyphname = "coeng_ha-khmer";
lastChange = "2018-01-05 14:25:33 +0000";
layers = (
{
anchors = (
{
name = _blwm;
position = "{-318, 16}";
},
{
name = blwm;
position = "{-317, -254}";
}
);
color = 7;
layerId = "6517A2BC-7974-4B53-8E65-A6A29EB8D1E7";
paths = (
{
closed = 1;
nodes = (
"-367 -244 LINE SMOOTH",
"-322 -244 OFFCURVE",
"-305 -219 OFFCURVE",
"-305 -175 CURVE SMOOTH",
"-305 -90 LINE SMOOTH",
"-305 -62 OFFCURVE",
"-294 -50 OFFCURVE",
"-274 -50 CURVE SMOOTH",
"-209 -50 LINE SMOOTH",
"-188 -50 OFFCURVE",
"-176 -65 OFFCURVE",
"-176 -86 CURVE SMOOTH",
"-176 -244 LINE",
"-150 -244 LINE",
"-150 -102 LINE SMOOTH",
"-150 -52 OFFCURVE",
"-161 -24 OFFCURVE",
"-216 -24 CURVE SMOOTH",
"-267 -24 LINE SMOOTH",
"-312 -24 OFFCURVE",
"-331 -45 OFFCURVE",
"-331 -96 CURVE SMOOTH",
"-331 -175 LINE SMOOTH",
"-331 -205 OFFCURVE",
"-339 -218 OFFCURVE",
"-361 -218 CURVE SMOOTH",
"-429 -218 LINE SMOOTH",
"-451 -218 OFFCURVE",
"-459 -205 OFFCURVE",
"-459 -175 CURVE SMOOTH",
"-459 -24 LINE",
"-485 -24 LINE",
"-485 -175 LINE SMOOTH",
"-485 -219 OFFCURVE",
"-468 -244 OFFCURVE",
"-423 -244 CURVE SMOOTH"
);
}
);
width = 0;
}
);
note = uni17D217A0;
},
{
color = 7;
glyphname = "coeng_qa-khmer";
lastChange = "2018-01-05 14:25:33 +0000";
layers = (
{
anchors = (
{
name = _blwm;
position = "{-322, 16}";
},
{
name = blwm;
position = "{-322, -254}";
}
);
color = 7;
layerId = "6517A2BC-7974-4B53-8E65-A6A29EB8D1E7";
paths = (
{
closed = 1;
nodes = (
"-438 -244 LINE",
"-438 -124 LINE",
"-179 -124 LINE",
"-179 -218 LINE",
"-226 -218 LINE",
"-226 -244 LINE",
"-153 -244 LINE",
"-153 -24 LINE",
"-179 -24 LINE",
"-179 -98 LINE",
"-438 -98 LINE",
"-438 -24 LINE",
"-464 -24 LINE",
"-464 -218 LINE",
"-509 -218 LINE",
"-509 -244 LINE"
);
}
);
width = 0;
}
);
note = uni17D217A2;
},
{
color = 7;
glyphname = "coeng_qu-khmer";
lastChange = "2018-01-05 14:25:33 +0000";
layers = (
{
anchors = (
{
name = _blwm;
position = "{-318, 16}";
},
{
name = blwm;
position = "{-318, -244}";
}
);
color = 7;
layerId = "6517A2BC-7974-4B53-8E65-A6A29EB8D1E7";
paths = (
{
closed = 1;
nodes = (
"-480 -234 OFFCURVE",
"-472 -244 OFFCURVE",
"-453 -244 CURVE SMOOTH",
"-446 -244 LINE",
"-181 -215 LINE",
"-181 -244 LINE",
"-155 -244 LINE",
"-155 -150 LINE",
"-181 -150 LINE",
"-181 -189 LINE",
"-454 -218 LINE",
"-454 -168 LINE",
"-251 -143 OFFCURVE",
"-155 -124 OFFCURVE",
"-155 -102 CURVE SMOOTH",
"-155 -60 LINE SMOOTH",
"-155 -30 OFFCURVE",
"-161 -24 OFFCURVE",
"-192 -24 CURVE SMOOTH",
"-442 -24 LINE SMOOTH",
"-470 -24 OFFCURVE",
"-480 -30 OFFCURVE",
"-480 -61 CURVE SMOOTH",
"-480 -98 LINE",
"-454 -98 LINE",
"-454 -50 LINE",
"-181 -50 LINE",
"-181 -94 LINE SMOOTH",
"-181 -104 OFFCURVE",
"-342 -127 OFFCURVE",
"-434 -140 CURVE SMOOTH",
"-465 -144 OFFCURVE",
"-480 -148 OFFCURVE",
"-480 -172 CURVE SMOOTH",
"-480 -215 LINE SMOOTH"
);
}
);
width = 0;
}
);
},
{
color = 7;
glyphname = "coeng_ry-khmer";
lastChange = "2018-01-05 14:25:33 +0000";
layers = (
{
anchors = (
{
name = _blwm;
position = "{-326, 16}";
}
);
color = 7;
layerId = "6517A2BC-7974-4B53-8E65-A6A29EB8D1E7";
paths = (
{
closed = 1;
nodes = (
"-143 -24 LINE",
"-224 -24 LINE",
"-239 -41 OFFCURVE",
"-249 -63 OFFCURVE",
"-249 -80 CURVE SMOOTH",
"-249 -96 OFFCURVE",
"-215 -132 OFFCURVE",
"-198 -166 CURVE",
"-198 -256 LINE SMOOTH",
"-198 -305 OFFCURVE",
"-232 -338 OFFCURVE",
"-312 -338 CURVE SMOOTH",
"-392 -338 OFFCURVE",
"-425 -305 OFFCURVE",
"-425 -256 CURVE SMOOTH",
"-425 -162 LINE",
"-487 -74 LINE",
"-479 -50 LINE",
"-390 -50 LINE",
"-390 -24 LINE",
"-477 -24 LINE",
"-492 -41 OFFCURVE",
"-502 -63 OFFCURVE",
"-502 -80 CURVE SMOOTH",
"-502 -90 OFFCURVE",
"-482 -120 OFFCURVE",
"-451 -166 CURVE",
"-451 -256 LINE SMOOTH",
"-451 -330 OFFCURVE",
"-396 -364 OFFCURVE",
"-312 -364 CURVE SMOOTH",
"-228 -364 OFFCURVE",
"-172 -325 OFFCURVE",
"-172 -256 CURVE SMOOTH",
"-172 -162 LINE",
"-234 -74 LINE",
"-226 -50 LINE",
"-143 -50 LINE"
);
},
{
closed = 1;
nodes = (
"-204 -395 LINE",
"-204 -418 OFFCURVE",
"-278 -438 OFFCURVE",
"-390 -438 CURVE SMOOTH",
"-431 -438 LINE",
"-431 -464 LINE",
"-412 -464 LINE SMOOTH",
"-290 -464 OFFCURVE",
"-178 -445 OFFCURVE",
"-178 -391 CURVE SMOOTH",
"-178 -369 LINE",
"-258 -369 LINE",
"-258 -395 LINE"
);
}
);
width = 0;
}
);
},
{
color = 7;
glyphname = "coeng_ryy-khmer";
lastChange = "2018-01-05 14:25:33 +0000";
layers = (
{
anchors = (
{
name = _blwm;
position = "{-326, 16}";
}
);
color = 7;
components = (
{
alignment = -1;
locked = 1;
name = "coeng_ry-khmer";
}
);
guideLines = (
{
position = "{-437, -464}";
}
);
layerId = "6517A2BC-7974-4B53-8E65-A6A29EB8D1E7";
paths = (
{
closed = 1;
nodes = (
"-222 -455 OFFCURVE",
"-206 -464 OFFCURVE",
"-184 -464 CURVE SMOOTH",
"-165 -464 LINE",
"-165 -438 LINE",
"-187 -438 LINE SMOOTH",
"-199 -438 OFFCURVE",
"-209 -434 OFFCURVE",
"-219 -425 CURVE",
"-235 -443 LINE"
);
}
);
width = 0;
}
);
},
{
color = 7;
glyphname = "coeng_qe-khmer";
lastChange = "2018-01-05 14:25:33 +0000";
layers = (
{
anchors = (
{
name = _blwm;
position = "{-284, 16}";
}
);
color = 7;
guideLines = (
{
angle = 153.134;
position = "{-193, -204}";
},
{
angle = 206.27;
position = "{-376, -203}";
},
{
position = "{-467, -428}";
}
);
layerId = "6517A2BC-7974-4B53-8E65-A6A29EB8D1E7";
paths = (
{
closed = 1;
nodes = (
"-440 -428 LINE",
"-284 -351 LINE",
"-132 -428 LINE",
"-100 -428 LINE",
"-100 -232 LINE SMOOTH",
"-100 -150 OFFCURVE",
"-110 -111 OFFCURVE",
"-245 -111 CURVE SMOOTH",
"-367 -111 LINE SMOOTH",
"-407 -111 OFFCURVE",
"-441 -94 OFFCURVE",
"-441 -62 CURVE SMOOTH",
"-441 -24 LINE",
"-468 -24 LINE SMOOTH",
"-468 -64 LINE SMOOTH",
"-468 -108 OFFCURVE",
"-425 -137 OFFCURVE",
"-361 -137 CURVE SMOOTH",
"-240 -137 LINE SMOOTH",
"-127 -137 OFFCURVE",
"-126 -174 OFFCURVE",
"-126 -229 CURVE SMOOTH",
"-126 -402 LINE",
"-284 -322 LINE",
"-446 -401 LINE",
"-446 -260 LINE SMOOTH",
"-446 -239 OFFCURVE",
"-453 -232 OFFCURVE",
"-480 -232 CURVE SMOOTH",
"-526 -232 LINE",
"-526 -258 LINE",
"-489 -258 OFFCURVE",
"-472 -260 OFFCURVE",
"-472 -273 CURVE SMOOTH",
"-472 -428 LINE"
);
}
);
width = 0;
}
);
},
{
color = 11;
glyphname = "coeng_nyo-khmer.a";
lastChange = "2018-01-05 12:50:14 +0000";
layers = (
{
anchors = (
{
name = _blwm_self;
position = "{-446, 12}";
},
{
name = blwm;
position = "{-446, -231}";
}
);
guideLines = (
{
angle = 180;
position = "{-445, -132}";
}
);
layerId = "6517A2BC-7974-4B53-8E65-A6A29EB8D1E7";
paths = (
{
closed = 1;
nodes = (
"-707 -132 LINE",
"-707 -106 LINE",
"-764 -106 LINE",
"-764 -53 LINE",
"-594 -90 LINE",
"-442 -53 LINE",
"-442 -132 LINE",
"-416 -132 LINE",
"-416 -50 LINE",
"-126 -50 LINE",
"-126 -132 LINE",
"-100 -132 LINE",
"-100 -48 LINE SMOOTH",
"-100 -27 OFFCURVE",
"-109 -24 OFFCURVE",
"-124 -24 CURVE SMOOTH",
"-416 -24 LINE SMOOTH",
"-469 -24 OFFCURVE",
"-540 -49 OFFCURVE",
"-594 -65 CURVE",
"-651 -51 OFFCURVE",
"-752 -24 OFFCURVE",
"-765 -24 CURVE SMOOTH",
"-774 -24 LINE SMOOTH",
"-784 -24 OFFCURVE",
"-790 -32 OFFCURVE",
"-790 -45 CURVE SMOOTH",
"-790 -132 LINE"
);
},
{
closed = 1;
nodes = (
"-150 -219 OFFCURVE",
"-100 -202 OFFCURVE",
"-100 -165 CURVE SMOOTH",
"-100 -147 LINE",
"-235 -147 LINE",
"-235 -173 LINE",
"-127 -173 LINE",
"-127 -183 OFFCURVE",
"-165 -198 OFFCURVE",
"-232 -198 CURVE SMOOTH",
"-279 -198 OFFCURVE",
"-345 -197 OFFCURVE",
"-410 -186 CURVE SMOOTH",
"-483 -174 OFFCURVE",
"-575 -165 OFFCURVE",
"-686 -165 CURVE SMOOTH",
"-790 -165 LINE",
"-790 -191 LINE",
"-686 -191 LINE SMOOTH",
"-619 -191 OFFCURVE",
"-547 -196 OFFCURVE",
"-468 -205 CURVE SMOOTH",
"-392 -214 OFFCURVE",
"-319 -219 OFFCURVE",
"-250 -219 CURVE SMOOTH"
);
}
);
width = 0;
}
);
note = uni17D21789.a;
},
{
color = 11;
glyphname = "iMark-khmer.r";
lastChange = "2018-01-04 12:12:06 +0000";
layers = (
{
anchors = (
{
name = _abvm;
position = "{-224, 684}";
},
{
name = abvm;
position = "{-224, 911}";
}
);
guideLines = (
{
angle = 270;
position = "{-40, 750}";
},
{
angle = 90;
position = "{-440, 729}";
}
);
layerId = "6517A2BC-7974-4B53-8E65-A6A29EB8D1E7";
paths = (
{
closed = 1;
nodes = (
"-50 684 LINE",
"-50 723 LINE",
"-112 802 OFFCURVE",
"-173 861 OFFCURVE",
"-257 861 CURVE SMOOTH",
"-347 861 OFFCURVE",
"-386 783 OFFCURVE",
"-386 717 CURVE SMOOTH",
"-386 693 OFFCURVE",
"-377 684 OFFCURVE",
"-356 684 CURVE SMOOTH"
);
},
{
closed = 1;
nodes = (
"-359 790 OFFCURVE",
"-322 835 OFFCURVE",
"-257 835 CURVE SMOOTH",
"-182 835 OFFCURVE",
"-108 756 OFFCURVE",
"-76 710 CURVE",
"-359 710 LINE"
);
}
);
width = 0;
}
);
note = uni17B7.r;
category = Mark;
},
{
color = 11;
glyphname = "iMark_toandakhiat-khmer.r";
lastChange = "2018-01-04 12:12:06 +0000";
layers = (
{
anchors = (
{
name = _abvm;
position = "{-224, 684}";
},
{
name = abvm;
position = "{-224, 959}";
}
);
components = (
{
name = "iMark-khmer.r";
}
);
layerId = "6517A2BC-7974-4B53-8E65-A6A29EB8D1E7";
paths = (
{
closed = 1;
nodes = (
"-138 798 LINE",
"-129 813 OFFCURVE",
"-117 817 OFFCURVE",
"-81 819 CURVE SMOOTH",
"-38 820 OFFCURVE",
"18 839 OFFCURVE",
"18 919 CURVE",
"-8 919 LINE",
"-8 850 OFFCURVE",
"-53 845 OFFCURVE",
"-82 844 CURVE SMOOTH",
"-125 843 OFFCURVE",
"-150 837 OFFCURVE",
"-163 812 CURVE"
);
}
);
width = 0;
}
);
note = uni17B717CD.r;
},
{
color = 11;
glyphname = "iiMark-khmer.r";
lastChange = "2018-01-04 12:12:06 +0000";
layers = (
{
anchors = (
{
name = _abvm;
position = "{-224, 684}";
},
{
name = abvm;
position = "{-224, 950}";
}
);
components = (
{
alignment = -1;
locked = 1;
name = "iMark-khmer.r";
}
);
layerId = "6517A2BC-7974-4B53-8E65-A6A29EB8D1E7";
paths = (
{
closed = 1;
nodes = (
"-50 893 LINE",
"-76 893 LINE",
"-76 684 LINE",
"-50 684 LINE"
);
}
);
width = 0;
}
);
note = uni17B8.r;
},
{
color = 11;
glyphname = "yMark-khmer.r";
lastChange = "2018-01-04 12:12:01 +0000";
layers = (
{
anchors = (
{
name = _abvm;
position = "{-224, 684}";
},
{
name = abvm;
position = "{-224, 950}";
}
);
components = (
{
alignment = -1;
locked = 1;
name = "iMark-khmer.r";
}
);
layerId = "6517A2BC-7974-4B53-8E65-A6A29EB8D1E7";
paths = (
{
closed = 1;
nodes = (
"-83 754 LINE",
"-74 771 OFFCURVE",
"-56 814 OFFCURVE",
"-56 845 CURVE SMOOTH",
"-56 881 OFFCURVE",
"-80 916 OFFCURVE",
"-124 916 CURVE SMOOTH",
"-159 916 OFFCURVE",
"-190 888 OFFCURVE",
"-205 850 CURVE"
);
},
{
closed = 1;
nodes = (
"-170 868 OFFCURVE",
"-145 889 OFFCURVE",
"-122 889 CURVE SMOOTH",
"-97 889 OFFCURVE",
"-80 868 OFFCURVE",
"-80 841 CURVE SMOOTH",
"-80 823 OFFCURVE",
"-92 790 OFFCURVE",
"-100 781 CURVE",
"-182 841 LINE"
);
}
);
width = 0;
}
);
note = uni17B9.r;
},
{
color = 11;
glyphname = "yyMark-khmer.r";
lastChange = "2018-01-04 12:12:01 +0000";
layers = (
{
anchors = (
{
name = _abvm;
position = "{-224, 684}";
},
{
name = abvm;
position = "{-224, 950}";
}
);
components = (
{
alignment = -1;
locked = 1;
name = "iMark-khmer.r";
}
);
layerId = "6517A2BC-7974-4B53-8E65-A6A29EB8D1E7";
paths = (
{
closed = 1;
nodes = (
"-76 684 LINE",
"-50 684 LINE",
"-50 897 LINE",
"-76 897 LINE"
);
},
{
closed = 1;
nodes = (
"-149 796 LINE",
"-123 796 LINE",
"-123 922 LINE",
"-149 922 LINE"
);
}
);
width = 0;
}
);
note = uni17BA.r;
},
{
color = 11;
glyphname = "muusikatoan-khmer.r";
lastChange = "2018-01-04 12:12:01 +0000";
layers = (
{
anchors = (
{
name = _abvm;
position = "{-297, 684}";
},
{
name = _abvm_a;
position = "{-297, 684}";
},
{
name = _abvm_mskt;
position = "{-297, 684}";
},
{
name = abvm;
position = "{-297, 950}";
}
);
layerId = "6517A2BC-7974-4B53-8E65-A6A29EB8D1E7";
paths = (
{
closed = 1;
nodes = (
"-337 684 LINE",
"-337 879 LINE",
"-365 879 LINE",
"-365 684 LINE"
);
},
{
closed = 1;
nodes = (
"-229 684 LINE",
"-229 879 LINE",
"-257 879 LINE",
"-257 684 LINE"
);
}
);
width = 0;
}
);
note = uni17C9.r;
},
{
color = 11;
glyphname = "robat-khmer.r";
lastChange = "2018-01-04 12:10:54 +0000";
layers = (
{
anchors = (
{
name = _abvm;
position = "{-297, 684}";
},
{
name = abvm;
position = "{-297, 986}";
}
);
layerId = "6517A2BC-7974-4B53-8E65-A6A29EB8D1E7";
paths = (
{
closed = 1;
nodes = (
"-365 742 OFFCURVE",
"-346 758 OFFCURVE",
"-305 758 CURVE SMOOTH",
"-259 758 OFFCURVE",
"-239 742 OFFCURVE",
"-201 698 CURVE",
"-180 715 LINE",
"-222 762 OFFCURVE",
"-255 791 OFFCURVE",
"-333 781 CURVE",
"-298 825 OFFCURVE",
"-282 848 OFFCURVE",
"-242 911 CURVE",
"-267 919 LINE",
"-307 851 OFFCURVE",
"-368 774 OFFCURVE",
"-425 723 CURVE",
"-410 702 LINE"
);
}
);
width = 0;
}
);
},
{
color = 11;
glyphname = "toandakhiat-khmer.r";
lastChange = "2018-01-04 12:10:54 +0000";
layers = (
{
anchors = (
{
name = _abvm;
position = "{-154, 684}";
},
{
name = abvm;
position = "{-158, 975}";
}
);
layerId = "6517A2BC-7974-4B53-8E65-A6A29EB8D1E7";
paths = (
{
closed = 1;
nodes = (
"-178 684 LINE",
"-178 710 LINE",
"-196 710 LINE SMOOTH",
"-245 710 OFFCURVE",
"-258 723 OFFCURVE",
"-258 750 CURVE SMOOTH",
"-258 775 OFFCURVE",
"-242 787 OFFCURVE",
"-204 787 CURVE SMOOTH",
"-167 787 LINE SMOOTH",
"-76 787 OFFCURVE",
"-20 828 OFFCURVE",
"-20 908 CURVE",
"-46 908 LINE",
"-46 839 OFFCURVE",
"-91 813 OFFCURVE",
"-163 813 CURVE SMOOTH",
"-196 813 LINE SMOOTH",
"-253 813 OFFCURVE",
"-284 794 OFFCURVE",
"-284 748 CURVE SMOOTH",
"-284 705 OFFCURVE",
"-258 684 OFFCURVE",
"-210 684 CURVE SMOOTH"
);
}
);
width = 10;
}
);
note = uni17CD.r;
},
{
color = 11;
glyphname = "kakabat-khmer.r";
lastChange = "2018-01-04 12:10:54 +0000";
layers = (
{
anchors = (
{
name = _abvm;
position = "{-77, 684}";
},
{
name = abvm;
position = "{-77, 993}";
}
);
guideLines = (
{
angle = 270;
position = "{-77, 409}";
}
);
layerId = "6517A2BC-7974-4B53-8E65-A6A29EB8D1E7";
paths = (
{
closed = 1;
nodes = (
"-64 684 LINE",
"-64 796 LINE",
"28 796 LINE",
"28 822 LINE",
"-64 822 LINE",
"-64 934 LINE",
"-90 934 LINE",
"-90 822 LINE",
"-182 822 LINE",
"-182 796 LINE",
"-90 796 LINE",
"-90 684 LINE"
);
}
);
width = 0;
}
);
},
{
color = 11;
glyphname = "ahsda-khmer.r";
lastChange = "2018-01-04 12:10:54 +0000";
layers = (
{
anchors = (
{
name = _abvm;
position = "{-297, 684}";
},
{
name = abvm;
position = "{-297, 985}";
}
);
layerId = "6517A2BC-7974-4B53-8E65-A6A29EB8D1E7";
paths = (
{
closed = 1;
nodes = (
"-412 684 LINE",
"-294 739 LINE",
"-176 684 LINE",
"-146 684 LINE",
"-146 767 LINE",
"-172 767 LINE",
"-172 710 LINE",
"-293 767 LINE",
"-416 710 LINE",
"-416 768 LINE SMOOTH",
"-416 797 OFFCURVE",
"-416 816 OFFCURVE",
"-382 816 CURVE SMOOTH",
"-210 816 LINE SMOOTH",
"-171 816 OFFCURVE",
"-152 833 OFFCURVE",
"-152 862 CURVE SMOOTH",
"-152 881 LINE",
"-178 881 LINE",
"-178 842 OFFCURVE",
"-187 842 OFFCURVE",
"-235 842 CURVE SMOOTH",
"-376 842 LINE SMOOTH",
"-435 842 OFFCURVE",
"-442 815 OFFCURVE",
"-442 768 CURVE SMOOTH",
"-442 684 LINE"
);
}
);
width = 0;
}
);
},
{
color = 11;
glyphname = "bathamasat-khmer.r";
lastChange = "2018-01-04 12:10:59 +0000";
layers = (
{
anchors = (
{
name = _abvm;
position = "{-297, 684}";
}
);
guideLines = (
{
angle = 180;
position = "{-323, 757}";
}
);
layerId = "6517A2BC-7974-4B53-8E65-A6A29EB8D1E7";
paths = (
{
closed = 1;
nodes = (
"-213 685 OFFCURVE",
"-131 721 OFFCURVE",
"-131 807 CURVE SMOOTH",
"-131 893 OFFCURVE",
"-213 929 OFFCURVE",
"-297 929 CURVE SMOOTH",
"-381 929 OFFCURVE",
"-462 893 OFFCURVE",
"-462 807 CURVE SMOOTH",
"-462 721 OFFCURVE",
"-381 685 OFFCURVE",
"-297 685 CURVE SMOOTH"
);
},
{
closed = 1;
nodes = (
"-373 711 OFFCURVE",
"-436 741 OFFCURVE",
"-436 807 CURVE SMOOTH",
"-436 880 OFFCURVE",
"-357 903 OFFCURVE",
"-297 903 CURVE SMOOTH",
"-224 903 OFFCURVE",
"-157 876 OFFCURVE",
"-157 807 CURVE SMOOTH",
"-157 742 OFFCURVE",
"-220 711 OFFCURVE",
"-297 711 CURVE SMOOTH"
);
}
);
width = 0;
}
);
},
{
color = 11;
glyphname = "atthacan-khmer.r";
lastChange = "2018-01-04 12:10:59 +0000";
layers = (
{
anchors = (
{
name = _abvm;
position = "{-320, 684}";
}
);
layerId = "6517A2BC-7974-4B53-8E65-A6A29EB8D1E7";
paths = (
{
closed = 1;
nodes = (
"-437 687 LINE",
"-437 776 OFFCURVE",
"-387 810 OFFCURVE",
"-304 810 CURVE SMOOTH",
"-219 810 OFFCURVE",
"-169 776 OFFCURVE",
"-169 687 CURVE",
"-143 687 LINE",
"-143 808 OFFCURVE",
"-228 836 OFFCURVE",
"-304 836 CURVE SMOOTH",
"-380 836 OFFCURVE",
"-463 808 OFFCURVE",
"-463 687 CURVE"
);
}
);
width = 0;
}
);
},
{
color = 11;
glyphname = "coeng_da-khmer.r";
lastChange = "2018-01-04 12:11:53 +0000";
layers = (
{
anchors = (
{
name = _blwm;
position = "{-196, 16}";
},
{
name = blwm;
position = "{-196, -244}";
}
);
layerId = "6517A2BC-7974-4B53-8E65-A6A29EB8D1E7";
paths = (
{
closed = 1;
nodes = (
"-217 -244 LINE",
"-217 -218 LINE",
"-261 -218 LINE SMOOTH",
"-311 -218 OFFCURVE",
"-311 -192 OFFCURVE",
"-311 -138 CURVE SMOOTH",
"-311 -78 OFFCURVE",
"-277 -50 OFFCURVE",
"-194 -50 CURVE SMOOTH",
"-111 -50 OFFCURVE",
"-78 -64 OFFCURVE",
"-78 -138 CURVE SMOOTH",
"-78 -244 LINE",
"-52 -244 LINE",
"-52 -138 LINE SMOOTH",
"-52 -36 OFFCURVE",
"-111 -24 OFFCURVE",
"-194 -24 CURVE SMOOTH",
"-277 -24 OFFCURVE",
"-337 -50 OFFCURVE",
"-337 -138 CURVE SMOOTH",
"-337 -177 LINE SMOOTH",
"-337 -221 OFFCURVE",
"-315 -244 OFFCURVE",
"-267 -244 CURVE SMOOTH"
);
}
);
width = 0;
}
);
note = uni17D2178A.r;
},
{
color = 11;
glyphname = "coeng_pho-khmer.r";
lastChange = "2018-01-04 12:11:41 +0000";
layers = (
{
anchors = (
{
name = _blwm;
position = "{-222, 16}";
},
{
name = blwm;
position = "{-222, -244}";
}
);
layerId = "6517A2BC-7974-4B53-8E65-A6A29EB8D1E7";
paths = (
{
closed = 1;
nodes = (
"-321 -244 LINE",
"-321 -138 LINE SMOOTH",
"-321 -78 OFFCURVE",
"-278 -49 OFFCURVE",
"-209 -49 CURVE SMOOTH",
"-140 -49 OFFCURVE",
"-98 -77 OFFCURVE",
"-98 -138 CURVE SMOOTH",
"-98 -244 LINE",
"-72 -244 LINE",
"-72 -138 LINE SMOOTH",
"-72 -59 OFFCURVE",
"-132 -24 OFFCURVE",
"-209 -24 CURVE SMOOTH",
"-286 -24 OFFCURVE",
"-347 -59 OFFCURVE",
"-347 -138 CURVE SMOOTH",
"-347 -220 LINE",
"-395 -220 LINE",
"-395 -244 LINE"
);
}
);
width = 0;
}
);
note = uni17D21797.r;
},
{
color = 11;
glyphname = "coeng_mo-khmer.r";
lastChange = "2018-01-04 12:11:34 +0000";
layers = (
{
anchors = (
{
name = _blwm;
position = "{88, 16}";
},
{
name = blwm;
position = "{92, -244}";
}
);
layerId = "6517A2BC-7974-4B53-8E65-A6A29EB8D1E7";
paths = (
{
closed = 1;
nodes = (
"245 -199 OFFCURVE",
"257 -186 OFFCURVE",
"257 -172 CURVE SMOOTH",
"257 -155 OFFCURVE",
"246 -142 OFFCURVE",
"220 -140 CURVE",
"220 -24 LINE",
"194 -24 LINE",
"194 -140 LINE",
"-52 -140 LINE",
"-52 -166 LINE",
"192 -166 LINE",
"197 -188 OFFCURVE",
"210 -199 OFFCURVE",
"229 -199 CURVE"
);
}
);
width = 280;
}
);
note = uni17D21798.r;
},
{
color = 7;
glyphname = "au-khmer.right";
lastChange = "2018-01-05 14:25:33 +0000";
layers = (
{
anchors = (
{
name = blwm_a;
position = "{-38, -10}";
}
);
color = 7;
components = (
{
alignment = -1;
locked = 1;
name = "aasign-khmer";
}
);
layerId = "6517A2BC-7974-4B53-8E65-A6A29EB8D1E7";
paths = (
{
closed = 1;
nodes = (
"122 804 LINE SMOOTH",
"122 851 OFFCURVE",
"88 854 OFFCURVE",
"57 854 CURVE SMOOTH",
"-34 854 LINE",
"-34 828 LINE",
"68 828 LINE SMOOTH",
"90 828 OFFCURVE",
"96 812 OFFCURVE",
"96 783 CURVE SMOOTH",
"96 605 LINE",
"122 605 LINE"
);
}
);
width = 237;
}
);
rightMetricsKey = "oo-khmer";
},
{
color = 11;
export = 0;
glyphname = "aasign-khmer.long";
lastChange = "2017-11-20 20:34:49 +0000";
layers = (
{
anchors = (
{
name = abvm_a;
position = "{8, 655}";
},
{
name = abvm_high;
position = "{8, 714}";
},
{
name = blwm_a;
position = "{-38, -10}";
}
);
components = (
{
alignment = -1;
locked = 1;
name = "aasign-khmer";
}
);
layerId = "6517A2BC-7974-4B53-8E65-A6A29EB8D1E7";
paths = (
{
closed = 1;
nodes = (
"-212 560 LINE",
"-84 560 LINE",
"-84 586 LINE",
"-212 586 LINE"
);
}
);
width = 237;
}
);
rightMetricsKey = "aasign-khmer";
},
{
color = 11;
export = 0;
glyphname = "au-khmer.right.long";
lastChange = "2017-11-20 20:34:49 +0000";
layers = (
{
anchors = (
{
name = blwm_a;
position = "{-38, -10}";
}
);
components = (
{
alignment = -1;
locked = 1;
name = "au-khmer.right";
}
);
layerId = "6517A2BC-7974-4B53-8E65-A6A29EB8D1E7";
paths = (
{
closed = 1;
nodes = (
"-242 560 LINE",
"-104 560 LINE",
"-104 586 LINE",
"-242 586 LINE"
);
}
);
width = 237;
}
);
},
{
color = 11;
export = 0;
glyphname = "ya-khmer.top";
lastChange = "2017-11-20 20:34:49 +0000";
layers = (
{
anchors = (
{
name = abvm;
position = "{-37, 1005}";
}
);
layerId = "6517A2BC-7974-4B53-8E65-A6A29EB8D1E7";
paths = (
{
closed = 1;
nodes = (
"176 534 LINE",
"176 545 LINE SMOOTH",
"176 642 OFFCURVE",
"135 708 OFFCURVE",
"46 787 CURVE SMOOTH",
"-35 859 OFFCURVE",
"-68 874 OFFCURVE",
"-126 874 CURVE SMOOTH",
"-200 874 OFFCURVE",
"-238 819 OFFCURVE",
"-238 760 CURVE SMOOTH",
"-238 726 OFFCURVE",
"-234 717 OFFCURVE",
"-206 717 CURVE SMOOTH",
"72 717 LINE SMOOTH",
"91 717 OFFCURVE",
"150 644 OFFCURVE",
"150 545 CURVE SMOOTH",
"150 534 LINE"
);
},
{
closed = 1;
nodes = (
"-212 810 OFFCURVE",
"-186 848 OFFCURVE",
"-123 848 CURVE SMOOTH",
"-56 848 OFFCURVE",
"10 789 OFFCURVE",
"54 743 CURVE",
"-212 743 LINE"
);
},
{
closed = 1;
nodes = (
"20 928 LINE",
"-6 928 LINE",
"-6 824 LINE",
"20 803 LINE"
);
},
{
closed = 1;
nodes = (
"112 912 LINE",
"86 912 LINE",
"86 746 LINE",
"112 713 LINE"
);
}
);
width = 307;
}
);
},
{
color = 11;
export = 0;
glyphname = "ie-khmer.top";
lastChange = "2017-11-20 20:34:49 +0000";
layers = (
{
anchors = (
{
name = abvm;
position = "{0, 1005}";
}
);
layerId = "6517A2BC-7974-4B53-8E65-A6A29EB8D1E7";
paths = (
{
closed = 1;
nodes = (
"176 556 LINE",
"176 630 LINE SMOOTH",
"176 753 OFFCURVE",
"110 806 OFFCURVE",
"19 806 CURVE SMOOTH",
"-44 806 OFFCURVE",
"-85 784 OFFCURVE",
"-111 754 CURVE",
"-111 948 LINE",
"-137 948 LINE",
"-137 712 LINE",
"-111 712 LINE",
"-87 750 OFFCURVE",
"-50 780 OFFCURVE",
"20 780 CURVE SMOOTH",
"107 780 OFFCURVE",
"150 727 OFFCURVE",
"150 630 CURVE SMOOTH",
"150 556 LINE"
);
}
);
width = 306;
}
);
},
{
color = 11;
export = 0;
glyphname = loopleft;
lastChange = "2017-11-20 20:34:45 +0000";
layers = (
{
layerId = "6517A2BC-7974-4B53-8E65-A6A29EB8D1E7";
paths = (
{
closed = 1;
nodes = (
"130 27 LINE SMOOTH",
"130 3 OFFCURVE",
"146 0 OFFCURVE",
"159 0 CURVE SMOOTH",
"162 0 LINE SMOOTH",
"198 0 OFFCURVE",
"241 33 OFFCURVE",
"241 94 CURVE SMOOTH",
"241 149 OFFCURVE",
"198 168 OFFCURVE",
"156 168 CURVE",
"156 208 LINE",
"130 208 LINE SMOOTH"
);
},
{
closed = 1;
nodes = (
"156 141 LINE",
"200 141 OFFCURVE",
"215 121 OFFCURVE",
"215 91 CURVE SMOOTH",
"215 68 OFFCURVE",
"203 26 OFFCURVE",
"156 26 CURVE"
);
}
);
width = 600;
}
);
},
{
color = 11;
export = 0;
glyphname = topout.right;
lastChange = "2017-11-20 20:34:45 +0000";
layers = (
{
layerId = "6517A2BC-7974-4B53-8E65-A6A29EB8D1E7";
paths = (
{
closed = 1;
nodes = (
"139 376 LINE",
"139 398 LINE",
"57 536 LINE",
"65 560 LINE",
"158 560 LINE",
"158 586 LINE",
"67 586 LINE",
"52 569 OFFCURVE",
"42 547 OFFCURVE",
"42 530 CURVE SMOOTH",
"42 514 OFFCURVE",
"56 486 OFFCURVE",
"113 394 CURVE",
"113 376 LINE"
);
}
);
width = 200;
}
);
},
{
color = 11;
export = 0;
glyphname = topout.left;
lastChange = "2017-11-20 20:34:45 +0000";
layers = (
{
guideLines = (
{
position = "{409, 376}";
}
);
layerId = "6517A2BC-7974-4B53-8E65-A6A29EB8D1E7";
paths = (
{
closed = 1;
nodes = (
"157 376 LINE",
"157 398 LINE",
"75 536 LINE",
"83 560 LINE",
"176 560 LINE",
"176 586 LINE",
"85 586 LINE",
"70 569 OFFCURVE",
"60 547 OFFCURVE",
"60 530 CURVE SMOOTH",
"60 514 OFFCURVE",
"74 486 OFFCURVE",
"131 394 CURVE",
"131 376 LINE"
);
}
);
width = 200;
}
);
},
{
color = 11;
export = 0;
glyphname = looptop.left;
lastChange = "2017-11-20 20:34:45 +0000";
layers = (
{
layerId = "6517A2BC-7974-4B53-8E65-A6A29EB8D1E7";
paths = (
{
closed = 1;
nodes = (
"504 412 LINE SMOOTH",
"504 431 OFFCURVE",
"497 439 OFFCURVE",
"468 439 CURVE SMOOTH",
"418 439 OFFCURVE",
"385 396 OFFCURVE",
"385 354 CURVE SMOOTH",
"385 297 OFFCURVE",
"440 268 OFFCURVE",
"478 268 CURVE",
"478 216 LINE",
"504 216 LINE"
);
},
{
closed = 1;
nodes = (
"434 295 OFFCURVE",
"411 329 OFFCURVE",
"411 354 CURVE SMOOTH",
"411 377 OFFCURVE",
"420 413 OFFCURVE",
"478 413 CURVE",
"478 295 LINE"
);
}
);
width = 600;
}
);
},
{
color = 11;
export = 0;
glyphname = topout.alt;
lastChange = "2017-11-20 20:34:45 +0000";
layers = (
{
layerId = "6517A2BC-7974-4B53-8E65-A6A29EB8D1E7";
paths = (
{
closed = 1;
nodes = (
"139 376 LINE",
"139 398 LINE",
"57 536 LINE",
"65 560 LINE",
"158 560 LINE",
"158 586 LINE",
"67 586 LINE",
"52 569 OFFCURVE",
"42 547 OFFCURVE",
"42 530 CURVE SMOOTH",
"42 514 OFFCURVE",
"56 486 OFFCURVE",
"113 394 CURVE",
"113 376 LINE"
);
}
);
width = 600;
}
);
},
{
color = 11;
export = 0;
glyphname = rovoloop;
lastChange = "2017-11-20 20:34:45 +0000";
layers = (
{
anchors = (
{
name = blwm;
position = "{121, -10}";
}
);
layerId = "6517A2BC-7974-4B53-8E65-A6A29EB8D1E7";
paths = (
{
closed = 1;
nodes = (
"138 385 LINE",
"138 178 LINE",
"102 176 OFFCURVE",
"49 152 OFFCURVE",
"49 84 CURVE SMOOTH",
"49 35 OFFCURVE",
"86 0 OFFCURVE",
"132 0 CURVE SMOOTH",
"136 0 LINE SMOOTH",
"153 0 OFFCURVE",
"164 9 OFFCURVE",
"164 22 CURVE SMOOTH",
"164 385 LINE"
);
},
{
closed = 1;
nodes = (
"99 25 OFFCURVE",
"75 45 OFFCURVE",
"75 84 CURVE SMOOTH",
"75 130 OFFCURVE",
"110 150 OFFCURVE",
"138 150 CURVE",
"138 25 LINE"
);
}
);
width = 224;
}
);
},
{
color = 11;
export = 0;
glyphname = ab.below;
lastChange = "2017-11-20 20:34:45 +0000";
layers = (
{
layerId = "6517A2BC-7974-4B53-8E65-A6A29EB8D1E7";
paths = (
{
closed = 1;
nodes = (
"155 -224 LINE SMOOTH",
"397 -224 OFFCURVE",
"484 -142 OFFCURVE",
"484 -58 CURVE SMOOTH",
"484 -24 LINE",
"404 -24 LINE",
"404 -50 LINE",
"458 -50 LINE",
"458 -147 OFFCURVE",
"351 -199 OFFCURVE",
"152 -199 CURVE SMOOTH",
"111 -199 LINE",
"111 -224 LINE"
);
}
);
width = 586;
}
);
},
